<ttFont>
    <TTGlyph name="A" xMin="-11" yMin="-88" xMax="1767" yMax="1442">
      <contour>
        <pt x="1110" y="20" on="1"/>
        <pt x="1139" y="70" on="1"/>
        <pt x="1179" y="47" on="0"/>
        <pt x="1220" y="47" on="1"/>
        <pt x="1299" y="47" on="0"/>
        <pt x="1429" y="217" on="0"/>
        <pt x="1473" y="358" on="1"/>
        <pt x="817" y="358" on="1"/>
        <pt x="735" y="236" on="1"/>
        <pt x="644" y="101" on="0"/>
        <pt x="410" y="-23" on="0"/>
        <pt x="122" y="-23" on="0"/>
        <pt x="-11" y="87" on="0"/>
        <pt x="-11" y="210" on="0"/>
        <pt x="62" y="285" on="0"/>
        <pt x="171" y="285" on="0"/>
        <pt x="223" y="216" on="0"/>
        <pt x="223" y="101" on="0"/>
        <pt x="169" y="72" on="1"/>
        <pt x="172" y="62" on="0"/>
        <pt x="211" y="43" on="0"/>
        <pt x="280" y="43" on="0"/>
        <pt x="344" y="60" on="0"/>
        <pt x="428" y="118" on="0"/>
        <pt x="474" y="176" on="1"/>
        <pt x="573" y="301" on="0"/>
        <pt x="869" y="814" on="0"/>
        <pt x="1150" y="1155" on="0"/>
        <pt x="1345" y="1290" on="1"/>
        <pt x="1287" y="1328" on="0"/>
        <pt x="1119" y="1374" on="0"/>
        <pt x="910" y="1374" on="0"/>
        <pt x="683" y="1299" on="0"/>
        <pt x="526" y="1171" on="0"/>
        <pt x="472" y="1084" on="1"/>
        <pt x="367" y="917" on="0"/>
        <pt x="367" y="694" on="1"/>
        <pt x="367" y="541" on="0"/>
        <pt x="419" y="393" on="1"/>
        <pt x="354" y="362" on="1"/>
        <pt x="242" y="543" on="0"/>
        <pt x="242" y="746" on="1"/>
        <pt x="242" y="883" on="0"/>
        <pt x="350" y="1133" on="0"/>
        <pt x="545" y="1327" on="0"/>
        <pt x="845" y="1442" on="0"/>
        <pt x="1024" y="1442" on="1"/>
        <pt x="1154" y="1442" on="0"/>
        <pt x="1210" y="1424" on="1"/>
        <pt x="1282" y="1402" on="1"/>
        <pt x="1318" y="1391" on="0"/>
        <pt x="1416" y="1332" on="0"/>
        <pt x="1417" y="1331" on="1"/>
        <pt x="1513" y="1376" on="0"/>
        <pt x="1651" y="1403" on="0"/>
        <pt x="1742" y="1403" on="1"/>
        <pt x="1767" y="1356" on="1"/>
        <pt x="1608" y="1356" on="0"/>
        <pt x="1480" y="1280" on="1"/>
        <pt x="1599" y="1176" on="0"/>
        <pt x="1715" y="852" on="0"/>
        <pt x="1715" y="465" on="0"/>
        <pt x="1605" y="116" on="0"/>
        <pt x="1422" y="-88" on="0"/>
        <pt x="1208" y="-88" on="0"/>
      </contour>
      <contour>
        <pt x="1417" y="1234" on="1"/>
        <pt x="1249" y="1109" on="0"/>
        <pt x="1142" y="943" on="1"/>
        <pt x="1049" y="800" on="0"/>
        <pt x="890" y="488" on="0"/>
        <pt x="853" y="422" on="1"/>
        <pt x="1491" y="422" on="1"/>
        <pt x="1538" y="610" on="0"/>
        <pt x="1538" y="796" on="1"/>
        <pt x="1538" y="1104" on="0"/>
      </contour>
    </TTGlyph>
    <TTGlyph name="AE" xMin="-31" yMin="-88" xMax="2770" yMax="1442">
      <contour>
        <pt x="2334" y="928" on="1"/>
        <pt x="2387" y="928" on="0"/>
        <pt x="2387" y="856" on="0"/>
        <pt x="2332" y="856" on="1"/>
        <pt x="2186" y="856" on="0"/>
        <pt x="1934" y="776" on="0"/>
        <pt x="1765" y="643" on="0"/>
        <pt x="1669" y="470" on="0"/>
        <pt x="1669" y="377" on="1"/>
        <pt x="1669" y="247" on="0"/>
        <pt x="1887" y="78" on="0"/>
        <pt x="2103" y="78" on="1"/>
        <pt x="2350" y="78" on="0"/>
        <pt x="2473" y="196" on="1"/>
        <pt x="2537" y="258" on="0"/>
        <pt x="2537" y="455" on="0"/>
        <pt x="2407" y="569" on="0"/>
        <pt x="2204" y="569" on="0"/>
        <pt x="2005" y="489" on="0"/>
        <pt x="1947" y="422" on="1"/>
        <pt x="1892" y="471" on="1"/>
        <pt x="1950" y="545" on="0"/>
        <pt x="2178" y="635" on="0"/>
        <pt x="2366" y="635" on="0"/>
        <pt x="2481" y="601" on="0"/>
        <pt x="2528" y="568" on="1"/>
        <pt x="2629" y="496" on="0"/>
        <pt x="2635" y="346" on="1"/>
        <pt x="2631" y="256" on="0"/>
        <pt x="2531" y="112" on="0"/>
        <pt x="2450" y="67" on="1"/>
        <pt x="2283" y="-25" on="0"/>
        <pt x="2058" y="-25" on="1"/>
        <pt x="1918" y="-25" on="0"/>
        <pt x="1667" y="73" on="0"/>
        <pt x="1590" y="164" on="1"/>
        <pt x="1533" y="46" on="0"/>
        <pt x="1382" y="-88" on="0"/>
        <pt x="1300" y="-88" on="1"/>
        <pt x="1188" y="-88" on="0"/>
        <pt x="1090" y="20" on="1"/>
        <pt x="1119" y="70" on="1"/>
        <pt x="1159" y="47" on="0"/>
        <pt x="1200" y="47" on="1"/>
        <pt x="1279" y="47" on="0"/>
        <pt x="1409" y="217" on="0"/>
        <pt x="1453" y="358" on="1"/>
        <pt x="797" y="358" on="1"/>
        <pt x="715" y="236" on="1"/>
        <pt x="624" y="101" on="0"/>
        <pt x="390" y="-23" on="0"/>
        <pt x="102" y="-23" on="0"/>
        <pt x="-31" y="87" on="0"/>
        <pt x="-31" y="210" on="0"/>
        <pt x="42" y="285" on="0"/>
        <pt x="151" y="285" on="0"/>
        <pt x="203" y="216" on="0"/>
        <pt x="203" y="101" on="0"/>
        <pt x="149" y="72" on="1"/>
        <pt x="152" y="62" on="0"/>
        <pt x="191" y="43" on="0"/>
        <pt x="260" y="43" on="0"/>
        <pt x="324" y="60" on="0"/>
        <pt x="408" y="118" on="0"/>
        <pt x="454" y="176" on="1"/>
        <pt x="553" y="301" on="0"/>
        <pt x="849" y="814" on="0"/>
        <pt x="1130" y="1155" on="0"/>
        <pt x="1325" y="1290" on="1"/>
        <pt x="1266" y="1328" on="0"/>
        <pt x="1098" y="1378" on="0"/>
        <pt x="1026" y="1378" on="1"/>
        <pt x="861" y="1378" on="0"/>
        <pt x="587" y="1269" on="0"/>
        <pt x="498" y="1178" on="1"/>
        <pt x="313" y="987" on="0"/>
        <pt x="313" y="727" on="1"/>
        <pt x="313" y="550" on="0"/>
        <pt x="397" y="389" on="1"/>
        <pt x="350" y="360" on="1"/>
        <pt x="233" y="543" on="0"/>
        <pt x="233" y="748" on="1"/>
        <pt x="233" y="970" on="0"/>
        <pt x="369" y="1147" on="1"/>
        <pt x="513" y="1334" on="0"/>
        <pt x="736" y="1404" on="1"/>
        <pt x="856" y="1442" on="0"/>
        <pt x="1040" y="1442" on="0"/>
        <pt x="1128" y="1435" on="0"/>
        <pt x="1204" y="1418" on="0"/>
        <pt x="1254" y="1406" on="0"/>
        <pt x="1315" y="1377" on="0"/>
        <pt x="1326" y="1372" on="1"/>
        <pt x="1361" y="1355" on="0"/>
        <pt x="1397" y="1331" on="1"/>
        <pt x="1493" y="1376" on="0"/>
        <pt x="1631" y="1403" on="0"/>
        <pt x="1722" y="1403" on="1"/>
        <pt x="1747" y="1356" on="1"/>
        <pt x="1588" y="1356" on="0"/>
        <pt x="1460" y="1280" on="1"/>
        <pt x="1671" y="1065" on="0"/>
        <pt x="1681" y="688" on="1"/>
        <pt x="1736" y="776" on="0"/>
        <pt x="1967" y="883" on="0"/>
        <pt x="2097" y="903" on="1"/>
        <pt x="1986" y="941" on="0"/>
        <pt x="1888" y="1067" on="0"/>
        <pt x="1888" y="1135" on="1"/>
        <pt x="1888" y="1257" on="0"/>
        <pt x="2157" y="1442" on="0"/>
        <pt x="2361" y="1442" on="1"/>
        <pt x="2548" y="1442" on="0"/>
        <pt x="2673" y="1342" on="1"/>
        <pt x="2766" y="1268" on="0"/>
        <pt x="2770" y="1147" on="1"/>
        <pt x="2770" y="1091" on="0"/>
        <pt x="2704" y="1034" on="0"/>
        <pt x="2612" y="1034" on="0"/>
        <pt x="2547" y="1085" on="0"/>
        <pt x="2547" y="1153" on="0"/>
        <pt x="2571" y="1192" on="0"/>
        <pt x="2600" y="1211" on="0"/>
        <pt x="2620" y="1216" on="1"/>
        <pt x="2647" y="1223" on="0"/>
        <pt x="2664" y="1223" on="1"/>
        <pt x="2632" y="1289" on="0"/>
        <pt x="2469" y="1368" on="0"/>
        <pt x="2253" y="1368" on="0"/>
        <pt x="2076" y="1245" on="0"/>
        <pt x="2076" y="1139" on="1"/>
        <pt x="2076" y="1025" on="0"/>
        <pt x="2154" y="960" on="1"/>
        <pt x="2198" y="924" on="0"/>
        <pt x="2258" y="924" on="1"/>
      </contour>
      <contour>
        <pt x="1397" y="1234" on="1"/>
        <pt x="1229" y="1109" on="0"/>
        <pt x="1122" y="943" on="1"/>
        <pt x="1029" y="800" on="0"/>
        <pt x="870" y="488" on="0"/>
        <pt x="833" y="422" on="1"/>
        <pt x="1471" y="422" on="1"/>
        <pt x="1518" y="610" on="0"/>
        <pt x="1518" y="796" on="1"/>
        <pt x="1518" y="1104" on="0"/>
      </contour>
    </TTGlyph>
    <TTGlyph name="Aacute" xMin="-11" yMin="-88" xMax="1767" yMax="1833">
      <contour>
        <pt x="1110" y="20" on="1"/>
        <pt x="1139" y="70" on="1"/>
        <pt x="1179" y="47" on="0"/>
        <pt x="1220" y="47" on="1"/>
        <pt x="1299" y="47" on="0"/>
        <pt x="1429" y="217" on="0"/>
        <pt x="1473" y="358" on="1"/>
        <pt x="817" y="358" on="1"/>
        <pt x="735" y="236" on="1"/>
        <pt x="644" y="101" on="0"/>
        <pt x="410" y="-23" on="0"/>
        <pt x="122" y="-23" on="0"/>
        <pt x="-11" y="87" on="0"/>
        <pt x="-11" y="210" on="0"/>
        <pt x="62" y="285" on="0"/>
        <pt x="171" y="285" on="0"/>
        <pt x="223" y="216" on="0"/>
        <pt x="223" y="101" on="0"/>
        <pt x="169" y="72" on="1"/>
        <pt x="172" y="62" on="0"/>
        <pt x="211" y="43" on="0"/>
        <pt x="280" y="43" on="0"/>
        <pt x="344" y="60" on="0"/>
        <pt x="428" y="118" on="0"/>
        <pt x="474" y="176" on="1"/>
        <pt x="573" y="301" on="0"/>
        <pt x="869" y="814" on="0"/>
        <pt x="1150" y="1155" on="0"/>
        <pt x="1345" y="1290" on="1"/>
        <pt x="1287" y="1328" on="0"/>
        <pt x="1119" y="1374" on="0"/>
        <pt x="910" y="1374" on="0"/>
        <pt x="683" y="1299" on="0"/>
        <pt x="526" y="1171" on="0"/>
        <pt x="472" y="1084" on="1"/>
        <pt x="367" y="917" on="0"/>
        <pt x="367" y="694" on="1"/>
        <pt x="367" y="541" on="0"/>
        <pt x="419" y="393" on="1"/>
        <pt x="354" y="362" on="1"/>
        <pt x="242" y="543" on="0"/>
        <pt x="242" y="746" on="1"/>
        <pt x="242" y="883" on="0"/>
        <pt x="350" y="1133" on="0"/>
        <pt x="545" y="1327" on="0"/>
        <pt x="845" y="1442" on="0"/>
        <pt x="1024" y="1442" on="1"/>
        <pt x="1154" y="1442" on="0"/>
        <pt x="1210" y="1424" on="1"/>
        <pt x="1282" y="1402" on="1"/>
        <pt x="1318" y="1391" on="0"/>
        <pt x="1416" y="1332" on="0"/>
        <pt x="1417" y="1331" on="1"/>
        <pt x="1513" y="1376" on="0"/>
        <pt x="1651" y="1403" on="0"/>
        <pt x="1742" y="1403" on="1"/>
        <pt x="1767" y="1356" on="1"/>
        <pt x="1608" y="1356" on="0"/>
        <pt x="1480" y="1280" on="1"/>
        <pt x="1599" y="1176" on="0"/>
        <pt x="1715" y="852" on="0"/>
        <pt x="1715" y="465" on="0"/>
        <pt x="1605" y="116" on="0"/>
        <pt x="1422" y="-88" on="0"/>
        <pt x="1208" y="-88" on="0"/>
      </contour>
      <contour>
        <pt x="1417" y="1234" on="1"/>
        <pt x="1249" y="1109" on="0"/>
        <pt x="1142" y="943" on="1"/>
        <pt x="1049" y="800" on="0"/>
        <pt x="890" y="488" on="0"/>
        <pt x="853" y="422" on="1"/>
        <pt x="1491" y="422" on="1"/>
        <pt x="1538" y="610" on="0"/>
        <pt x="1538" y="796" on="1"/>
        <pt x="1538" y="1104" on="0"/>
      </contour>
      <contour>
        <pt x="1397" y="1532" on="1"/>
        <pt x="1343" y="1532" on="1"/>
        <pt x="1383" y="1589" on="0"/>
        <pt x="1501" y="1777" on="1"/>
        <pt x="1536" y="1833" on="1"/>
        <pt x="1706" y="1833" on="1"/>
        <pt x="1692" y="1819" on="0"/>
        <pt x="1627" y="1752" on="1"/>
        <pt x="1462" y="1582" on="0"/>
      </contour>
    </TTGlyph>
    <TTGlyph name="Acircumflex" xMin="-11" yMin="-88" xMax="1767" yMax="1832">
      <component glyphName="A" x="0" y="0" flags="0x1004"/>
      <component glyphName="circumflex" x="1008" y="860" flags="0x1004"/>
    </TTGlyph>
    <TTGlyph name="Adieresis" xMin="-11" yMin="-88" xMax="1767" yMax="1734">
      <contour>
        <pt x="1110" y="20" on="1"/>
        <pt x="1139" y="70" on="1"/>
        <pt x="1179" y="47" on="0"/>
        <pt x="1220" y="47" on="1"/>
        <pt x="1299" y="47" on="0"/>
        <pt x="1429" y="217" on="0"/>
        <pt x="1473" y="358" on="1"/>
        <pt x="817" y="358" on="1"/>
        <pt x="735" y="236" on="1"/>
        <pt x="644" y="101" on="0"/>
        <pt x="410" y="-23" on="0"/>
        <pt x="122" y="-23" on="0"/>
        <pt x="-11" y="87" on="0"/>
        <pt x="-11" y="210" on="0"/>
        <pt x="62" y="285" on="0"/>
        <pt x="171" y="285" on="0"/>
        <pt x="223" y="216" on="0"/>
        <pt x="223" y="101" on="0"/>
        <pt x="169" y="72" on="1"/>
        <pt x="172" y="62" on="0"/>
        <pt x="211" y="43" on="0"/>
        <pt x="280" y="43" on="0"/>
        <pt x="344" y="60" on="0"/>
        <pt x="428" y="118" on="0"/>
        <pt x="474" y="176" on="1"/>
        <pt x="573" y="301" on="0"/>
        <pt x="869" y="814" on="0"/>
        <pt x="1150" y="1155" on="0"/>
        <pt x="1345" y="1290" on="1"/>
        <pt x="1287" y="1328" on="0"/>
        <pt x="1119" y="1374" on="0"/>
        <pt x="910" y="1374" on="0"/>
        <pt x="683" y="1299" on="0"/>
        <pt x="526" y="1171" on="0"/>
        <pt x="472" y="1084" on="1"/>
        <pt x="367" y="917" on="0"/>
        <pt x="367" y="694" on="1"/>
        <pt x="367" y="541" on="0"/>
        <pt x="419" y="393" on="1"/>
        <pt x="354" y="362" on="1"/>
        <pt x="242" y="543" on="0"/>
        <pt x="242" y="746" on="1"/>
        <pt x="242" y="883" on="0"/>
        <pt x="350" y="1133" on="0"/>
        <pt x="545" y="1327" on="0"/>
        <pt x="845" y="1442" on="0"/>
        <pt x="1024" y="1442" on="1"/>
        <pt x="1154" y="1442" on="0"/>
        <pt x="1210" y="1424" on="1"/>
        <pt x="1282" y="1402" on="1"/>
        <pt x="1318" y="1391" on="0"/>
        <pt x="1416" y="1332" on="0"/>
        <pt x="1417" y="1331" on="1"/>
        <pt x="1513" y="1376" on="0"/>
        <pt x="1651" y="1403" on="0"/>
        <pt x="1742" y="1403" on="1"/>
        <pt x="1767" y="1356" on="1"/>
        <pt x="1608" y="1356" on="0"/>
        <pt x="1480" y="1280" on="1"/>
        <pt x="1599" y="1176" on="0"/>
        <pt x="1715" y="852" on="0"/>
        <pt x="1715" y="465" on="0"/>
        <pt x="1605" y="116" on="0"/>
        <pt x="1422" y="-88" on="0"/>
        <pt x="1208" y="-88" on="0"/>
      </contour>
      <contour>
        <pt x="1417" y="1234" on="1"/>
        <pt x="1249" y="1109" on="0"/>
        <pt x="1142" y="943" on="1"/>
        <pt x="1049" y="800" on="0"/>
        <pt x="890" y="488" on="0"/>
        <pt x="853" y="422" on="1"/>
        <pt x="1491" y="422" on="1"/>
        <pt x="1538" y="610" on="0"/>
        <pt x="1538" y="796" on="1"/>
        <pt x="1538" y="1104" on="0"/>
      </contour>
      <contour>
        <pt x="1307" y="1734" on="0"/>
        <pt x="1359" y="1687" on="0"/>
        <pt x="1359" y="1591" on="0"/>
        <pt x="1293" y="1532" on="0"/>
        <pt x="1212" y="1532" on="0"/>
        <pt x="1158" y="1581" on="0"/>
        <pt x="1158" y="1676" on="0"/>
        <pt x="1225" y="1734" on="0"/>
      </contour>
      <contour>
        <pt x="1669" y="1734" on="0"/>
        <pt x="1721" y="1687" on="0"/>
        <pt x="1721" y="1591" on="0"/>
        <pt x="1655" y="1532" on="0"/>
        <pt x="1574" y="1532" on="0"/>
        <pt x="1520" y="1581" on="0"/>
        <pt x="1520" y="1675" on="0"/>
        <pt x="1588" y="1734" on="0"/>
      </contour>
    </TTGlyph>
    <TTGlyph name="Agrave" xMin="-11" yMin="-88" xMax="1767" yMax="1833">
      <component glyphName="A" x="0" y="0" flags="0x1004"/>
      <component glyphName="grave" x="1008" y="860" flags="0x1004"/>
    </TTGlyph>
    <TTGlyph name="Aring" xMin="-11" yMin="-88" xMax="1767" yMax="1898">
      <component glyphName="A" x="0" y="0" flags="0x1004"/>
      <component glyphName="ring" x="1146" y="860" flags="0x1004"/>
    </TTGlyph>
    <TTGlyph name="Atilde" xMin="-11" yMin="-88" xMax="1767" yMax="1726">
      <contour>
        <pt x="1110" y="20" on="1"/>
        <pt x="1139" y="70" on="1"/>
        <pt x="1179" y="47" on="0"/>
        <pt x="1220" y="47" on="1"/>
        <pt x="1299" y="47" on="0"/>
        <pt x="1429" y="217" on="0"/>
        <pt x="1473" y="358" on="1"/>
        <pt x="817" y="358" on="1"/>
        <pt x="735" y="236" on="1"/>
        <pt x="644" y="101" on="0"/>
        <pt x="410" y="-23" on="0"/>
        <pt x="122" y="-23" on="0"/>
        <pt x="-11" y="87" on="0"/>
        <pt x="-11" y="210" on="0"/>
        <pt x="62" y="285" on="0"/>
        <pt x="171" y="285" on="0"/>
        <pt x="223" y="216" on="0"/>
        <pt x="223" y="101" on="0"/>
        <pt x="169" y="72" on="1"/>
        <pt x="172" y="62" on="0"/>
        <pt x="211" y="43" on="0"/>
        <pt x="280" y="43" on="0"/>
        <pt x="344" y="60" on="0"/>
        <pt x="428" y="118" on="0"/>
        <pt x="474" y="176" on="1"/>
        <pt x="573" y="301" on="0"/>
        <pt x="869" y="814" on="0"/>
        <pt x="1150" y="1155" on="0"/>
        <pt x="1345" y="1290" on="1"/>
        <pt x="1287" y="1328" on="0"/>
        <pt x="1119" y="1374" on="0"/>
        <pt x="910" y="1374" on="0"/>
        <pt x="683" y="1299" on="0"/>
        <pt x="526" y="1171" on="0"/>
        <pt x="472" y="1084" on="1"/>
        <pt x="367" y="917" on="0"/>
        <pt x="367" y="694" on="1"/>
        <pt x="367" y="541" on="0"/>
        <pt x="419" y="393" on="1"/>
        <pt x="354" y="362" on="1"/>
        <pt x="242" y="543" on="0"/>
        <pt x="242" y="746" on="1"/>
        <pt x="242" y="883" on="0"/>
        <pt x="350" y="1133" on="0"/>
        <pt x="545" y="1327" on="0"/>
        <pt x="845" y="1442" on="0"/>
        <pt x="1024" y="1442" on="1"/>
        <pt x="1154" y="1442" on="0"/>
        <pt x="1210" y="1424" on="1"/>
        <pt x="1282" y="1402" on="1"/>
        <pt x="1318" y="1391" on="0"/>
        <pt x="1416" y="1332" on="0"/>
        <pt x="1417" y="1331" on="1"/>
        <pt x="1513" y="1376" on="0"/>
        <pt x="1651" y="1403" on="0"/>
        <pt x="1742" y="1403" on="1"/>
        <pt x="1767" y="1356" on="1"/>
        <pt x="1608" y="1356" on="0"/>
        <pt x="1480" y="1280" on="1"/>
        <pt x="1599" y="1176" on="0"/>
        <pt x="1715" y="852" on="0"/>
        <pt x="1715" y="465" on="0"/>
        <pt x="1605" y="116" on="0"/>
        <pt x="1422" y="-88" on="0"/>
        <pt x="1208" y="-88" on="0"/>
      </contour>
      <contour>
        <pt x="1417" y="1234" on="1"/>
        <pt x="1249" y="1109" on="0"/>
        <pt x="1142" y="943" on="1"/>
        <pt x="1049" y="800" on="0"/>
        <pt x="890" y="488" on="0"/>
        <pt x="853" y="422" on="1"/>
        <pt x="1491" y="422" on="1"/>
        <pt x="1538" y="610" on="0"/>
        <pt x="1538" y="796" on="1"/>
        <pt x="1538" y="1104" on="0"/>
      </contour>
      <contour>
        <pt x="1492" y="1553" on="0"/>
        <pt x="1310" y="1622" on="0"/>
        <pt x="1215" y="1622" on="0"/>
        <pt x="1175" y="1587" on="1"/>
        <pt x="1165" y="1598" on="1"/>
        <pt x="1184" y="1650" on="0"/>
        <pt x="1281" y="1726" on="0"/>
        <pt x="1387" y="1726" on="0"/>
        <pt x="1580" y="1654" on="0"/>
        <pt x="1655" y="1654" on="0"/>
        <pt x="1708" y="1691" on="0"/>
        <pt x="1715" y="1692" on="1"/>
        <pt x="1725" y="1682" on="1"/>
        <pt x="1717" y="1635" on="0"/>
        <pt x="1589" y="1553" on="0"/>
      </contour>
    </TTGlyph>
    <TTGlyph name="B" xMin="-29" yMin="-39" xMax="1851" yMax="1499">
      <contour>
        <pt x="543" y="316" on="1"/>
        <pt x="481" y="298" on="1"/>
        <pt x="464" y="342" on="0"/>
        <pt x="431" y="490" on="0"/>
        <pt x="431" y="508" on="1"/>
        <pt x="356" y="508" on="0"/>
        <pt x="203" y="464" on="0"/>
        <pt x="112" y="414" on="0"/>
        <pt x="47" y="321" on="0"/>
        <pt x="47" y="198" on="0"/>
        <pt x="110" y="104" on="0"/>
        <pt x="162" y="80" on="1"/>
        <pt x="262" y="33" on="0"/>
        <pt x="481" y="33" on="0"/>
        <pt x="639" y="79" on="0"/>
        <pt x="748" y="155" on="0"/>
        <pt x="838" y="271" on="0"/>
        <pt x="894" y="392" on="0"/>
        <pt x="948" y="548" on="0"/>
        <pt x="966" y="616" on="1"/>
        <pt x="1015" y="797" on="0"/>
        <pt x="1114" y="1041" on="0"/>
        <pt x="1308" y="1278" on="0"/>
        <pt x="1431" y="1354" on="1"/>
        <pt x="1371" y="1368" on="0"/>
        <pt x="1185" y="1368" on="0"/>
        <pt x="948" y="1287" on="0"/>
        <pt x="744" y="1142" on="0"/>
        <pt x="583" y="956" on="0"/>
        <pt x="491" y="731" on="0"/>
        <pt x="491" y="618" on="1"/>
        <pt x="711" y="573" on="0"/>
        <pt x="809" y="455" on="1"/>
        <pt x="767" y="411" on="1"/>
        <pt x="664" y="478" on="0"/>
        <pt x="562" y="502" on="0"/>
        <pt x="552" y="504" on="1"/>
        <pt x="506" y="510" on="0"/>
        <pt x="489" y="510" on="1"/>
        <pt x="501" y="436" on="0"/>
        <pt x="532" y="346" on="1"/>
      </contour>
      <contour>
        <pt x="1831" y="1499" on="1"/>
        <pt x="1851" y="1452" on="1"/>
        <pt x="1759" y="1435" on="0"/>
        <pt x="1680" y="1402" on="1"/>
        <pt x="1653" y="1391" on="1"/>
        <pt x="1725" y="1355" on="0"/>
        <pt x="1810" y="1231" on="0"/>
        <pt x="1810" y="1128" on="0"/>
        <pt x="1792" y="1058" on="0"/>
        <pt x="1766" y="1002" on="0"/>
        <pt x="1723" y="941" on="0"/>
        <pt x="1687" y="900" on="0"/>
        <pt x="1634" y="849" on="0"/>
        <pt x="1619" y="836" on="1"/>
        <pt x="1592" y="814" on="0"/>
        <pt x="1552" y="782" on="1"/>
        <pt x="1695" y="723" on="0"/>
        <pt x="1845" y="562" on="0"/>
        <pt x="1845" y="321" on="0"/>
        <pt x="1700" y="95" on="0"/>
        <pt x="1461" y="-39" on="0"/>
        <pt x="1327" y="-39" on="1"/>
        <pt x="1179" y="-39" on="0"/>
        <pt x="1100" y="44" on="1"/>
        <pt x="1057" y="89" on="0"/>
        <pt x="1057" y="209" on="0"/>
        <pt x="1130" y="283" on="0"/>
        <pt x="1234" y="283" on="0"/>
        <pt x="1294" y="231" on="0"/>
        <pt x="1294" y="162" on="0"/>
        <pt x="1270" y="123" on="0"/>
        <pt x="1237" y="101" on="0"/>
        <pt x="1219" y="94" on="1"/>
        <pt x="1188" y="82" on="0"/>
        <pt x="1177" y="82" on="1"/>
        <pt x="1177" y="38" on="0"/>
        <pt x="1286" y="27" on="1"/>
        <pt x="1305" y="25" on="0"/>
        <pt x="1321" y="25" on="1"/>
        <pt x="1460" y="25" on="0"/>
        <pt x="1648" y="235" on="0"/>
        <pt x="1648" y="375" on="1"/>
        <pt x="1648" y="445" on="0"/>
        <pt x="1586" y="564" on="0"/>
        <pt x="1496" y="636" on="0"/>
        <pt x="1407" y="687" on="0"/>
        <pt x="1345" y="715" on="0"/>
        <pt x="1345" y="724" on="0"/>
        <pt x="1405" y="764" on="0"/>
        <pt x="1492" y="829" on="0"/>
        <pt x="1578" y="913" on="0"/>
        <pt x="1638" y="1034" on="0"/>
        <pt x="1638" y="1156" on="0"/>
        <pt x="1570" y="1295" on="0"/>
        <pt x="1505" y="1323" on="1"/>
        <pt x="1317" y="1207" on="0"/>
        <pt x="1234" y="964" on="1"/>
        <pt x="1198" y="860" on="0"/>
        <pt x="1180" y="777" on="1"/>
        <pt x="1136" y="568" on="0"/>
        <pt x="1096" y="407" on="0"/>
        <pt x="977" y="211" on="0"/>
        <pt x="801" y="55" on="0"/>
        <pt x="549" y="-35" on="0"/>
        <pt x="401" y="-35" on="1"/>
        <pt x="198" y="-35" on="0"/>
        <pt x="71" y="58" on="1"/>
        <pt x="-29" y="132" on="0"/>
        <pt x="-29" y="264" on="1"/>
        <pt x="-29" y="353" on="0"/>
        <pt x="57" y="495" on="0"/>
        <pt x="126" y="536" on="1"/>
        <pt x="266" y="620" on="0"/>
        <pt x="431" y="620" on="1"/>
        <pt x="431" y="782" on="0"/>
        <pt x="583" y="1087" on="0"/>
        <pt x="834" y="1308" on="0"/>
        <pt x="1171" y="1442" on="0"/>
        <pt x="1349" y="1442" on="1"/>
        <pt x="1411" y="1442" on="0"/>
        <pt x="1550" y="1425" on="1"/>
        <pt x="1739" y="1493" on="0"/>
      </contour>
    </TTGlyph>
    <TTGlyph name="C" xMin="31" yMin="-39" xMax="1313" yMax="1442">
      <contour>
        <pt x="1034" y="301" on="1"/>
        <pt x="1082" y="256" on="1"/>
        <pt x="855" y="-39" on="0"/>
        <pt x="535" y="-39" on="1"/>
        <pt x="326" y="-39" on="0"/>
        <pt x="182" y="96" on="1"/>
        <pt x="112" y="161" on="0"/>
        <pt x="31" y="363" on="0"/>
        <pt x="31" y="623" on="0"/>
        <pt x="129" y="904" on="0"/>
        <pt x="303" y="1144" on="0"/>
        <pt x="527" y="1333" on="0"/>
        <pt x="797" y="1442" on="0"/>
        <pt x="1095" y="1442" on="0"/>
        <pt x="1313" y="1252" on="0"/>
        <pt x="1313" y="1081" on="1"/>
        <pt x="1313" y="980" on="0"/>
        <pt x="1220" y="757" on="0"/>
        <pt x="1073" y="576" on="0"/>
        <pt x="873" y="458" on="0"/>
        <pt x="675" y="458" on="0"/>
        <pt x="559" y="586" on="0"/>
        <pt x="559" y="671" on="1"/>
        <pt x="559" y="817" on="0"/>
        <pt x="802" y="1090" on="0"/>
        <pt x="993" y="1155" on="1"/>
        <pt x="1016" y="1102" on="1"/>
        <pt x="920" y="1070" on="0"/>
        <pt x="750" y="920" on="0"/>
        <pt x="655" y="749" on="0"/>
        <pt x="655" y="686" on="1"/>
        <pt x="655" y="555" on="0"/>
        <pt x="801" y="555" on="1"/>
        <pt x="903" y="555" on="0"/>
        <pt x="1108" y="735" on="0"/>
        <pt x="1231" y="978" on="0"/>
        <pt x="1231" y="1203" on="0"/>
        <pt x="1079" y="1346" on="0"/>
        <pt x="827" y="1346" on="0"/>
        <pt x="561" y="1194" on="0"/>
        <pt x="356" y="956" on="0"/>
        <pt x="225" y="647" on="0"/>
        <pt x="225" y="498" on="1"/>
        <pt x="225" y="257" on="0"/>
        <pt x="386" y="144" on="1"/>
        <pt x="480" y="78" on="0"/>
        <pt x="719" y="78" on="0"/>
        <pt x="951" y="195" on="0"/>
      </contour>
    </TTGlyph>
    <TTGlyph name="Ccedilla" xMin="31" yMin="-380" xMax="1313" yMax="1442">
      <contour>
        <pt x="1034" y="301" on="1"/>
        <pt x="1082" y="256" on="1"/>
        <pt x="855" y="-39" on="0"/>
        <pt x="535" y="-39" on="1"/>
        <pt x="326" y="-39" on="0"/>
        <pt x="182" y="96" on="1"/>
        <pt x="112" y="161" on="0"/>
        <pt x="31" y="363" on="0"/>
        <pt x="31" y="623" on="0"/>
        <pt x="129" y="904" on="0"/>
        <pt x="303" y="1144" on="0"/>
        <pt x="527" y="1333" on="0"/>
        <pt x="797" y="1442" on="0"/>
        <pt x="1095" y="1442" on="0"/>
        <pt x="1313" y="1252" on="0"/>
        <pt x="1313" y="1081" on="1"/>
        <pt x="1313" y="980" on="0"/>
        <pt x="1220" y="757" on="0"/>
        <pt x="1073" y="576" on="0"/>
        <pt x="873" y="458" on="0"/>
        <pt x="675" y="458" on="0"/>
        <pt x="559" y="586" on="0"/>
        <pt x="559" y="671" on="1"/>
        <pt x="559" y="817" on="0"/>
        <pt x="802" y="1090" on="0"/>
        <pt x="993" y="1155" on="1"/>
        <pt x="1016" y="1102" on="1"/>
        <pt x="920" y="1070" on="0"/>
        <pt x="750" y="920" on="0"/>
        <pt x="655" y="749" on="0"/>
        <pt x="655" y="686" on="1"/>
        <pt x="655" y="555" on="0"/>
        <pt x="801" y="555" on="1"/>
        <pt x="903" y="555" on="0"/>
        <pt x="1108" y="735" on="0"/>
        <pt x="1231" y="978" on="0"/>
        <pt x="1231" y="1203" on="0"/>
        <pt x="1079" y="1346" on="0"/>
        <pt x="827" y="1346" on="0"/>
        <pt x="561" y="1194" on="0"/>
        <pt x="356" y="956" on="0"/>
        <pt x="225" y="647" on="0"/>
        <pt x="225" y="498" on="1"/>
        <pt x="225" y="257" on="0"/>
        <pt x="386" y="144" on="1"/>
        <pt x="480" y="78" on="0"/>
        <pt x="719" y="78" on="0"/>
        <pt x="951" y="195" on="0"/>
      </contour>
      <contour>
        <pt x="361" y="-325" on="1"/>
        <pt x="491" y="-337" on="1"/>
        <pt x="588" y="-337" on="0"/>
        <pt x="588" y="-221" on="0"/>
        <pt x="454" y="-221" on="1"/>
        <pt x="431" y="-221" on="1"/>
        <pt x="504" y="0" on="1"/>
        <pt x="570" y="0" on="1"/>
        <pt x="535" y="-109" on="1"/>
        <pt x="610" y="-109" on="0"/>
        <pt x="703" y="-188" on="0"/>
        <pt x="703" y="-317" on="0"/>
        <pt x="600" y="-380" on="0"/>
        <pt x="424" y="-380" on="0"/>
        <pt x="358" y="-339" on="1"/>
        <pt x="349" y="-334" on="0"/>
        <pt x="349" y="-325" on="0"/>
      </contour>
    </TTGlyph>
    <TTGlyph name="Ccircumflex" xMin="31" yMin="-39" xMax="1313" yMax="1832">
      <component glyphName="C" x="0" y="0" flags="0x1004"/>
      <component glyphName="circumflex" x="607" y="860" flags="0x1004"/>
    </TTGlyph>
    <TTGlyph name="D" xMin="110" yMin="-10" xMax="1565" yMax="1442">
      <contour>
        <pt x="288" y="391" on="1"/>
        <pt x="219" y="361" on="1"/>
        <pt x="110" y="572" on="0"/>
        <pt x="110" y="768" on="1"/>
        <pt x="110" y="1011" on="0"/>
        <pt x="266" y="1184" on="1"/>
        <pt x="417" y="1352" on="0"/>
        <pt x="642" y="1412" on="1"/>
        <pt x="753" y="1442" on="0"/>
        <pt x="997" y="1442" on="0"/>
        <pt x="1197" y="1392" on="0"/>
        <pt x="1283" y="1321" on="1"/>
        <pt x="1376" y="1397" on="0"/>
        <pt x="1545" y="1397" on="1"/>
        <pt x="1565" y="1335" on="1"/>
        <pt x="1404" y="1303" on="0"/>
        <pt x="1350" y="1261" on="1"/>
        <pt x="1455" y="1164" on="0"/>
        <pt x="1563" y="851" on="0"/>
        <pt x="1563" y="560" on="0"/>
        <pt x="1529" y="364" on="0"/>
        <pt x="1452" y="191" on="0"/>
        <pt x="1394" y="130" on="1"/>
        <pt x="1271" y="-3" on="0"/>
        <pt x="881" y="-3" on="0"/>
        <pt x="656" y="94" on="1"/>
        <pt x="603" y="54" on="0"/>
        <pt x="408" y="-10" on="0"/>
        <pt x="323" y="-10" on="1"/>
        <pt x="152" y="-10" on="0"/>
        <pt x="152" y="123" on="1"/>
        <pt x="152" y="201" on="0"/>
        <pt x="326" y="306" on="0"/>
        <pt x="587" y="306" on="0"/>
        <pt x="714" y="244" on="1"/>
        <pt x="826" y="389" on="0"/>
        <pt x="890" y="647" on="1"/>
        <pt x="916" y="749" on="0"/>
        <pt x="948" y="854" on="1"/>
        <pt x="1022" y="1097" on="0"/>
        <pt x="1217" y="1270" on="1"/>
        <pt x="1164" y="1319" on="0"/>
        <pt x="991" y="1372" on="0"/>
        <pt x="909" y="1372" on="1"/>
        <pt x="718" y="1372" on="0"/>
        <pt x="415" y="1223" on="0"/>
        <pt x="233" y="923" on="0"/>
        <pt x="233" y="720" on="1"/>
        <pt x="233" y="573" on="0"/>
      </contour>
      <contour>
        <pt x="1446" y="848" on="0"/>
        <pt x="1357" y="1116" on="0"/>
        <pt x="1287" y="1188" on="1"/>
        <pt x="1227" y="1096" on="0"/>
        <pt x="1188" y="911" on="1"/>
        <pt x="1121" y="586" on="0"/>
        <pt x="963" y="384" on="1"/>
        <pt x="889" y="289" on="0"/>
        <pt x="788" y="210" on="1"/>
        <pt x="981" y="110" on="0"/>
        <pt x="1117" y="110" on="1"/>
        <pt x="1255" y="110" on="0"/>
        <pt x="1327" y="203" on="1"/>
        <pt x="1401" y="298" on="0"/>
        <pt x="1424" y="428" on="1"/>
        <pt x="1446" y="556" on="0"/>
      </contour>
      <contour>
        <pt x="589" y="141" on="1"/>
        <pt x="452" y="198" on="0"/>
        <pt x="215" y="198" on="0"/>
        <pt x="215" y="125" on="1"/>
        <pt x="215" y="63" on="0"/>
        <pt x="325" y="63" on="1"/>
        <pt x="387" y="63" on="0"/>
        <pt x="534" y="106" on="0"/>
      </contour>
    </TTGlyph>
    <TTGlyph name="DZ" xMin="110" yMin="-23" xMax="3417" yMax="1442">
      <contour>
        <pt x="288" y="391" on="1"/>
        <pt x="219" y="361" on="1"/>
        <pt x="110" y="572" on="0"/>
        <pt x="110" y="768" on="1"/>
        <pt x="110" y="1011" on="0"/>
        <pt x="266" y="1184" on="1"/>
        <pt x="417" y="1352" on="0"/>
        <pt x="642" y="1412" on="1"/>
        <pt x="753" y="1442" on="0"/>
        <pt x="997" y="1442" on="0"/>
        <pt x="1197" y="1392" on="0"/>
        <pt x="1283" y="1321" on="1"/>
        <pt x="1376" y="1397" on="0"/>
        <pt x="1545" y="1397" on="1"/>
        <pt x="1565" y="1335" on="1"/>
        <pt x="1404" y="1303" on="0"/>
        <pt x="1350" y="1261" on="1"/>
        <pt x="1455" y="1164" on="0"/>
        <pt x="1563" y="851" on="0"/>
        <pt x="1563" y="560" on="0"/>
        <pt x="1529" y="364" on="0"/>
        <pt x="1452" y="191" on="0"/>
        <pt x="1394" y="130" on="1"/>
        <pt x="1271" y="-3" on="0"/>
        <pt x="881" y="-3" on="0"/>
        <pt x="656" y="94" on="1"/>
        <pt x="603" y="54" on="0"/>
        <pt x="408" y="-10" on="0"/>
        <pt x="323" y="-10" on="1"/>
        <pt x="152" y="-10" on="0"/>
        <pt x="152" y="123" on="1"/>
        <pt x="152" y="201" on="0"/>
        <pt x="326" y="306" on="0"/>
        <pt x="587" y="306" on="0"/>
        <pt x="714" y="244" on="1"/>
        <pt x="826" y="389" on="0"/>
        <pt x="890" y="647" on="1"/>
        <pt x="916" y="749" on="0"/>
        <pt x="948" y="854" on="1"/>
        <pt x="1022" y="1097" on="0"/>
        <pt x="1217" y="1270" on="1"/>
        <pt x="1164" y="1319" on="0"/>
        <pt x="991" y="1372" on="0"/>
        <pt x="909" y="1372" on="1"/>
        <pt x="718" y="1372" on="0"/>
        <pt x="415" y="1223" on="0"/>
        <pt x="233" y="923" on="0"/>
        <pt x="233" y="720" on="1"/>
        <pt x="233" y="573" on="0"/>
      </contour>
      <contour>
        <pt x="1446" y="848" on="0"/>
        <pt x="1357" y="1116" on="0"/>
        <pt x="1287" y="1188" on="1"/>
        <pt x="1227" y="1096" on="0"/>
        <pt x="1188" y="911" on="1"/>
        <pt x="1121" y="586" on="0"/>
        <pt x="963" y="384" on="1"/>
        <pt x="889" y="289" on="0"/>
        <pt x="788" y="210" on="1"/>
        <pt x="981" y="110" on="0"/>
        <pt x="1117" y="110" on="1"/>
        <pt x="1255" y="110" on="0"/>
        <pt x="1327" y="203" on="1"/>
        <pt x="1401" y="298" on="0"/>
        <pt x="1424" y="428" on="1"/>
        <pt x="1446" y="556" on="0"/>
      </contour>
      <contour>
        <pt x="589" y="141" on="1"/>
        <pt x="452" y="198" on="0"/>
        <pt x="215" y="198" on="0"/>
        <pt x="215" y="125" on="1"/>
        <pt x="215" y="63" on="0"/>
        <pt x="325" y="63" on="1"/>
        <pt x="387" y="63" on="0"/>
        <pt x="534" y="106" on="0"/>
      </contour>
      <contour>
        <pt x="1951" y="811" on="1"/>
        <pt x="2101" y="811" on="0"/>
        <pt x="2197" y="907" on="1"/>
        <pt x="2252" y="870" on="1"/>
        <pt x="2194" y="817" on="0"/>
        <pt x="2013" y="756" on="0"/>
        <pt x="1785" y="756" on="0"/>
        <pt x="1607" y="898" on="0"/>
        <pt x="1607" y="1040" on="1"/>
        <pt x="1607" y="1210" on="0"/>
        <pt x="1917" y="1442" on="0"/>
        <pt x="2181" y="1442" on="1"/>
        <pt x="2314" y="1442" on="0"/>
        <pt x="2552" y="1368" on="0"/>
        <pt x="2692" y="1279" on="0"/>
        <pt x="2863" y="1164" on="0"/>
        <pt x="2914" y="1141" on="1"/>
        <pt x="2981" y="1213" on="0"/>
        <pt x="3156" y="1294" on="0"/>
        <pt x="3316" y="1294" on="0"/>
        <pt x="3417" y="1215" on="0"/>
        <pt x="3417" y="1054" on="0"/>
        <pt x="3240" y="955" on="0"/>
        <pt x="3018" y="955" on="0"/>
        <pt x="2934" y="985" on="1"/>
        <pt x="2781" y="733" on="1"/>
        <pt x="3184" y="733" on="1"/>
        <pt x="3213" y="674" on="1"/>
        <pt x="2745" y="674" on="1"/>
        <pt x="2510" y="295" on="1"/>
        <pt x="2585" y="229" on="0"/>
        <pt x="2887" y="104" on="0"/>
        <pt x="2973" y="104" on="1"/>
        <pt x="3159" y="104" on="0"/>
        <pt x="3192" y="293" on="1"/>
        <pt x="3286" y="279" on="1"/>
        <pt x="3286" y="158" on="0"/>
        <pt x="3065" y="-23" on="0"/>
        <pt x="2895" y="-23" on="1"/>
        <pt x="2740" y="-23" on="0"/>
        <pt x="2544" y="84" on="1"/>
        <pt x="2516" y="99" on="0"/>
        <pt x="2409" y="162" on="0"/>
        <pt x="2387" y="174" on="1"/>
        <pt x="2201" y="-23" on="0"/>
        <pt x="1982" y="-23" on="1"/>
        <pt x="1818" y="-23" on="0"/>
        <pt x="1650" y="129" on="0"/>
        <pt x="1650" y="242" on="1"/>
        <pt x="1650" y="350" on="0"/>
        <pt x="1745" y="437" on="1"/>
        <pt x="1846" y="529" on="0"/>
        <pt x="2011" y="529" on="1"/>
        <pt x="2156" y="529" on="0"/>
        <pt x="2338" y="420" on="1"/>
        <pt x="2373" y="400" on="0"/>
        <pt x="2436" y="361" on="1"/>
        <pt x="2632" y="674" on="1"/>
        <pt x="2260" y="674" on="1"/>
        <pt x="2314" y="733" on="1"/>
        <pt x="2668" y="733" on="1"/>
        <pt x="2842" y="1016" on="1"/>
        <pt x="2653" y="1092" on="0"/>
        <pt x="2490" y="1214" on="1"/>
        <pt x="2431" y="1257" on="0"/>
        <pt x="2370" y="1296" on="1"/>
        <pt x="2243" y="1378" on="0"/>
        <pt x="2081" y="1378" on="1"/>
        <pt x="1994" y="1378" on="0"/>
        <pt x="1849" y="1318" on="0"/>
        <pt x="1804" y="1270" on="1"/>
        <pt x="1709" y="1170" on="0"/>
        <pt x="1709" y="931" on="0"/>
        <pt x="1850" y="811" on="0"/>
      </contour>
      <contour>
        <pt x="2314" y="225" on="1"/>
        <pt x="2236" y="287" on="0"/>
        <pt x="1981" y="399" on="0"/>
        <pt x="1803" y="399" on="0"/>
        <pt x="1716" y="307" on="0"/>
        <pt x="1716" y="167" on="0"/>
        <pt x="1846" y="53" on="0"/>
        <pt x="1970" y="53" on="1"/>
        <pt x="2156" y="53" on="0"/>
      </contour>
      <contour>
        <pt x="2989" y="1100" on="1"/>
        <pt x="3070" y="1061" on="0"/>
        <pt x="3239" y="1061" on="0"/>
        <pt x="3340" y="1110" on="0"/>
        <pt x="3340" y="1184" on="0"/>
        <pt x="3290" y="1223" on="0"/>
        <pt x="3191" y="1223" on="0"/>
        <pt x="3049" y="1157" on="0"/>
      </contour>
    </TTGlyph>
    <TTGlyph name="Dz" xMin="110" yMin="-16" xMax="2256" yMax="1442">
      <component glyphName="D" x="0" y="0" flags="0x1004"/>
      <component glyphName="z" x="1622" y="0" flags="0x1004"/>
    </TTGlyph>
    <TTGlyph name="E" xMin="110" yMin="-25" xMax="1441" yMax="1442">
      <contour>
        <pt x="1005" y="928" on="1"/>
        <pt x="1058" y="928" on="0"/>
        <pt x="1058" y="856" on="0"/>
        <pt x="1003" y="856" on="1"/>
        <pt x="859" y="856" on="0"/>
        <pt x="604" y="766" on="0"/>
        <pt x="436" y="626" on="0"/>
        <pt x="340" y="458" on="0"/>
        <pt x="340" y="377" on="1"/>
        <pt x="340" y="247" on="0"/>
        <pt x="558" y="78" on="0"/>
        <pt x="774" y="78" on="1"/>
        <pt x="1021" y="78" on="0"/>
        <pt x="1144" y="196" on="1"/>
        <pt x="1208" y="258" on="0"/>
        <pt x="1208" y="455" on="0"/>
        <pt x="1078" y="569" on="0"/>
        <pt x="875" y="569" on="0"/>
        <pt x="676" y="489" on="0"/>
        <pt x="618" y="422" on="1"/>
        <pt x="563" y="471" on="1"/>
        <pt x="621" y="545" on="0"/>
        <pt x="849" y="635" on="0"/>
        <pt x="1037" y="635" on="0"/>
        <pt x="1152" y="601" on="0"/>
        <pt x="1199" y="568" on="1"/>
        <pt x="1300" y="496" on="0"/>
        <pt x="1306" y="346" on="1"/>
        <pt x="1302" y="256" on="0"/>
        <pt x="1202" y="112" on="0"/>
        <pt x="1120" y="67" on="1"/>
        <pt x="954" y="-25" on="0"/>
        <pt x="729" y="-25" on="1"/>
        <pt x="488" y="-25" on="0"/>
        <pt x="304" y="87" on="1"/>
        <pt x="216" y="141" on="0"/>
        <pt x="110" y="314" on="0"/>
        <pt x="110" y="420" on="1"/>
        <pt x="110" y="796" on="0"/>
        <pt x="768" y="903" on="1"/>
        <pt x="657" y="941" on="0"/>
        <pt x="559" y="1067" on="0"/>
        <pt x="559" y="1135" on="1"/>
        <pt x="559" y="1257" on="0"/>
        <pt x="828" y="1442" on="0"/>
        <pt x="1032" y="1442" on="1"/>
        <pt x="1219" y="1442" on="0"/>
        <pt x="1344" y="1342" on="1"/>
        <pt x="1437" y="1268" on="0"/>
        <pt x="1441" y="1147" on="1"/>
        <pt x="1441" y="1091" on="0"/>
        <pt x="1375" y="1034" on="0"/>
        <pt x="1283" y="1034" on="0"/>
        <pt x="1218" y="1085" on="0"/>
        <pt x="1218" y="1153" on="0"/>
        <pt x="1242" y="1192" on="0"/>
        <pt x="1271" y="1211" on="0"/>
        <pt x="1290" y="1216" on="1"/>
        <pt x="1318" y="1223" on="0"/>
        <pt x="1335" y="1223" on="1"/>
        <pt x="1303" y="1289" on="0"/>
        <pt x="1140" y="1368" on="0"/>
        <pt x="924" y="1368" on="0"/>
        <pt x="747" y="1245" on="0"/>
        <pt x="747" y="1139" on="1"/>
        <pt x="747" y="1025" on="0"/>
        <pt x="826" y="960" on="1"/>
        <pt x="869" y="924" on="0"/>
        <pt x="929" y="924" on="1"/>
      </contour>
    </TTGlyph>
    <TTGlyph name="Eacute" xMin="110" yMin="-25" xMax="1441" yMax="1833">
      <contour>
        <pt x="1005" y="928" on="1"/>
        <pt x="1058" y="928" on="0"/>
        <pt x="1058" y="856" on="0"/>
        <pt x="1003" y="856" on="1"/>
        <pt x="859" y="856" on="0"/>
        <pt x="604" y="766" on="0"/>
        <pt x="436" y="626" on="0"/>
        <pt x="340" y="458" on="0"/>
        <pt x="340" y="377" on="1"/>
        <pt x="340" y="247" on="0"/>
        <pt x="558" y="78" on="0"/>
        <pt x="774" y="78" on="1"/>
        <pt x="1021" y="78" on="0"/>
        <pt x="1144" y="196" on="1"/>
        <pt x="1208" y="258" on="0"/>
        <pt x="1208" y="455" on="0"/>
        <pt x="1078" y="569" on="0"/>
        <pt x="875" y="569" on="0"/>
        <pt x="676" y="489" on="0"/>
        <pt x="618" y="422" on="1"/>
        <pt x="563" y="471" on="1"/>
        <pt x="621" y="545" on="0"/>
        <pt x="849" y="635" on="0"/>
        <pt x="1037" y="635" on="0"/>
        <pt x="1152" y="601" on="0"/>
        <pt x="1199" y="568" on="1"/>
        <pt x="1300" y="496" on="0"/>
        <pt x="1306" y="346" on="1"/>
        <pt x="1302" y="256" on="0"/>
        <pt x="1202" y="112" on="0"/>
        <pt x="1120" y="67" on="1"/>
        <pt x="954" y="-25" on="0"/>
        <pt x="729" y="-25" on="1"/>
        <pt x="488" y="-25" on="0"/>
        <pt x="304" y="87" on="1"/>
        <pt x="216" y="141" on="0"/>
        <pt x="110" y="314" on="0"/>
        <pt x="110" y="420" on="1"/>
        <pt x="110" y="796" on="0"/>
        <pt x="768" y="903" on="1"/>
        <pt x="657" y="941" on="0"/>
        <pt x="559" y="1067" on="0"/>
        <pt x="559" y="1135" on="1"/>
        <pt x="559" y="1257" on="0"/>
        <pt x="828" y="1442" on="0"/>
        <pt x="1032" y="1442" on="1"/>
        <pt x="1219" y="1442" on="0"/>
        <pt x="1344" y="1342" on="1"/>
        <pt x="1437" y="1268" on="0"/>
        <pt x="1441" y="1147" on="1"/>
        <pt x="1441" y="1091" on="0"/>
        <pt x="1375" y="1034" on="0"/>
        <pt x="1283" y="1034" on="0"/>
        <pt x="1218" y="1085" on="0"/>
        <pt x="1218" y="1153" on="0"/>
        <pt x="1242" y="1192" on="0"/>
        <pt x="1271" y="1211" on="0"/>
        <pt x="1290" y="1216" on="1"/>
        <pt x="1318" y="1223" on="0"/>
        <pt x="1335" y="1223" on="1"/>
        <pt x="1303" y="1289" on="0"/>
        <pt x="1140" y="1368" on="0"/>
        <pt x="924" y="1368" on="0"/>
        <pt x="747" y="1245" on="0"/>
        <pt x="747" y="1139" on="1"/>
        <pt x="747" y="1025" on="0"/>
        <pt x="826" y="960" on="1"/>
        <pt x="869" y="924" on="0"/>
        <pt x="929" y="924" on="1"/>
      </contour>
      <contour>
        <pt x="1101" y="1532" on="1"/>
        <pt x="1047" y="1532" on="1"/>
        <pt x="1087" y="1589" on="0"/>
        <pt x="1205" y="1777" on="1"/>
        <pt x="1240" y="1833" on="1"/>
        <pt x="1410" y="1833" on="1"/>
        <pt x="1396" y="1819" on="0"/>
        <pt x="1331" y="1752" on="1"/>
        <pt x="1166" y="1582" on="0"/>
      </contour>
    </TTGlyph>
    <TTGlyph name="Ecircumflex" xMin="110" yMin="-25" xMax="1441" yMax="1832">
      <component glyphName="E" x="0" y="0" flags="0x1004"/>
      <component glyphName="circumflex" x="712" y="860" flags="0x1004"/>
    </TTGlyph>
    <TTGlyph name="Edieresis" xMin="110" yMin="-25" xMax="1441" yMax="1734">
      <contour>
        <pt x="1005" y="928" on="1"/>
        <pt x="1058" y="928" on="0"/>
        <pt x="1058" y="856" on="0"/>
        <pt x="1003" y="856" on="1"/>
        <pt x="859" y="856" on="0"/>
        <pt x="604" y="766" on="0"/>
        <pt x="436" y="626" on="0"/>
        <pt x="340" y="458" on="0"/>
        <pt x="340" y="377" on="1"/>
        <pt x="340" y="247" on="0"/>
        <pt x="558" y="78" on="0"/>
        <pt x="774" y="78" on="1"/>
        <pt x="1021" y="78" on="0"/>
        <pt x="1144" y="196" on="1"/>
        <pt x="1208" y="258" on="0"/>
        <pt x="1208" y="455" on="0"/>
        <pt x="1078" y="569" on="0"/>
        <pt x="875" y="569" on="0"/>
        <pt x="676" y="489" on="0"/>
        <pt x="618" y="422" on="1"/>
        <pt x="563" y="471" on="1"/>
        <pt x="621" y="545" on="0"/>
        <pt x="849" y="635" on="0"/>
        <pt x="1037" y="635" on="0"/>
        <pt x="1152" y="601" on="0"/>
        <pt x="1199" y="568" on="1"/>
        <pt x="1300" y="496" on="0"/>
        <pt x="1306" y="346" on="1"/>
        <pt x="1302" y="256" on="0"/>
        <pt x="1202" y="112" on="0"/>
        <pt x="1120" y="67" on="1"/>
        <pt x="954" y="-25" on="0"/>
        <pt x="729" y="-25" on="1"/>
        <pt x="488" y="-25" on="0"/>
        <pt x="304" y="87" on="1"/>
        <pt x="216" y="141" on="0"/>
        <pt x="110" y="314" on="0"/>
        <pt x="110" y="420" on="1"/>
        <pt x="110" y="796" on="0"/>
        <pt x="768" y="903" on="1"/>
        <pt x="657" y="941" on="0"/>
        <pt x="559" y="1067" on="0"/>
        <pt x="559" y="1135" on="1"/>
        <pt x="559" y="1257" on="0"/>
        <pt x="828" y="1442" on="0"/>
        <pt x="1032" y="1442" on="1"/>
        <pt x="1219" y="1442" on="0"/>
        <pt x="1344" y="1342" on="1"/>
        <pt x="1437" y="1268" on="0"/>
        <pt x="1441" y="1147" on="1"/>
        <pt x="1441" y="1091" on="0"/>
        <pt x="1375" y="1034" on="0"/>
        <pt x="1283" y="1034" on="0"/>
        <pt x="1218" y="1085" on="0"/>
        <pt x="1218" y="1153" on="0"/>
        <pt x="1242" y="1192" on="0"/>
        <pt x="1271" y="1211" on="0"/>
        <pt x="1290" y="1216" on="1"/>
        <pt x="1318" y="1223" on="0"/>
        <pt x="1335" y="1223" on="1"/>
        <pt x="1303" y="1289" on="0"/>
        <pt x="1140" y="1368" on="0"/>
        <pt x="924" y="1368" on="0"/>
        <pt x="747" y="1245" on="0"/>
        <pt x="747" y="1139" on="1"/>
        <pt x="747" y="1025" on="0"/>
        <pt x="826" y="960" on="1"/>
        <pt x="869" y="924" on="0"/>
        <pt x="929" y="924" on="1"/>
      </contour>
      <contour>
        <pt x="1011" y="1734" on="0"/>
        <pt x="1063" y="1687" on="0"/>
        <pt x="1063" y="1591" on="0"/>
        <pt x="997" y="1532" on="0"/>
        <pt x="916" y="1532" on="0"/>
        <pt x="862" y="1581" on="0"/>
        <pt x="862" y="1676" on="0"/>
        <pt x="929" y="1734" on="0"/>
      </contour>
      <contour>
        <pt x="1373" y="1734" on="0"/>
        <pt x="1425" y="1687" on="0"/>
        <pt x="1425" y="1591" on="0"/>
        <pt x="1359" y="1532" on="0"/>
        <pt x="1278" y="1532" on="0"/>
        <pt x="1224" y="1581" on="0"/>
        <pt x="1224" y="1675" on="0"/>
        <pt x="1292" y="1734" on="0"/>
      </contour>
    </TTGlyph>
    <TTGlyph name="Egrave" xMin="110" yMin="-25" xMax="1441" yMax="1833">
      <component glyphName="E" x="0" y="0" flags="0x1004"/>
      <component glyphName="grave" x="712" y="860" flags="0x1004"/>
    </TTGlyph>
    <TTGlyph name="Eth" xMin="43" yMin="-10" xMax="1511" yMax="1442">
      <contour>
        <pt x="653" y="698" on="1"/>
        <pt x="658" y="809" on="1"/>
        <pt x="706" y="826" on="0"/>
        <pt x="799" y="826" on="0"/>
        <pt x="883" y="820" on="1"/>
        <pt x="924" y="952" on="0"/>
        <pt x="1052" y="1171" on="0"/>
        <pt x="1163" y="1270" on="1"/>
        <pt x="1068" y="1370" on="0"/>
        <pt x="860" y="1370" on="1"/>
        <pt x="717" y="1370" on="0"/>
        <pt x="455" y="1233" on="0"/>
        <pt x="269" y="1011" on="0"/>
        <pt x="158" y="721" on="0"/>
        <pt x="158" y="447" on="0"/>
        <pt x="196" y="336" on="1"/>
        <pt x="94" y="313" on="1"/>
        <pt x="43" y="449" on="0"/>
        <pt x="43" y="758" on="0"/>
        <pt x="161" y="1066" on="0"/>
        <pt x="363" y="1300" on="0"/>
        <pt x="653" y="1442" on="0"/>
        <pt x="943" y="1442" on="0"/>
        <pt x="1143" y="1392" on="0"/>
        <pt x="1229" y="1321" on="1"/>
        <pt x="1322" y="1397" on="0"/>
        <pt x="1491" y="1397" on="1"/>
        <pt x="1511" y="1335" on="1"/>
        <pt x="1350" y="1303" on="0"/>
        <pt x="1296" y="1261" on="1"/>
        <pt x="1401" y="1164" on="0"/>
        <pt x="1509" y="851" on="0"/>
        <pt x="1509" y="560" on="0"/>
        <pt x="1475" y="364" on="0"/>
        <pt x="1398" y="191" on="0"/>
        <pt x="1340" y="130" on="1"/>
        <pt x="1217" y="-3" on="0"/>
        <pt x="827" y="-3" on="0"/>
        <pt x="602" y="94" on="1"/>
        <pt x="549" y="54" on="0"/>
        <pt x="354" y="-10" on="0"/>
        <pt x="269" y="-10" on="1"/>
        <pt x="98" y="-10" on="0"/>
        <pt x="98" y="123" on="1"/>
        <pt x="98" y="201" on="0"/>
        <pt x="272" y="306" on="0"/>
        <pt x="533" y="306" on="0"/>
        <pt x="660" y="244" on="1"/>
        <pt x="709" y="307" on="0"/>
        <pt x="785" y="471" on="0"/>
        <pt x="817" y="577" on="0"/>
        <pt x="849" y="701" on="0"/>
        <pt x="852" y="711" on="1"/>
        <pt x="774" y="715" on="0"/>
        <pt x="690" y="715" on="0"/>
      </contour>
      <contour>
        <pt x="1392" y="848" on="0"/>
        <pt x="1303" y="1116" on="0"/>
        <pt x="1233" y="1188" on="1"/>
        <pt x="1193" y="1128" on="0"/>
        <pt x="1152" y="984" on="0"/>
        <pt x="1115" y="835" on="0"/>
        <pt x="1107" y="803" on="1"/>
        <pt x="1128" y="802" on="0"/>
        <pt x="1215" y="802" on="0"/>
        <pt x="1258" y="809" on="1"/>
        <pt x="1253" y="728" on="1"/>
        <pt x="1217" y="700" on="0"/>
        <pt x="1155" y="696" on="0"/>
        <pt x="1092" y="696" on="0"/>
        <pt x="1075" y="697" on="1"/>
        <pt x="1028" y="558" on="0"/>
        <pt x="870" y="316" on="0"/>
        <pt x="734" y="210" on="1"/>
        <pt x="927" y="110" on="0"/>
        <pt x="1063" y="110" on="1"/>
        <pt x="1201" y="110" on="0"/>
        <pt x="1273" y="203" on="1"/>
        <pt x="1347" y="298" on="0"/>
        <pt x="1370" y="428" on="1"/>
        <pt x="1392" y="556" on="0"/>
      </contour>
      <contour>
        <pt x="535" y="141" on="1"/>
        <pt x="398" y="198" on="0"/>
        <pt x="161" y="198" on="0"/>
        <pt x="161" y="125" on="1"/>
        <pt x="161" y="63" on="0"/>
        <pt x="271" y="63" on="1"/>
        <pt x="333" y="63" on="0"/>
        <pt x="480" y="106" on="0"/>
      </contour>
    </TTGlyph>
    <TTGlyph name="Euro" xMin="26" yMin="-39" xMax="1477" yMax="1442">
      <contour>
        <pt x="72" y="417" on="1"/>
        <pt x="57" y="483" on="1"/>
        <pt x="627" y="483" on="1"/>
        <pt x="612" y="417" on="1"/>
      </contour>
      <contour>
        <pt x="42" y="552" on="1"/>
        <pt x="26" y="618" on="1"/>
        <pt x="657" y="618" on="1"/>
        <pt x="641" y="552" on="1"/>
      </contour>
      <contour>
        <pt x="1198" y="301" on="1"/>
        <pt x="1246" y="256" on="1"/>
        <pt x="1019" y="-39" on="0"/>
        <pt x="699" y="-39" on="1"/>
        <pt x="490" y="-39" on="0"/>
        <pt x="346" y="96" on="1"/>
        <pt x="276" y="161" on="0"/>
        <pt x="195" y="363" on="0"/>
        <pt x="195" y="623" on="0"/>
        <pt x="293" y="904" on="0"/>
        <pt x="467" y="1144" on="0"/>
        <pt x="691" y="1333" on="0"/>
        <pt x="961" y="1442" on="0"/>
        <pt x="1259" y="1442" on="0"/>
        <pt x="1477" y="1252" on="0"/>
        <pt x="1477" y="1081" on="1"/>
        <pt x="1477" y="980" on="0"/>
        <pt x="1384" y="757" on="0"/>
        <pt x="1237" y="576" on="0"/>
        <pt x="1037" y="458" on="0"/>
        <pt x="839" y="458" on="0"/>
        <pt x="723" y="586" on="0"/>
        <pt x="723" y="671" on="1"/>
        <pt x="723" y="817" on="0"/>
        <pt x="966" y="1090" on="0"/>
        <pt x="1157" y="1155" on="1"/>
        <pt x="1180" y="1102" on="1"/>
        <pt x="1084" y="1070" on="0"/>
        <pt x="914" y="920" on="0"/>
        <pt x="819" y="749" on="0"/>
        <pt x="819" y="686" on="1"/>
        <pt x="819" y="555" on="0"/>
        <pt x="965" y="555" on="1"/>
        <pt x="1067" y="555" on="0"/>
        <pt x="1272" y="735" on="0"/>
        <pt x="1395" y="978" on="0"/>
        <pt x="1395" y="1203" on="0"/>
        <pt x="1243" y="1346" on="0"/>
        <pt x="991" y="1346" on="0"/>
        <pt x="725" y="1194" on="0"/>
        <pt x="520" y="956" on="0"/>
        <pt x="389" y="647" on="0"/>
        <pt x="389" y="498" on="1"/>
        <pt x="389" y="257" on="0"/>
        <pt x="550" y="144" on="1"/>
        <pt x="644" y="78" on="0"/>
        <pt x="883" y="78" on="0"/>
        <pt x="1115" y="195" on="0"/>
      </contour>
    </TTGlyph>
    <TTGlyph name="F" xMin="-33" yMin="-43" xMax="1740" yMax="1442">
      <contour>
        <pt x="1695" y="1423" on="1"/>
        <pt x="1740" y="1382" on="1"/>
        <pt x="1659" y="1231" on="0"/>
        <pt x="1462" y="1231" on="1"/>
        <pt x="1438" y="1231" on="0"/>
        <pt x="1392" y="1235" on="1"/>
        <pt x="1275" y="1100" on="0"/>
        <pt x="1246" y="828" on="1"/>
        <pt x="1240" y="771" on="0"/>
        <pt x="1239" y="719" on="1"/>
        <pt x="1499" y="729" on="1"/>
        <pt x="1429" y="643" on="1"/>
        <pt x="1235" y="643" on="1"/>
        <pt x="1206" y="240" on="0"/>
        <pt x="854" y="60" on="1"/>
        <pt x="652" y="-43" on="0"/>
        <pt x="393" y="-43" on="1"/>
        <pt x="234" y="-43" on="0"/>
        <pt x="108" y="19" on="1"/>
        <pt x="44" y="50" on="0"/>
        <pt x="-33" y="158" on="0"/>
        <pt x="-33" y="308" on="0"/>
        <pt x="29" y="426" on="0"/>
        <pt x="123" y="491" on="0"/>
        <pt x="194" y="510" on="1"/>
        <pt x="306" y="541" on="0"/>
        <pt x="479" y="541" on="1"/>
        <pt x="366" y="689" on="0"/>
        <pt x="366" y="848" on="1"/>
        <pt x="366" y="964" on="0"/>
        <pt x="480" y="1184" on="0"/>
        <pt x="667" y="1345" on="0"/>
        <pt x="920" y="1442" on="0"/>
        <pt x="1139" y="1442" on="0"/>
        <pt x="1472" y="1356" on="0"/>
        <pt x="1628" y="1356" on="0"/>
      </contour>
      <contour>
        <pt x="108" y="337" on="1"/>
        <pt x="86" y="290" on="0"/>
        <pt x="86" y="174" on="0"/>
        <pt x="150" y="91" on="0"/>
        <pt x="200" y="68" on="1"/>
        <pt x="299" y="23" on="0"/>
        <pt x="537" y="23" on="0"/>
        <pt x="751" y="90" on="0"/>
        <pt x="836" y="162" on="1"/>
        <pt x="1012" y="310" on="0"/>
        <pt x="1056" y="645" on="1"/>
        <pt x="841" y="645" on="1"/>
        <pt x="881" y="709" on="1"/>
        <pt x="1063" y="719" on="1"/>
        <pt x="1077" y="846" on="0"/>
        <pt x="1149" y="1014" on="0"/>
        <pt x="1198" y="1106" on="0"/>
        <pt x="1222" y="1140" on="1"/>
        <pt x="1262" y="1198" on="0"/>
        <pt x="1306" y="1249" on="1"/>
        <pt x="1153" y="1313" on="0"/>
        <pt x="876" y="1313" on="0"/>
        <pt x="684" y="1255" on="0"/>
        <pt x="530" y="1144" on="0"/>
        <pt x="440" y="962" on="0"/>
        <pt x="440" y="846" on="1"/>
        <pt x="440" y="732" on="0"/>
        <pt x="475" y="668" on="1"/>
        <pt x="489" y="643" on="0"/>
        <pt x="509" y="607" on="0"/>
        <pt x="556" y="562" on="0"/>
        <pt x="583" y="536" on="0"/>
        <pt x="614" y="513" on="1"/>
        <pt x="655" y="484" on="0"/>
        <pt x="721" y="440" on="0"/>
        <pt x="725" y="437" on="0"/>
        <pt x="727" y="436" on="1"/>
        <pt x="698" y="399" on="1"/>
        <pt x="535" y="479" on="0"/>
        <pt x="417" y="479" on="1"/>
        <pt x="176" y="479" on="0"/>
      </contour>
    </TTGlyph>
    <TTGlyph name="G" xMin="-90" yMin="-346" xMax="1370" yMax="1442">
      <contour>
        <pt x="1253" y="1225" on="1"/>
        <pt x="1119" y="1356" on="0"/>
        <pt x="956" y="1356" on="1"/>
        <pt x="644" y="1356" on="0"/>
        <pt x="446" y="1056" on="1"/>
        <pt x="331" y="882" on="0"/>
        <pt x="331" y="686" on="1"/>
        <pt x="331" y="530" on="0"/>
        <pt x="409" y="430" on="1"/>
        <pt x="493" y="321" on="0"/>
        <pt x="663" y="321" on="1"/>
        <pt x="797" y="321" on="0"/>
        <pt x="1049" y="490" on="0"/>
        <pt x="1108" y="629" on="1"/>
        <pt x="1253" y="631" on="1"/>
        <pt x="1152" y="170" on="0"/>
        <pt x="643" y="-346" on="0"/>
        <pt x="291" y="-346" on="1"/>
        <pt x="108" y="-346" on="0"/>
        <pt x="-90" y="-196" on="0"/>
        <pt x="-90" y="13" on="0"/>
        <pt x="108" y="168" on="0"/>
        <pt x="280" y="168" on="1"/>
        <pt x="451" y="168" on="0"/>
        <pt x="551" y="90" on="1"/>
        <pt x="508" y="2" on="1"/>
        <pt x="416" y="41" on="0"/>
        <pt x="166" y="41" on="0"/>
        <pt x="0" y="-42" on="0"/>
        <pt x="0" y="-164" on="0"/>
        <pt x="161" y="-250" on="0"/>
        <pt x="307" y="-250" on="1"/>
        <pt x="540" y="-250" on="0"/>
        <pt x="923" y="115" on="0"/>
        <pt x="1058" y="468" on="1"/>
        <pt x="975" y="351" on="0"/>
        <pt x="737" y="227" on="0"/>
        <pt x="516" y="227" on="0"/>
        <pt x="347" y="284" on="0"/>
        <pt x="214" y="391" on="0"/>
        <pt x="135" y="564" on="0"/>
        <pt x="135" y="780" on="0"/>
        <pt x="206" y="999" on="0"/>
        <pt x="348" y="1197" on="0"/>
        <pt x="541" y="1351" on="0"/>
        <pt x="805" y="1442" on="0"/>
        <pt x="952" y="1442" on="1"/>
        <pt x="1096" y="1442" on="0"/>
        <pt x="1225" y="1374" on="1"/>
        <pt x="1289" y="1341" on="0"/>
        <pt x="1370" y="1223" on="0"/>
        <pt x="1370" y="1071" on="0"/>
        <pt x="1280" y="988" on="0"/>
        <pt x="1167" y="988" on="0"/>
        <pt x="1093" y="1048" on="0"/>
        <pt x="1093" y="1100" on="1"/>
        <pt x="1093" y="1225" on="0"/>
      </contour>
    </TTGlyph>
    <TTGlyph name="H" xMin="45" yMin="-34" xMax="1958" yMax="1440">
      <contour>
        <pt x="1220" y="51" on="0"/>
        <pt x="1196" y="145" on="0"/>
        <pt x="1196" y="284" on="0"/>
        <pt x="1218" y="396" on="1"/>
        <pt x="1247" y="543" on="0"/>
        <pt x="1323" y="776" on="1"/>
        <pt x="1285" y="770" on="0"/>
        <pt x="1148" y="745" on="0"/>
        <pt x="1120" y="741" on="1"/>
        <pt x="1035" y="349" on="0"/>
        <pt x="814" y="133" on="1"/>
        <pt x="738" y="58" on="0"/>
        <pt x="529" y="-34" on="0"/>
        <pt x="281" y="-34" on="0"/>
        <pt x="109" y="110" on="0"/>
        <pt x="109" y="352" on="0"/>
        <pt x="207" y="479" on="1"/>
        <pt x="45" y="630" on="0"/>
        <pt x="45" y="836" on="1"/>
        <pt x="45" y="959" on="0"/>
        <pt x="136" y="1163" on="0"/>
        <pt x="287" y="1301" on="0"/>
        <pt x="387" y="1349" on="1"/>
        <pt x="577" y="1440" on="0"/>
        <pt x="809" y="1440" on="1"/>
        <pt x="1352" y="1440" on="1"/>
        <pt x="1370" y="1440" on="0"/>
        <pt x="1378" y="1423" on="1"/>
        <pt x="1377" y="1416" on="0"/>
        <pt x="1366" y="1404" on="0"/>
        <pt x="1364" y="1399" on="1"/>
        <pt x="1238" y="1248" on="0"/>
        <pt x="1168" y="972" on="1"/>
        <pt x="1152" y="911" on="0"/>
        <pt x="1130" y="811" on="1"/>
        <pt x="1350" y="848" on="1"/>
        <pt x="1512" y="1195" on="0"/>
        <pt x="1704" y="1306" on="1"/>
        <pt x="1767" y="1343" on="0"/>
        <pt x="1881" y="1343" on="0"/>
        <pt x="1958" y="1286" on="0"/>
        <pt x="1958" y="1161" on="0"/>
        <pt x="1869" y="1021" on="0"/>
        <pt x="1800" y="968" on="1"/>
        <pt x="1662" y="863" on="0"/>
        <pt x="1518" y="815" on="1"/>
        <pt x="1471" y="707" on="0"/>
        <pt x="1366" y="278" on="0"/>
        <pt x="1366" y="94" on="0"/>
        <pt x="1405" y="94" on="1"/>
        <pt x="1462" y="94" on="0"/>
        <pt x="1556" y="225" on="1"/>
        <pt x="1612" y="172" on="1"/>
        <pt x="1559" y="93" on="0"/>
        <pt x="1420" y="-25" on="0"/>
        <pt x="1291" y="-25" on="0"/>
      </contour>
      <contour>
        <pt x="162" y="791" on="1"/>
        <pt x="162" y="640" on="0"/>
        <pt x="256" y="526" on="1"/>
        <pt x="381" y="641" on="0"/>
        <pt x="747" y="771" on="0"/>
        <pt x="936" y="786" on="1"/>
        <pt x="1030" y="1216" on="0"/>
        <pt x="1155" y="1366" on="1"/>
        <pt x="1079" y="1378" on="0"/>
        <pt x="869" y="1378" on="0"/>
        <pt x="689" y="1351" on="0"/>
        <pt x="507" y="1295" on="0"/>
        <pt x="352" y="1199" on="0"/>
        <pt x="292" y="1136" on="1"/>
        <pt x="162" y="1003" on="0"/>
      </contour>
      <contour>
        <pt x="262" y="440" on="1"/>
        <pt x="188" y="337" on="0"/>
        <pt x="188" y="154" on="0"/>
        <pt x="289" y="32" on="0"/>
        <pt x="456" y="32" on="0"/>
        <pt x="596" y="93" on="0"/>
        <pt x="704" y="204" on="0"/>
        <pt x="792" y="335" on="0"/>
        <pt x="826" y="416" on="1"/>
        <pt x="888" y="563" on="0"/>
        <pt x="926" y="715" on="1"/>
        <pt x="505" y="680" on="0"/>
        <pt x="309" y="487" on="1"/>
        <pt x="393" y="442" on="0"/>
        <pt x="534" y="442" on="0"/>
        <pt x="559" y="444" on="1"/>
        <pt x="582" y="391" on="1"/>
        <pt x="530" y="385" on="0"/>
        <pt x="475" y="385" on="1"/>
        <pt x="358" y="385" on="0"/>
      </contour>
      <contour>
        <pt x="1845" y="1280" on="1"/>
        <pt x="1803" y="1280" on="0"/>
        <pt x="1706" y="1192" on="0"/>
        <pt x="1664" y="1125" on="1"/>
        <pt x="1593" y="1009" on="0"/>
        <pt x="1548" y="901" on="1"/>
        <pt x="1649" y="939" on="0"/>
        <pt x="1729" y="1003" on="1"/>
        <pt x="1880" y="1124" on="0"/>
        <pt x="1880" y="1223" on="1"/>
        <pt x="1880" y="1280" on="0"/>
      </contour>
    </TTGlyph>
    <TTGlyph name="I" xMin="-35" yMin="-35" xMax="1518" yMax="1442">
      <contour>
        <pt x="1518" y="1376" on="1"/>
        <pt x="1227" y="1075" on="0"/>
        <pt x="1221" y="719" on="1"/>
        <pt x="1411" y="719" on="1"/>
        <pt x="1411" y="643" on="1"/>
        <pt x="1217" y="643" on="1"/>
        <pt x="1188" y="247" on="0"/>
        <pt x="851" y="68" on="1"/>
        <pt x="656" y="-35" on="0"/>
        <pt x="192" y="-35" on="0"/>
        <pt x="-35" y="131" on="0"/>
        <pt x="-35" y="372" on="0"/>
        <pt x="169" y="543" on="0"/>
        <pt x="352" y="543" on="1"/>
        <pt x="395" y="543" on="0"/>
        <pt x="420" y="541" on="1"/>
        <pt x="352" y="689" on="0"/>
        <pt x="352" y="1009" on="0"/>
        <pt x="529" y="1286" on="0"/>
        <pt x="842" y="1442" on="0"/>
        <pt x="1036" y="1442" on="1"/>
        <pt x="1118" y="1442" on="0"/>
        <pt x="1437" y="1376" on="0"/>
      </contour>
      <contour>
        <pt x="1045" y="719" on="1"/>
        <pt x="1075" y="999" on="0"/>
        <pt x="1288" y="1249" on="1"/>
        <pt x="1135" y="1313" on="0"/>
        <pt x="965" y="1313" on="1"/>
        <pt x="719" y="1313" on="0"/>
        <pt x="424" y="1049" on="0"/>
        <pt x="424" y="838" on="1"/>
        <pt x="424" y="691" on="0"/>
        <pt x="504" y="532" on="1"/>
        <pt x="741" y="465" on="1"/>
        <pt x="721" y="403" on="1"/>
        <pt x="616" y="438" on="0"/>
        <pt x="541" y="453" on="1"/>
        <pt x="563" y="410" on="0"/>
        <pt x="627" y="315" on="1"/>
        <pt x="559" y="293" on="1"/>
        <pt x="455" y="465" on="1"/>
        <pt x="411" y="471" on="0"/>
        <pt x="373" y="471" on="1"/>
        <pt x="228" y="471" on="0"/>
        <pt x="78" y="352" on="0"/>
        <pt x="78" y="172" on="0"/>
        <pt x="250" y="33" on="0"/>
        <pt x="525" y="33" on="0"/>
        <pt x="736" y="96" on="0"/>
        <pt x="821" y="166" on="1"/>
        <pt x="994" y="309" on="0"/>
        <pt x="1038" y="645" on="1"/>
        <pt x="823" y="645" on="1"/>
        <pt x="823" y="719" on="1"/>
      </contour>
    </TTGlyph>
    <TTGlyph name="IJ" xMin="-35" yMin="-289" xMax="2843" yMax="1442">
      <component glyphName="I" x="0" y="0" flags="0x1004"/>
      <component glyphName="J" x="1323" y="0" flags="0x1004"/>
    </TTGlyph>
    <TTGlyph name="Iacute" xMin="-35" yMin="-35" xMax="1518" yMax="1807">
      <contour>
        <pt x="1518" y="1376" on="1"/>
        <pt x="1227" y="1075" on="0"/>
        <pt x="1221" y="719" on="1"/>
        <pt x="1411" y="719" on="1"/>
        <pt x="1411" y="643" on="1"/>
        <pt x="1217" y="643" on="1"/>
        <pt x="1188" y="247" on="0"/>
        <pt x="851" y="68" on="1"/>
        <pt x="656" y="-35" on="0"/>
        <pt x="192" y="-35" on="0"/>
        <pt x="-35" y="131" on="0"/>
        <pt x="-35" y="372" on="0"/>
        <pt x="169" y="543" on="0"/>
        <pt x="352" y="543" on="1"/>
        <pt x="395" y="543" on="0"/>
        <pt x="420" y="541" on="1"/>
        <pt x="352" y="689" on="0"/>
        <pt x="352" y="1009" on="0"/>
        <pt x="529" y="1286" on="0"/>
        <pt x="842" y="1442" on="0"/>
        <pt x="1036" y="1442" on="1"/>
        <pt x="1118" y="1442" on="0"/>
        <pt x="1437" y="1376" on="0"/>
      </contour>
      <contour>
        <pt x="1045" y="719" on="1"/>
        <pt x="1075" y="999" on="0"/>
        <pt x="1288" y="1249" on="1"/>
        <pt x="1135" y="1313" on="0"/>
        <pt x="965" y="1313" on="1"/>
        <pt x="719" y="1313" on="0"/>
        <pt x="424" y="1049" on="0"/>
        <pt x="424" y="838" on="1"/>
        <pt x="424" y="691" on="0"/>
        <pt x="504" y="532" on="1"/>
        <pt x="741" y="465" on="1"/>
        <pt x="721" y="403" on="1"/>
        <pt x="616" y="438" on="0"/>
        <pt x="541" y="453" on="1"/>
        <pt x="563" y="410" on="0"/>
        <pt x="627" y="315" on="1"/>
        <pt x="559" y="293" on="1"/>
        <pt x="455" y="465" on="1"/>
        <pt x="411" y="471" on="0"/>
        <pt x="373" y="471" on="1"/>
        <pt x="228" y="471" on="0"/>
        <pt x="78" y="352" on="0"/>
        <pt x="78" y="172" on="0"/>
        <pt x="250" y="33" on="0"/>
        <pt x="525" y="33" on="0"/>
        <pt x="736" y="96" on="0"/>
        <pt x="821" y="166" on="1"/>
        <pt x="994" y="309" on="0"/>
        <pt x="1038" y="645" on="1"/>
        <pt x="823" y="645" on="1"/>
        <pt x="823" y="719" on="1"/>
      </contour>
      <contour>
        <pt x="1197" y="1506" on="1"/>
        <pt x="1143" y="1506" on="1"/>
        <pt x="1184" y="1563" on="0"/>
        <pt x="1301" y="1751" on="1"/>
        <pt x="1336" y="1807" on="1"/>
        <pt x="1506" y="1807" on="1"/>
        <pt x="1492" y="1793" on="0"/>
        <pt x="1427" y="1726" on="1"/>
        <pt x="1262" y="1556" on="0"/>
      </contour>
    </TTGlyph>
    <TTGlyph name="Icircumflex" xMin="-35" yMin="-35" xMax="1518" yMax="1806">
      <component glyphName="I" x="0" y="0" flags="0x1004"/>
      <component glyphName="circumflex" x="808" y="834" flags="0x1004"/>
    </TTGlyph>
    <TTGlyph name="Idieresis" xMin="-35" yMin="-35" xMax="1521" yMax="1708">
      <contour>
        <pt x="1518" y="1376" on="1"/>
        <pt x="1227" y="1075" on="0"/>
        <pt x="1221" y="719" on="1"/>
        <pt x="1411" y="719" on="1"/>
        <pt x="1411" y="643" on="1"/>
        <pt x="1217" y="643" on="1"/>
        <pt x="1188" y="247" on="0"/>
        <pt x="851" y="68" on="1"/>
        <pt x="656" y="-35" on="0"/>
        <pt x="192" y="-35" on="0"/>
        <pt x="-35" y="131" on="0"/>
        <pt x="-35" y="372" on="0"/>
        <pt x="169" y="543" on="0"/>
        <pt x="352" y="543" on="1"/>
        <pt x="395" y="543" on="0"/>
        <pt x="420" y="541" on="1"/>
        <pt x="352" y="689" on="0"/>
        <pt x="352" y="1009" on="0"/>
        <pt x="529" y="1286" on="0"/>
        <pt x="842" y="1442" on="0"/>
        <pt x="1036" y="1442" on="1"/>
        <pt x="1118" y="1442" on="0"/>
        <pt x="1437" y="1376" on="0"/>
      </contour>
      <contour>
        <pt x="1045" y="719" on="1"/>
        <pt x="1075" y="999" on="0"/>
        <pt x="1288" y="1249" on="1"/>
        <pt x="1135" y="1313" on="0"/>
        <pt x="965" y="1313" on="1"/>
        <pt x="719" y="1313" on="0"/>
        <pt x="424" y="1049" on="0"/>
        <pt x="424" y="838" on="1"/>
        <pt x="424" y="691" on="0"/>
        <pt x="504" y="532" on="1"/>
        <pt x="741" y="465" on="1"/>
        <pt x="721" y="403" on="1"/>
        <pt x="616" y="438" on="0"/>
        <pt x="541" y="453" on="1"/>
        <pt x="563" y="410" on="0"/>
        <pt x="627" y="315" on="1"/>
        <pt x="559" y="293" on="1"/>
        <pt x="455" y="465" on="1"/>
        <pt x="411" y="471" on="0"/>
        <pt x="373" y="471" on="1"/>
        <pt x="228" y="471" on="0"/>
        <pt x="78" y="352" on="0"/>
        <pt x="78" y="172" on="0"/>
        <pt x="250" y="33" on="0"/>
        <pt x="525" y="33" on="0"/>
        <pt x="736" y="96" on="0"/>
        <pt x="821" y="166" on="1"/>
        <pt x="994" y="309" on="0"/>
        <pt x="1038" y="645" on="1"/>
        <pt x="823" y="645" on="1"/>
        <pt x="823" y="719" on="1"/>
      </contour>
      <contour>
        <pt x="1107" y="1708" on="0"/>
        <pt x="1159" y="1661" on="0"/>
        <pt x="1159" y="1565" on="0"/>
        <pt x="1093" y="1506" on="0"/>
        <pt x="1012" y="1506" on="0"/>
        <pt x="958" y="1555" on="0"/>
        <pt x="958" y="1650" on="0"/>
        <pt x="1025" y="1708" on="0"/>
      </contour>
      <contour>
        <pt x="1469" y="1708" on="0"/>
        <pt x="1521" y="1661" on="0"/>
        <pt x="1521" y="1565" on="0"/>
        <pt x="1455" y="1506" on="0"/>
        <pt x="1374" y="1506" on="0"/>
        <pt x="1320" y="1555" on="0"/>
        <pt x="1320" y="1649" on="0"/>
        <pt x="1388" y="1708" on="0"/>
      </contour>
    </TTGlyph>
    <TTGlyph name="Igrave" xMin="-35" yMin="-35" xMax="1518" yMax="1807">
      <component glyphName="I" x="0" y="0" flags="0x1004"/>
      <component glyphName="grave" x="808" y="834" flags="0x1004"/>
    </TTGlyph>
    <TTGlyph name="Iogonek" xMin="-35" yMin="-378" xMax="1518" yMax="1442">
      <contour>
        <pt x="1518" y="1376" on="1"/>
        <pt x="1227" y="1075" on="0"/>
        <pt x="1221" y="719" on="1"/>
        <pt x="1411" y="719" on="1"/>
        <pt x="1411" y="643" on="1"/>
        <pt x="1217" y="643" on="1"/>
        <pt x="1188" y="247" on="0"/>
        <pt x="851" y="68" on="1"/>
        <pt x="656" y="-35" on="0"/>
        <pt x="192" y="-35" on="0"/>
        <pt x="-35" y="131" on="0"/>
        <pt x="-35" y="372" on="0"/>
        <pt x="169" y="543" on="0"/>
        <pt x="352" y="543" on="1"/>
        <pt x="395" y="543" on="0"/>
        <pt x="420" y="541" on="1"/>
        <pt x="352" y="689" on="0"/>
        <pt x="352" y="1009" on="0"/>
        <pt x="529" y="1286" on="0"/>
        <pt x="842" y="1442" on="0"/>
        <pt x="1036" y="1442" on="1"/>
        <pt x="1118" y="1442" on="0"/>
        <pt x="1437" y="1376" on="0"/>
      </contour>
      <contour>
        <pt x="1045" y="719" on="1"/>
        <pt x="1075" y="999" on="0"/>
        <pt x="1288" y="1249" on="1"/>
        <pt x="1135" y="1313" on="0"/>
        <pt x="965" y="1313" on="1"/>
        <pt x="719" y="1313" on="0"/>
        <pt x="424" y="1049" on="0"/>
        <pt x="424" y="838" on="1"/>
        <pt x="424" y="691" on="0"/>
        <pt x="504" y="532" on="1"/>
        <pt x="741" y="465" on="1"/>
        <pt x="721" y="403" on="1"/>
        <pt x="616" y="438" on="0"/>
        <pt x="541" y="453" on="1"/>
        <pt x="563" y="410" on="0"/>
        <pt x="627" y="315" on="1"/>
        <pt x="559" y="293" on="1"/>
        <pt x="455" y="465" on="1"/>
        <pt x="411" y="471" on="0"/>
        <pt x="373" y="471" on="1"/>
        <pt x="228" y="471" on="0"/>
        <pt x="78" y="352" on="0"/>
        <pt x="78" y="172" on="0"/>
        <pt x="250" y="33" on="0"/>
        <pt x="525" y="33" on="0"/>
        <pt x="736" y="96" on="0"/>
        <pt x="821" y="166" on="1"/>
        <pt x="994" y="309" on="0"/>
        <pt x="1038" y="645" on="1"/>
        <pt x="823" y="645" on="1"/>
        <pt x="823" y="719" on="1"/>
      </contour>
      <contour>
        <pt x="412" y="-325" on="1"/>
        <pt x="421" y="-349" on="1"/>
        <pt x="375" y="-378" on="0"/>
        <pt x="308" y="-378" on="1"/>
        <pt x="167" y="-378" on="0"/>
        <pt x="167" y="-287" on="1"/>
        <pt x="167" y="-183" on="0"/>
        <pt x="380" y="0" on="1"/>
        <pt x="446" y="0" on="1"/>
        <pt x="378" y="-68" on="0"/>
        <pt x="276" y="-249" on="0"/>
        <pt x="276" y="-295" on="1"/>
        <pt x="276" y="-336" on="0"/>
        <pt x="337" y="-336" on="1"/>
        <pt x="366" y="-336" on="0"/>
      </contour>
    </TTGlyph>
    <TTGlyph name="Itilde" xMin="-35" yMin="-35" xMax="1525" yMax="1700">
      <component glyphName="I" x="0" y="0" flags="0x1004"/>
      <component glyphName="tilde" x="314" y="834" flags="0x1004"/>
    </TTGlyph>
    <TTGlyph name="J" xMin="-63" yMin="-289" xMax="1520" yMax="1442">
      <contour>
        <pt x="1520" y="1376" on="1"/>
        <pt x="1229" y="1075" on="0"/>
        <pt x="1223" y="719" on="1"/>
        <pt x="1413" y="719" on="1"/>
        <pt x="1413" y="643" on="1"/>
        <pt x="1219" y="643" on="1"/>
        <pt x="1209" y="452" on="0"/>
        <pt x="1102" y="138" on="0"/>
        <pt x="938" y="-76" on="0"/>
        <pt x="830" y="-149" on="1"/>
        <pt x="621" y="-289" on="0"/>
        <pt x="356" y="-289" on="1"/>
        <pt x="48" y="-289" on="0"/>
        <pt x="-38" y="-76" on="1"/>
        <pt x="-63" y="-16" on="0"/>
        <pt x="-63" y="134" on="0"/>
        <pt x="4" y="293" on="0"/>
        <pt x="121" y="423" on="0"/>
        <pt x="300" y="504" on="0"/>
        <pt x="404" y="504" on="1"/>
        <pt x="421" y="504" on="0"/>
        <pt x="463" y="500" on="1"/>
        <pt x="354" y="663" on="0"/>
        <pt x="354" y="1009" on="0"/>
        <pt x="531" y="1286" on="0"/>
        <pt x="844" y="1442" on="0"/>
        <pt x="1038" y="1442" on="1"/>
        <pt x="1120" y="1442" on="0"/>
        <pt x="1439" y="1376" on="0"/>
      </contour>
      <contour>
        <pt x="1047" y="719" on="1"/>
        <pt x="1077" y="999" on="0"/>
        <pt x="1290" y="1249" on="1"/>
        <pt x="1137" y="1313" on="0"/>
        <pt x="967" y="1313" on="1"/>
        <pt x="721" y="1313" on="0"/>
        <pt x="426" y="1049" on="0"/>
        <pt x="426" y="838" on="1"/>
        <pt x="426" y="671" on="0"/>
        <pt x="547" y="492" on="1"/>
        <pt x="784" y="424" on="1"/>
        <pt x="764" y="362" on="1"/>
        <pt x="667" y="395" on="0"/>
        <pt x="584" y="412" on="1"/>
        <pt x="606" y="369" on="0"/>
        <pt x="670" y="274" on="1"/>
        <pt x="602" y="252" on="1"/>
        <pt x="498" y="424" on="1"/>
        <pt x="459" y="432" on="0"/>
        <pt x="330" y="432" on="0"/>
        <pt x="188" y="366" on="0"/>
        <pt x="142" y="312" on="1"/>
        <pt x="45" y="198" on="0"/>
        <pt x="45" y="-61" on="0"/>
        <pt x="207" y="-223" on="0"/>
        <pt x="505" y="-223" on="0"/>
        <pt x="725" y="-128" on="0"/>
        <pt x="814" y="-26" on="1"/>
        <pt x="994" y="180" on="0"/>
        <pt x="1040" y="645" on="1"/>
        <pt x="825" y="645" on="1"/>
        <pt x="825" y="719" on="1"/>
      </contour>
    </TTGlyph>
    <TTGlyph name="Jcircumflex" xMin="-63" yMin="-289" xMax="1520" yMax="1808">
      <component glyphName="J" x="0" y="0" flags="0x1004"/>
      <component glyphName="circumflex" x="677" y="836" flags="0x1004"/>
    </TTGlyph>
    <TTGlyph name="K" xMin="53" yMin="-23" xMax="1983" yMax="1442">
      <contour>
        <pt x="1684" y="213" on="1"/>
        <pt x="1733" y="170" on="1"/>
        <pt x="1698" y="26" on="0"/>
        <pt x="1575" y="-8" on="1"/>
        <pt x="1546" y="-16" on="0"/>
        <pt x="1518" y="-16" on="1"/>
        <pt x="1441" y="-16" on="0"/>
        <pt x="1342" y="61" on="0"/>
        <pt x="1298" y="187" on="0"/>
        <pt x="1275" y="318" on="0"/>
        <pt x="1247" y="457" on="0"/>
        <pt x="1225" y="492" on="1"/>
        <pt x="1179" y="475" on="0"/>
        <pt x="1104" y="475" on="0"/>
        <pt x="1063" y="498" on="1"/>
        <pt x="991" y="359" on="0"/>
        <pt x="801" y="150" on="0"/>
        <pt x="702" y="92" on="1"/>
        <pt x="507" y="-23" on="0"/>
        <pt x="326" y="-23" on="1"/>
        <pt x="209" y="-23" on="0"/>
        <pt x="53" y="62" on="0"/>
        <pt x="53" y="173" on="0"/>
        <pt x="116" y="229" on="0"/>
        <pt x="194" y="229" on="0"/>
        <pt x="244" y="186" on="0"/>
        <pt x="244" y="110" on="0"/>
        <pt x="213" y="80" on="1"/>
        <pt x="274" y="49" on="0"/>
        <pt x="348" y="49" on="1"/>
        <pt x="468" y="49" on="0"/>
        <pt x="709" y="234" on="0"/>
        <pt x="882" y="510" on="0"/>
        <pt x="991" y="835" on="0"/>
        <pt x="991" y="1054" on="0"/>
        <pt x="960" y="1193" on="0"/>
        <pt x="928" y="1250" on="1"/>
        <pt x="861" y="1370" on="0"/>
        <pt x="719" y="1370" on="1"/>
        <pt x="615" y="1370" on="0"/>
        <pt x="415" y="1277" on="0"/>
        <pt x="265" y="1124" on="0"/>
        <pt x="174" y="911" on="0"/>
        <pt x="174" y="797" on="1"/>
        <pt x="174" y="694" on="0"/>
        <pt x="240" y="557" on="0"/>
        <pt x="277" y="520" on="1"/>
        <pt x="363" y="434" on="0"/>
        <pt x="516" y="434" on="1"/>
        <pt x="532" y="434" on="0"/>
        <pt x="574" y="438" on="1"/>
        <pt x="594" y="391" on="1"/>
        <pt x="567" y="387" on="0"/>
        <pt x="417" y="387" on="0"/>
        <pt x="258" y="448" on="0"/>
        <pt x="159" y="543" on="0"/>
        <pt x="126" y="606" on="1"/>
        <pt x="66" y="719" on="0"/>
        <pt x="66" y="965" on="0"/>
        <pt x="160" y="1184" on="0"/>
        <pt x="327" y="1346" on="0"/>
        <pt x="574" y="1442" on="0"/>
        <pt x="840" y="1442" on="0"/>
        <pt x="1021" y="1365" on="0"/>
        <pt x="1074" y="1296" on="1"/>
        <pt x="1176" y="1163" on="0"/>
        <pt x="1176" y="954" on="1"/>
        <pt x="1176" y="807" on="0"/>
        <pt x="1124" y="645" on="1"/>
        <pt x="1177" y="645" on="0"/>
        <pt x="1234" y="629" on="0"/>
        <pt x="1268" y="604" on="1"/>
        <pt x="1345" y="662" on="0"/>
        <pt x="1395" y="834" on="1"/>
        <pt x="1416" y="905" on="0"/>
        <pt x="1462" y="1065" on="0"/>
        <pt x="1524" y="1209" on="0"/>
        <pt x="1568" y="1268" on="1"/>
        <pt x="1663" y="1397" on="0"/>
        <pt x="1847" y="1397" on="1"/>
        <pt x="1895" y="1397" on="0"/>
        <pt x="1983" y="1355" on="0"/>
        <pt x="1983" y="1273" on="0"/>
        <pt x="1929" y="1206" on="0"/>
        <pt x="1895" y="1206" on="1"/>
        <pt x="1862" y="1227" on="0"/>
        <pt x="1745" y="1227" on="0"/>
        <pt x="1667" y="1173" on="0"/>
        <pt x="1627" y="1079" on="0"/>
        <pt x="1601" y="962" on="0"/>
        <pt x="1566" y="827" on="0"/>
        <pt x="1514" y="701" on="0"/>
        <pt x="1405" y="579" on="0"/>
        <pt x="1327" y="537" on="1"/>
        <pt x="1377" y="487" on="0"/>
        <pt x="1481" y="309" on="0"/>
        <pt x="1534" y="115" on="0"/>
        <pt x="1579" y="115" on="1"/>
        <pt x="1601" y="115" on="0"/>
      </contour>
      <contour>
        <pt x="1112" y="594" on="1"/>
        <pt x="1094" y="555" on="1"/>
        <pt x="1131" y="535" on="0"/>
        <pt x="1173" y="535" on="0"/>
        <pt x="1200" y="545" on="1"/>
        <pt x="1176" y="594" on="0"/>
      </contour>
    </TTGlyph>
    <TTGlyph name="L" xMin="-29" yMin="-34" xMax="1730" yMax="1442">
      <contour>
        <pt x="1597" y="1153" on="1"/>
        <pt x="1597" y="1368" on="0"/>
        <pt x="1394" y="1368" on="1"/>
        <pt x="1306" y="1368" on="0"/>
        <pt x="1178" y="1260" on="0"/>
        <pt x="1108" y="1090" on="0"/>
        <pt x="1041" y="850" on="0"/>
        <pt x="1015" y="732" on="1"/>
        <pt x="950" y="441" on="0"/>
        <pt x="831" y="247" on="1"/>
        <pt x="867" y="231" on="0"/>
        <pt x="1015" y="160" on="0"/>
        <pt x="1060" y="140" on="1"/>
        <pt x="1186" y="83" on="0"/>
        <pt x="1281" y="83" on="1"/>
        <pt x="1323" y="83" on="0"/>
        <pt x="1397" y="125" on="0"/>
        <pt x="1436" y="174" on="0"/>
        <pt x="1465" y="216" on="0"/>
        <pt x="1468" y="216" on="1"/>
        <pt x="1513" y="190" on="1"/>
        <pt x="1425" y="24" on="0"/>
        <pt x="1327" y="-16" on="1"/>
        <pt x="1283" y="-34" on="0"/>
        <pt x="1145" y="-34" on="0"/>
        <pt x="980" y="15" on="0"/>
        <pt x="775" y="107" on="0"/>
        <pt x="733" y="122" on="1"/>
        <pt x="653" y="53" on="0"/>
        <pt x="404" y="-34" on="0"/>
        <pt x="243" y="-34" on="1"/>
        <pt x="162" y="-34" on="0"/>
        <pt x="96" y="-4" on="1"/>
        <pt x="-29" y="54" on="0"/>
        <pt x="-29" y="232" on="0"/>
        <pt x="26" y="293" on="1"/>
        <pt x="131" y="409" on="0"/>
        <pt x="317" y="409" on="1"/>
        <pt x="450" y="409" on="0"/>
        <pt x="598" y="354" on="1"/>
        <pt x="652" y="333" on="0"/>
        <pt x="739" y="296" on="1"/>
        <pt x="782" y="415" on="0"/>
        <pt x="842" y="725" on="0"/>
        <pt x="894" y="928" on="0"/>
        <pt x="949" y="1099" on="0"/>
        <pt x="1038" y="1261" on="0"/>
        <pt x="1092" y="1318" on="1"/>
        <pt x="1211" y="1442" on="0"/>
        <pt x="1402" y="1442" on="1"/>
        <pt x="1547" y="1442" on="0"/>
        <pt x="1730" y="1274" on="0"/>
        <pt x="1730" y="1122" on="1"/>
        <pt x="1730" y="1009" on="0"/>
        <pt x="1639" y="796" on="0"/>
        <pt x="1489" y="634" on="0"/>
        <pt x="1292" y="522" on="0"/>
        <pt x="1187" y="504" on="1"/>
        <pt x="1173" y="559" on="1"/>
        <pt x="1295" y="589" on="0"/>
        <pt x="1491" y="774" on="0"/>
        <pt x="1597" y="1023" on="0"/>
      </contour>
      <contour>
        <pt x="34" y="155" on="1"/>
        <pt x="34" y="76" on="0"/>
        <pt x="132" y="49" on="1"/>
        <pt x="335" y="-7" on="0"/>
        <pt x="536" y="84" on="1"/>
        <pt x="611" y="119" on="0"/>
        <pt x="651" y="171" on="1"/>
        <pt x="451" y="306" on="0"/>
        <pt x="288" y="306" on="1"/>
        <pt x="34" y="306" on="0"/>
      </contour>
    </TTGlyph>
    <TTGlyph name="Ldotaccent" xMin="-29" yMin="-34" xMax="1751" yMax="1442">
      <contour>
        <pt x="1597" y="1153" on="1"/>
        <pt x="1597" y="1368" on="0"/>
        <pt x="1394" y="1368" on="1"/>
        <pt x="1306" y="1368" on="0"/>
        <pt x="1178" y="1260" on="0"/>
        <pt x="1108" y="1090" on="0"/>
        <pt x="1041" y="850" on="0"/>
        <pt x="1015" y="732" on="1"/>
        <pt x="950" y="441" on="0"/>
        <pt x="831" y="247" on="1"/>
        <pt x="867" y="231" on="0"/>
        <pt x="1015" y="160" on="0"/>
        <pt x="1060" y="140" on="1"/>
        <pt x="1186" y="83" on="0"/>
        <pt x="1281" y="83" on="1"/>
        <pt x="1323" y="83" on="0"/>
        <pt x="1397" y="125" on="0"/>
        <pt x="1436" y="174" on="0"/>
        <pt x="1465" y="216" on="0"/>
        <pt x="1468" y="216" on="1"/>
        <pt x="1513" y="190" on="1"/>
        <pt x="1425" y="24" on="0"/>
        <pt x="1327" y="-16" on="1"/>
        <pt x="1283" y="-34" on="0"/>
        <pt x="1145" y="-34" on="0"/>
        <pt x="980" y="15" on="0"/>
        <pt x="775" y="107" on="0"/>
        <pt x="733" y="122" on="1"/>
        <pt x="653" y="53" on="0"/>
        <pt x="404" y="-34" on="0"/>
        <pt x="243" y="-34" on="1"/>
        <pt x="162" y="-34" on="0"/>
        <pt x="96" y="-4" on="1"/>
        <pt x="-29" y="54" on="0"/>
        <pt x="-29" y="232" on="0"/>
        <pt x="26" y="293" on="1"/>
        <pt x="131" y="409" on="0"/>
        <pt x="317" y="409" on="1"/>
        <pt x="450" y="409" on="0"/>
        <pt x="598" y="354" on="1"/>
        <pt x="652" y="333" on="0"/>
        <pt x="739" y="296" on="1"/>
        <pt x="782" y="415" on="0"/>
        <pt x="842" y="725" on="0"/>
        <pt x="894" y="928" on="0"/>
        <pt x="949" y="1099" on="0"/>
        <pt x="1038" y="1261" on="0"/>
        <pt x="1092" y="1318" on="1"/>
        <pt x="1211" y="1442" on="0"/>
        <pt x="1402" y="1442" on="1"/>
        <pt x="1547" y="1442" on="0"/>
        <pt x="1730" y="1274" on="0"/>
        <pt x="1730" y="1122" on="1"/>
        <pt x="1730" y="1009" on="0"/>
        <pt x="1639" y="796" on="0"/>
        <pt x="1489" y="634" on="0"/>
        <pt x="1292" y="522" on="0"/>
        <pt x="1187" y="504" on="1"/>
        <pt x="1173" y="559" on="1"/>
        <pt x="1295" y="589" on="0"/>
        <pt x="1491" y="774" on="0"/>
        <pt x="1597" y="1023" on="0"/>
      </contour>
      <contour>
        <pt x="34" y="155" on="1"/>
        <pt x="34" y="76" on="0"/>
        <pt x="132" y="49" on="1"/>
        <pt x="335" y="-7" on="0"/>
        <pt x="536" y="84" on="1"/>
        <pt x="611" y="119" on="0"/>
        <pt x="651" y="171" on="1"/>
        <pt x="451" y="306" on="0"/>
        <pt x="288" y="306" on="1"/>
        <pt x="34" y="306" on="0"/>
      </contour>
      <contour>
        <pt x="1699" y="553" on="0"/>
        <pt x="1751" y="506" on="0"/>
        <pt x="1751" y="409" on="0"/>
        <pt x="1686" y="350" on="0"/>
        <pt x="1604" y="350" on="0"/>
        <pt x="1550" y="400" on="0"/>
        <pt x="1550" y="494" on="0"/>
        <pt x="1618" y="553" on="0"/>
      </contour>
    </TTGlyph>
    <TTGlyph name="Lslash" xMin="-29" yMin="-34" xMax="1730" yMax="1442">
      <contour>
        <pt x="472" y="602" on="1"/>
        <pt x="461" y="658" on="1"/>
        <pt x="1258" y="862" on="1"/>
        <pt x="1269" y="805" on="1"/>
      </contour>
      <contour>
        <pt x="1597" y="1153" on="1"/>
        <pt x="1597" y="1368" on="0"/>
        <pt x="1394" y="1368" on="1"/>
        <pt x="1306" y="1368" on="0"/>
        <pt x="1178" y="1260" on="0"/>
        <pt x="1108" y="1090" on="0"/>
        <pt x="1041" y="850" on="0"/>
        <pt x="1015" y="732" on="1"/>
        <pt x="950" y="441" on="0"/>
        <pt x="831" y="247" on="1"/>
        <pt x="867" y="231" on="0"/>
        <pt x="1015" y="160" on="0"/>
        <pt x="1060" y="140" on="1"/>
        <pt x="1186" y="83" on="0"/>
        <pt x="1281" y="83" on="1"/>
        <pt x="1323" y="83" on="0"/>
        <pt x="1397" y="125" on="0"/>
        <pt x="1436" y="174" on="0"/>
        <pt x="1465" y="216" on="0"/>
        <pt x="1468" y="216" on="1"/>
        <pt x="1513" y="190" on="1"/>
        <pt x="1425" y="24" on="0"/>
        <pt x="1327" y="-16" on="1"/>
        <pt x="1283" y="-34" on="0"/>
        <pt x="1145" y="-34" on="0"/>
        <pt x="980" y="15" on="0"/>
        <pt x="775" y="107" on="0"/>
        <pt x="733" y="122" on="1"/>
        <pt x="653" y="53" on="0"/>
        <pt x="404" y="-34" on="0"/>
        <pt x="243" y="-34" on="1"/>
        <pt x="162" y="-34" on="0"/>
        <pt x="96" y="-4" on="1"/>
        <pt x="-29" y="54" on="0"/>
        <pt x="-29" y="232" on="0"/>
        <pt x="26" y="293" on="1"/>
        <pt x="131" y="409" on="0"/>
        <pt x="317" y="409" on="1"/>
        <pt x="450" y="409" on="0"/>
        <pt x="598" y="354" on="1"/>
        <pt x="652" y="333" on="0"/>
        <pt x="739" y="296" on="1"/>
        <pt x="782" y="415" on="0"/>
        <pt x="842" y="725" on="0"/>
        <pt x="894" y="928" on="0"/>
        <pt x="949" y="1099" on="0"/>
        <pt x="1038" y="1261" on="0"/>
        <pt x="1092" y="1318" on="1"/>
        <pt x="1211" y="1442" on="0"/>
        <pt x="1402" y="1442" on="1"/>
        <pt x="1547" y="1442" on="0"/>
        <pt x="1730" y="1274" on="0"/>
        <pt x="1730" y="1122" on="1"/>
        <pt x="1730" y="1009" on="0"/>
        <pt x="1639" y="796" on="0"/>
        <pt x="1489" y="634" on="0"/>
        <pt x="1292" y="522" on="0"/>
        <pt x="1187" y="504" on="1"/>
        <pt x="1173" y="559" on="1"/>
        <pt x="1295" y="589" on="0"/>
        <pt x="1491" y="774" on="0"/>
        <pt x="1597" y="1023" on="0"/>
      </contour>
      <contour>
        <pt x="34" y="155" on="1"/>
        <pt x="34" y="76" on="0"/>
        <pt x="132" y="49" on="1"/>
        <pt x="335" y="-7" on="0"/>
        <pt x="536" y="84" on="1"/>
        <pt x="611" y="119" on="0"/>
        <pt x="651" y="171" on="1"/>
        <pt x="451" y="306" on="0"/>
        <pt x="288" y="306" on="1"/>
        <pt x="34" y="306" on="0"/>
      </contour>
    </TTGlyph>
    <TTGlyph name="M" xMin="62" yMin="-23" xMax="2209" yMax="1442">
      <contour>
        <pt x="2120" y="283" on="1"/>
        <pt x="2171" y="240" on="1"/>
        <pt x="2125" y="125" on="0"/>
        <pt x="1973" y="-23" on="0"/>
        <pt x="1821" y="-23" on="0"/>
        <pt x="1756" y="75" on="0"/>
        <pt x="1756" y="225" on="0"/>
        <pt x="1849" y="557" on="0"/>
        <pt x="1904" y="710" on="1"/>
        <pt x="2053" y="1118" on="0"/>
        <pt x="2053" y="1234" on="1"/>
        <pt x="2053" y="1301" on="0"/>
        <pt x="2010" y="1301" on="1"/>
        <pt x="1839" y="1301" on="0"/>
        <pt x="1584" y="750" on="1"/>
        <pt x="1481" y="528" on="0"/>
        <pt x="1422" y="377" on="1"/>
        <pt x="1300" y="61" on="0"/>
        <pt x="1276" y="0" on="1"/>
        <pt x="1053" y="0" on="1"/>
        <pt x="1145" y="240" on="1"/>
        <pt x="1309" y="657" on="0"/>
        <pt x="1386" y="1015" on="1"/>
        <pt x="1416" y="1151" on="0"/>
        <pt x="1416" y="1233" on="1"/>
        <pt x="1416" y="1358" on="0"/>
        <pt x="1284" y="1358" on="0"/>
        <pt x="1118" y="1157" on="0"/>
        <pt x="966" y="855" on="0"/>
        <pt x="814" y="503" on="0"/>
        <pt x="758" y="352" on="1"/>
        <pt x="629" y="0" on="0"/>
        <pt x="625" y="0" on="1"/>
        <pt x="429" y="0" on="1"/>
        <pt x="541" y="313" on="1"/>
        <pt x="691" y="700" on="0"/>
        <pt x="724" y="922" on="1"/>
        <pt x="740" y="1025" on="0"/>
        <pt x="740" y="1239" on="0"/>
        <pt x="630" y="1384" on="0"/>
        <pt x="438" y="1384" on="0"/>
        <pt x="299" y="1303" on="0"/>
        <pt x="209" y="1179" on="0"/>
        <pt x="178" y="1102" on="1"/>
        <pt x="119" y="959" on="0"/>
        <pt x="119" y="823" on="1"/>
        <pt x="119" y="532" on="0"/>
        <pt x="252" y="311" on="1"/>
        <pt x="209" y="279" on="1"/>
        <pt x="137" y="394" on="0"/>
        <pt x="62" y="681" on="0"/>
        <pt x="62" y="895" on="0"/>
        <pt x="94" y="1060" on="0"/>
        <pt x="168" y="1228" on="0"/>
        <pt x="277" y="1359" on="0"/>
        <pt x="448" y="1442" on="0"/>
        <pt x="636" y="1442" on="0"/>
        <pt x="765" y="1370" on="0"/>
        <pt x="802" y="1309" on="1"/>
        <pt x="875" y="1189" on="0"/>
        <pt x="875" y="847" on="0"/>
        <pt x="768" y="520" on="1"/>
        <pt x="805" y="618" on="0"/>
        <pt x="840" y="696" on="0"/>
        <pt x="889" y="810" on="0"/>
        <pt x="917" y="875" on="0"/>
        <pt x="975" y="1000" on="0"/>
        <pt x="1018" y="1081" on="0"/>
        <pt x="1085" y="1198" on="0"/>
        <pt x="1141" y="1274" on="0"/>
        <pt x="1214" y="1359" on="0"/>
        <pt x="1248" y="1384" on="1"/>
        <pt x="1325" y="1442" on="0"/>
        <pt x="1397" y="1442" on="1"/>
        <pt x="1567" y="1442" on="0"/>
        <pt x="1567" y="1214" on="1"/>
        <pt x="1567" y="1070" on="0"/>
        <pt x="1510" y="857" on="1"/>
        <pt x="1491" y="786" on="0"/>
        <pt x="1424" y="561" on="0"/>
        <pt x="1420" y="545" on="1"/>
        <pt x="1464" y="626" on="0"/>
        <pt x="1606" y="970" on="0"/>
        <pt x="1714" y="1168" on="0"/>
        <pt x="1822" y="1308" on="0"/>
        <pt x="1973" y="1402" on="0"/>
        <pt x="2122" y="1402" on="0"/>
        <pt x="2209" y="1306" on="0"/>
        <pt x="2209" y="1146" on="0"/>
        <pt x="2153" y="917" on="0"/>
        <pt x="2071" y="691" on="0"/>
        <pt x="2030" y="579" on="1"/>
        <pt x="1929" y="308" on="0"/>
        <pt x="1922" y="158" on="1"/>
        <pt x="1922" y="94" on="0"/>
        <pt x="1989" y="94" on="0"/>
        <pt x="2081" y="210" on="0"/>
      </contour>
    </TTGlyph>
    <TTGlyph name="N" xMin="66" yMin="-23" xMax="1598" yMax="1442">
      <contour>
        <pt x="1522" y="283" on="1"/>
        <pt x="1573" y="240" on="1"/>
        <pt x="1524" y="118" on="0"/>
        <pt x="1364" y="-23" on="0"/>
        <pt x="1285" y="-23" on="1"/>
        <pt x="1238" y="-23" on="0"/>
        <pt x="1170" y="63" on="0"/>
        <pt x="1170" y="217" on="0"/>
        <pt x="1254" y="522" on="0"/>
        <pt x="1304" y="668" on="1"/>
        <pt x="1438" y="1059" on="0"/>
        <pt x="1438" y="1221" on="1"/>
        <pt x="1438" y="1339" on="0"/>
        <pt x="1317" y="1339" on="0"/>
        <pt x="1167" y="1191" on="0"/>
        <pt x="1024" y="955" on="0"/>
        <pt x="878" y="669" on="0"/>
        <pt x="755" y="384" on="0"/>
        <pt x="658" y="148" on="0"/>
        <pt x="599" y="0" on="0"/>
        <pt x="596" y="0" on="1"/>
        <pt x="410" y="0" on="1"/>
        <pt x="514" y="293" on="1"/>
        <pt x="702" y="825" on="0"/>
        <pt x="703" y="1370" on="0"/>
        <pt x="496" y="1370" on="1"/>
        <pt x="419" y="1370" on="0"/>
        <pt x="288" y="1283" on="0"/>
        <pt x="204" y="1150" on="0"/>
        <pt x="174" y="1068" on="1"/>
        <pt x="119" y="914" on="0"/>
        <pt x="119" y="770" on="1"/>
        <pt x="119" y="497" on="0"/>
        <pt x="244" y="291" on="1"/>
        <pt x="205" y="258" on="1"/>
        <pt x="137" y="367" on="0"/>
        <pt x="66" y="636" on="0"/>
        <pt x="66" y="849" on="0"/>
        <pt x="96" y="1028" on="0"/>
        <pt x="166" y="1211" on="0"/>
        <pt x="268" y="1352" on="0"/>
        <pt x="428" y="1442" on="0"/>
        <pt x="589" y="1442" on="0"/>
        <pt x="693" y="1398" on="0"/>
        <pt x="761" y="1323" on="0"/>
        <pt x="784" y="1272" on="1"/>
        <pt x="826" y="1176" on="0"/>
        <pt x="826" y="948" on="0"/>
        <pt x="802" y="799" on="1"/>
        <pt x="772" y="618" on="0"/>
        <pt x="732" y="467" on="1"/>
        <pt x="764" y="556" on="0"/>
        <pt x="811" y="653" on="0"/>
        <pt x="874" y="789" on="0"/>
        <pt x="924" y="898" on="0"/>
        <pt x="1006" y="1054" on="0"/>
        <pt x="1078" y="1174" on="0"/>
        <pt x="1173" y="1303" on="0"/>
        <pt x="1218" y="1345" on="1"/>
        <pt x="1322" y="1442" on="0"/>
        <pt x="1506" y="1442" on="0"/>
        <pt x="1598" y="1321" on="0"/>
        <pt x="1598" y="1133" on="0"/>
        <pt x="1544" y="884" on="0"/>
        <pt x="1466" y="646" on="0"/>
        <pt x="1427" y="533" on="1"/>
        <pt x="1334" y="264" on="0"/>
        <pt x="1334" y="94" on="0"/>
        <pt x="1392" y="94" on="0"/>
        <pt x="1505" y="243" on="0"/>
      </contour>
    </TTGlyph>
    <TTGlyph name="Nacute" xMin="66" yMin="-23" xMax="1598" yMax="1809">
      <component glyphName="N" x="0" y="0" flags="0x1004"/>
      <component glyphName="acute" x="948" y="836" flags="0x1004"/>
    </TTGlyph>
    <TTGlyph name="Ntilde" xMin="66" yMin="-23" xMax="1598" yMax="1702">
      <component glyphName="N" x="0" y="0" flags="0x1004"/>
      <component glyphName="tilde" x="213" y="836" flags="0x1004"/>
    </TTGlyph>
    <TTGlyph name="O" xMin="20" yMin="-23" xMax="1492" yMax="1442">
      <contour>
        <pt x="497" y="530" on="0"/>
        <pt x="362" y="697" on="0"/>
        <pt x="362" y="935" on="0"/>
        <pt x="463" y="1162" on="0"/>
        <pt x="627" y="1335" on="0"/>
        <pt x="851" y="1442" on="0"/>
        <pt x="1073" y="1442" on="0"/>
        <pt x="1261" y="1375" on="0"/>
        <pt x="1406" y="1251" on="0"/>
        <pt x="1492" y="1060" on="0"/>
        <pt x="1492" y="800" on="0"/>
        <pt x="1399" y="515" on="0"/>
        <pt x="1226" y="272" on="0"/>
        <pt x="996" y="84" on="0"/>
        <pt x="702" y="-23" on="0"/>
        <pt x="546" y="-23" on="1"/>
        <pt x="294" y="-23" on="0"/>
        <pt x="20" y="236" on="0"/>
        <pt x="20" y="475" on="1"/>
        <pt x="20" y="738" on="0"/>
        <pt x="176" y="962" on="1"/>
        <pt x="255" y="1075" on="0"/>
        <pt x="362" y="1148" on="1"/>
        <pt x="392" y="1111" on="1"/>
        <pt x="304" y="1005" on="0"/>
        <pt x="202" y="687" on="0"/>
        <pt x="202" y="428" on="0"/>
        <pt x="247" y="255" on="0"/>
        <pt x="292" y="186" on="1"/>
        <pt x="390" y="37" on="0"/>
        <pt x="587" y="37" on="1"/>
        <pt x="868" y="37" on="0"/>
        <pt x="1077" y="337" on="1"/>
        <pt x="1195" y="507" on="0"/>
        <pt x="1244" y="728" on="1"/>
        <pt x="1267" y="833" on="0"/>
        <pt x="1267" y="1023" on="0"/>
        <pt x="1228" y="1178" on="0"/>
        <pt x="1188" y="1239" on="1"/>
        <pt x="1105" y="1368" on="0"/>
        <pt x="929" y="1368" on="1"/>
        <pt x="797" y="1368" on="0"/>
        <pt x="579" y="1204" on="0"/>
        <pt x="462" y="951" on="0"/>
        <pt x="462" y="703" on="0"/>
        <pt x="546" y="596" on="0"/>
        <pt x="681" y="596" on="0"/>
        <pt x="820" y="683" on="0"/>
        <pt x="918" y="835" on="0"/>
        <pt x="921" y="918" on="1"/>
        <pt x="1017" y="934" on="1"/>
        <pt x="1017" y="830" on="0"/>
        <pt x="908" y="643" on="0"/>
        <pt x="723" y="530" on="0"/>
      </contour>
    </TTGlyph>
    <TTGlyph name="OE" xMin="20" yMin="-25" xMax="2413" yMax="1442">
      <contour>
        <pt x="2017" y="928" on="1"/>
        <pt x="2070" y="928" on="0"/>
        <pt x="2070" y="856" on="0"/>
        <pt x="2015" y="856" on="1"/>
        <pt x="1841" y="856" on="0"/>
        <pt x="1533" y="732" on="0"/>
        <pt x="1342" y="509" on="0"/>
        <pt x="1342" y="247" on="0"/>
        <pt x="1565" y="78" on="0"/>
        <pt x="1786" y="78" on="1"/>
        <pt x="2033" y="78" on="0"/>
        <pt x="2156" y="196" on="1"/>
        <pt x="2220" y="258" on="0"/>
        <pt x="2220" y="455" on="0"/>
        <pt x="2090" y="569" on="0"/>
        <pt x="1887" y="569" on="0"/>
        <pt x="1688" y="489" on="0"/>
        <pt x="1630" y="422" on="1"/>
        <pt x="1575" y="471" on="1"/>
        <pt x="1633" y="545" on="0"/>
        <pt x="1861" y="635" on="0"/>
        <pt x="2049" y="635" on="0"/>
        <pt x="2164" y="601" on="0"/>
        <pt x="2211" y="568" on="1"/>
        <pt x="2312" y="496" on="0"/>
        <pt x="2318" y="346" on="1"/>
        <pt x="2314" y="256" on="0"/>
        <pt x="2214" y="112" on="0"/>
        <pt x="2132" y="67" on="1"/>
        <pt x="1966" y="-25" on="0"/>
        <pt x="1558" y="-25" on="0"/>
        <pt x="1245" y="109" on="0"/>
        <pt x="1173" y="231" on="1"/>
        <pt x="1045" y="112" on="0"/>
        <pt x="723" y="-23" on="0"/>
        <pt x="546" y="-23" on="1"/>
        <pt x="294" y="-23" on="0"/>
        <pt x="20" y="236" on="0"/>
        <pt x="20" y="475" on="1"/>
        <pt x="20" y="738" on="0"/>
        <pt x="176" y="962" on="1"/>
        <pt x="255" y="1075" on="0"/>
        <pt x="362" y="1148" on="1"/>
        <pt x="392" y="1111" on="1"/>
        <pt x="304" y="1005" on="0"/>
        <pt x="202" y="687" on="0"/>
        <pt x="202" y="428" on="0"/>
        <pt x="247" y="255" on="0"/>
        <pt x="292" y="186" on="1"/>
        <pt x="390" y="37" on="0"/>
        <pt x="587" y="37" on="1"/>
        <pt x="868" y="37" on="0"/>
        <pt x="1077" y="337" on="1"/>
        <pt x="1195" y="507" on="0"/>
        <pt x="1244" y="728" on="1"/>
        <pt x="1267" y="833" on="0"/>
        <pt x="1267" y="1023" on="0"/>
        <pt x="1228" y="1178" on="0"/>
        <pt x="1188" y="1239" on="1"/>
        <pt x="1105" y="1368" on="0"/>
        <pt x="929" y="1368" on="1"/>
        <pt x="797" y="1368" on="0"/>
        <pt x="579" y="1204" on="0"/>
        <pt x="462" y="951" on="0"/>
        <pt x="462" y="703" on="0"/>
        <pt x="546" y="596" on="0"/>
        <pt x="681" y="596" on="0"/>
        <pt x="820" y="683" on="0"/>
        <pt x="918" y="835" on="0"/>
        <pt x="921" y="918" on="1"/>
        <pt x="1017" y="934" on="1"/>
        <pt x="1017" y="830" on="0"/>
        <pt x="908" y="643" on="0"/>
        <pt x="723" y="530" on="0"/>
        <pt x="497" y="530" on="0"/>
        <pt x="362" y="697" on="0"/>
        <pt x="362" y="935" on="0"/>
        <pt x="463" y="1162" on="0"/>
        <pt x="627" y="1335" on="0"/>
        <pt x="851" y="1442" on="0"/>
        <pt x="968" y="1442" on="1"/>
        <pt x="1194" y="1442" on="0"/>
        <pt x="1448" y="1160" on="0"/>
        <pt x="1448" y="926" on="1"/>
        <pt x="1448" y="854" on="0"/>
        <pt x="1434" y="770" on="1"/>
        <pt x="1482" y="812" on="0"/>
        <pt x="1645" y="874" on="0"/>
        <pt x="1702" y="884" on="1"/>
        <pt x="1760" y="894" on="1"/>
        <pt x="1639" y="931" on="0"/>
        <pt x="1518" y="1057" on="0"/>
        <pt x="1518" y="1131" on="1"/>
        <pt x="1518" y="1251" on="0"/>
        <pt x="1797" y="1442" on="0"/>
        <pt x="2004" y="1442" on="1"/>
        <pt x="2191" y="1442" on="0"/>
        <pt x="2316" y="1342" on="1"/>
        <pt x="2409" y="1268" on="0"/>
        <pt x="2413" y="1147" on="1"/>
        <pt x="2413" y="1091" on="0"/>
        <pt x="2347" y="1034" on="0"/>
        <pt x="2255" y="1034" on="0"/>
        <pt x="2190" y="1085" on="0"/>
        <pt x="2190" y="1153" on="0"/>
        <pt x="2214" y="1192" on="0"/>
        <pt x="2243" y="1211" on="0"/>
        <pt x="2262" y="1216" on="1"/>
        <pt x="2290" y="1223" on="0"/>
        <pt x="2307" y="1223" on="1"/>
        <pt x="2275" y="1289" on="0"/>
        <pt x="2112" y="1368" on="0"/>
        <pt x="1945" y="1368" on="0"/>
        <pt x="1826" y="1322" on="0"/>
        <pt x="1788" y="1284" on="1"/>
        <pt x="1707" y="1206" on="0"/>
        <pt x="1707" y="1031" on="0"/>
        <pt x="1827" y="924" on="0"/>
        <pt x="1941" y="924" on="1"/>
      </contour>
    </TTGlyph>
    <TTGlyph name="Oacute" xMin="20" yMin="-23" xMax="1492" yMax="1833">
      <contour>
        <pt x="497" y="530" on="0"/>
        <pt x="362" y="697" on="0"/>
        <pt x="362" y="935" on="0"/>
        <pt x="463" y="1162" on="0"/>
        <pt x="627" y="1335" on="0"/>
        <pt x="851" y="1442" on="0"/>
        <pt x="1073" y="1442" on="0"/>
        <pt x="1261" y="1375" on="0"/>
        <pt x="1406" y="1251" on="0"/>
        <pt x="1492" y="1060" on="0"/>
        <pt x="1492" y="800" on="0"/>
        <pt x="1399" y="515" on="0"/>
        <pt x="1226" y="272" on="0"/>
        <pt x="996" y="84" on="0"/>
        <pt x="702" y="-23" on="0"/>
        <pt x="546" y="-23" on="1"/>
        <pt x="294" y="-23" on="0"/>
        <pt x="20" y="236" on="0"/>
        <pt x="20" y="475" on="1"/>
        <pt x="20" y="738" on="0"/>
        <pt x="176" y="962" on="1"/>
        <pt x="255" y="1075" on="0"/>
        <pt x="362" y="1148" on="1"/>
        <pt x="392" y="1111" on="1"/>
        <pt x="304" y="1005" on="0"/>
        <pt x="202" y="687" on="0"/>
        <pt x="202" y="428" on="0"/>
        <pt x="247" y="255" on="0"/>
        <pt x="292" y="186" on="1"/>
        <pt x="390" y="37" on="0"/>
        <pt x="587" y="37" on="1"/>
        <pt x="868" y="37" on="0"/>
        <pt x="1077" y="337" on="1"/>
        <pt x="1195" y="507" on="0"/>
        <pt x="1244" y="728" on="1"/>
        <pt x="1267" y="833" on="0"/>
        <pt x="1267" y="1023" on="0"/>
        <pt x="1228" y="1178" on="0"/>
        <pt x="1188" y="1239" on="1"/>
        <pt x="1105" y="1368" on="0"/>
        <pt x="929" y="1368" on="1"/>
        <pt x="797" y="1368" on="0"/>
        <pt x="579" y="1204" on="0"/>
        <pt x="462" y="951" on="0"/>
        <pt x="462" y="703" on="0"/>
        <pt x="546" y="596" on="0"/>
        <pt x="681" y="596" on="0"/>
        <pt x="820" y="683" on="0"/>
        <pt x="918" y="835" on="0"/>
        <pt x="921" y="918" on="1"/>
        <pt x="1017" y="934" on="1"/>
        <pt x="1017" y="830" on="0"/>
        <pt x="908" y="643" on="0"/>
        <pt x="723" y="530" on="0"/>
      </contour>
      <contour>
        <pt x="1001" y="1532" on="1"/>
        <pt x="947" y="1532" on="1"/>
        <pt x="987" y="1589" on="0"/>
        <pt x="1105" y="1777" on="1"/>
        <pt x="1140" y="1833" on="1"/>
        <pt x="1310" y="1833" on="1"/>
        <pt x="1296" y="1819" on="0"/>
        <pt x="1231" y="1752" on="1"/>
        <pt x="1066" y="1582" on="0"/>
      </contour>
    </TTGlyph>
    <TTGlyph name="Ocircumflex" xMin="20" yMin="-23" xMax="1492" yMax="1832">
      <component glyphName="O" x="0" y="0" flags="0x1004"/>
      <component glyphName="circumflex" x="612" y="860" flags="0x1004"/>
    </TTGlyph>
    <TTGlyph name="Odieresis" xMin="20" yMin="-23" xMax="1492" yMax="1734">
      <contour>
        <pt x="497" y="530" on="0"/>
        <pt x="362" y="697" on="0"/>
        <pt x="362" y="935" on="0"/>
        <pt x="463" y="1162" on="0"/>
        <pt x="627" y="1335" on="0"/>
        <pt x="851" y="1442" on="0"/>
        <pt x="1073" y="1442" on="0"/>
        <pt x="1261" y="1375" on="0"/>
        <pt x="1406" y="1251" on="0"/>
        <pt x="1492" y="1060" on="0"/>
        <pt x="1492" y="800" on="0"/>
        <pt x="1399" y="515" on="0"/>
        <pt x="1226" y="272" on="0"/>
        <pt x="996" y="84" on="0"/>
        <pt x="702" y="-23" on="0"/>
        <pt x="546" y="-23" on="1"/>
        <pt x="294" y="-23" on="0"/>
        <pt x="20" y="236" on="0"/>
        <pt x="20" y="475" on="1"/>
        <pt x="20" y="738" on="0"/>
        <pt x="176" y="962" on="1"/>
        <pt x="255" y="1075" on="0"/>
        <pt x="362" y="1148" on="1"/>
        <pt x="392" y="1111" on="1"/>
        <pt x="304" y="1005" on="0"/>
        <pt x="202" y="687" on="0"/>
        <pt x="202" y="428" on="0"/>
        <pt x="247" y="255" on="0"/>
        <pt x="292" y="186" on="1"/>
        <pt x="390" y="37" on="0"/>
        <pt x="587" y="37" on="1"/>
        <pt x="868" y="37" on="0"/>
        <pt x="1077" y="337" on="1"/>
        <pt x="1195" y="507" on="0"/>
        <pt x="1244" y="728" on="1"/>
        <pt x="1267" y="833" on="0"/>
        <pt x="1267" y="1023" on="0"/>
        <pt x="1228" y="1178" on="0"/>
        <pt x="1188" y="1239" on="1"/>
        <pt x="1105" y="1368" on="0"/>
        <pt x="929" y="1368" on="1"/>
        <pt x="797" y="1368" on="0"/>
        <pt x="579" y="1204" on="0"/>
        <pt x="462" y="951" on="0"/>
        <pt x="462" y="703" on="0"/>
        <pt x="546" y="596" on="0"/>
        <pt x="681" y="596" on="0"/>
        <pt x="820" y="683" on="0"/>
        <pt x="918" y="835" on="0"/>
        <pt x="921" y="918" on="1"/>
        <pt x="1017" y="934" on="1"/>
        <pt x="1017" y="830" on="0"/>
        <pt x="908" y="643" on="0"/>
        <pt x="723" y="530" on="0"/>
      </contour>
      <contour>
        <pt x="911" y="1734" on="0"/>
        <pt x="963" y="1687" on="0"/>
        <pt x="963" y="1591" on="0"/>
        <pt x="897" y="1532" on="0"/>
        <pt x="816" y="1532" on="0"/>
        <pt x="762" y="1581" on="0"/>
        <pt x="762" y="1676" on="0"/>
        <pt x="829" y="1734" on="0"/>
      </contour>
      <contour>
        <pt x="1273" y="1734" on="0"/>
        <pt x="1325" y="1687" on="0"/>
        <pt x="1325" y="1591" on="0"/>
        <pt x="1259" y="1532" on="0"/>
        <pt x="1178" y="1532" on="0"/>
        <pt x="1124" y="1581" on="0"/>
        <pt x="1124" y="1675" on="0"/>
        <pt x="1192" y="1734" on="0"/>
      </contour>
    </TTGlyph>
    <TTGlyph name="Ograve" xMin="20" yMin="-23" xMax="1492" yMax="1833">
      <component glyphName="O" x="0" y="0" flags="0x1004"/>
      <component glyphName="grave" x="612" y="860" flags="0x1004"/>
    </TTGlyph>
    <TTGlyph name="Oslash" xMin="20" yMin="-315" xMax="1492" yMax="1772">
      <contour>
        <pt x="152" y="-283" on="1"/>
        <pt x="1380" y="1772" on="1"/>
        <pt x="1426" y="1737" on="1"/>
        <pt x="199" y="-315" on="1"/>
      </contour>
      <contour>
        <pt x="497" y="530" on="0"/>
        <pt x="362" y="697" on="0"/>
        <pt x="362" y="935" on="0"/>
        <pt x="463" y="1162" on="0"/>
        <pt x="627" y="1335" on="0"/>
        <pt x="851" y="1442" on="0"/>
        <pt x="1073" y="1442" on="0"/>
        <pt x="1261" y="1375" on="0"/>
        <pt x="1406" y="1251" on="0"/>
        <pt x="1492" y="1060" on="0"/>
        <pt x="1492" y="800" on="0"/>
        <pt x="1399" y="515" on="0"/>
        <pt x="1226" y="272" on="0"/>
        <pt x="996" y="84" on="0"/>
        <pt x="702" y="-23" on="0"/>
        <pt x="546" y="-23" on="1"/>
        <pt x="294" y="-23" on="0"/>
        <pt x="20" y="236" on="0"/>
        <pt x="20" y="475" on="1"/>
        <pt x="20" y="738" on="0"/>
        <pt x="176" y="962" on="1"/>
        <pt x="255" y="1075" on="0"/>
        <pt x="362" y="1148" on="1"/>
        <pt x="392" y="1111" on="1"/>
        <pt x="304" y="1005" on="0"/>
        <pt x="202" y="687" on="0"/>
        <pt x="202" y="428" on="0"/>
        <pt x="247" y="255" on="0"/>
        <pt x="292" y="186" on="1"/>
        <pt x="390" y="37" on="0"/>
        <pt x="587" y="37" on="1"/>
        <pt x="868" y="37" on="0"/>
        <pt x="1077" y="337" on="1"/>
        <pt x="1195" y="507" on="0"/>
        <pt x="1244" y="728" on="1"/>
        <pt x="1267" y="833" on="0"/>
        <pt x="1267" y="1023" on="0"/>
        <pt x="1228" y="1178" on="0"/>
        <pt x="1188" y="1239" on="1"/>
        <pt x="1105" y="1368" on="0"/>
        <pt x="929" y="1368" on="1"/>
        <pt x="797" y="1368" on="0"/>
        <pt x="579" y="1204" on="0"/>
        <pt x="462" y="951" on="0"/>
        <pt x="462" y="703" on="0"/>
        <pt x="546" y="596" on="0"/>
        <pt x="681" y="596" on="0"/>
        <pt x="820" y="683" on="0"/>
        <pt x="918" y="835" on="0"/>
        <pt x="921" y="918" on="1"/>
        <pt x="1017" y="934" on="1"/>
        <pt x="1017" y="830" on="0"/>
        <pt x="908" y="643" on="0"/>
        <pt x="723" y="530" on="0"/>
      </contour>
    </TTGlyph>
    <TTGlyph name="Otilde" xMin="20" yMin="-23" xMax="1492" yMax="1726">
      <component glyphName="O" x="0" y="0" flags="0x1004"/>
      <component glyphName="tilde" x="118" y="860" flags="0x1004"/>
    </TTGlyph>
    <TTGlyph name="P" xMin="-18" yMin="-31" xMax="1742" yMax="1442">
      <contour>
        <pt x="38" y="108" on="1"/>
        <pt x="-18" y="177" on="0"/>
        <pt x="-18" y="339" on="0"/>
        <pt x="37" y="457" on="0"/>
        <pt x="129" y="537" on="0"/>
        <pt x="189" y="565" on="1"/>
        <pt x="300" y="617" on="0"/>
        <pt x="440" y="619" on="1"/>
        <pt x="449" y="784" on="0"/>
        <pt x="582" y="1083" on="0"/>
        <pt x="798" y="1308" on="0"/>
        <pt x="1109" y="1442" on="0"/>
        <pt x="1285" y="1442" on="1"/>
        <pt x="1450" y="1442" on="0"/>
        <pt x="1588" y="1361" on="1"/>
        <pt x="1657" y="1321" on="0"/>
        <pt x="1742" y="1184" on="0"/>
        <pt x="1742" y="980" on="0"/>
        <pt x="1641" y="767" on="0"/>
        <pt x="1558" y="692" on="1"/>
        <pt x="1382" y="535" on="0"/>
        <pt x="1158" y="510" on="1"/>
        <pt x="1070" y="253" on="0"/>
        <pt x="658" y="-31" on="0"/>
        <pt x="373" y="-31" on="1"/>
        <pt x="151" y="-31" on="0"/>
      </contour>
      <contour>
        <pt x="131" y="423" on="0"/>
        <pt x="51" y="318" on="0"/>
        <pt x="51" y="196" on="0"/>
        <pt x="118" y="107" on="0"/>
        <pt x="170" y="82" on="1"/>
        <pt x="276" y="31" on="0"/>
        <pt x="389" y="31" on="1"/>
        <pt x="570" y="31" on="0"/>
        <pt x="869" y="260" on="0"/>
        <pt x="945" y="436" on="1"/>
        <pt x="975" y="506" on="0"/>
        <pt x="1043" y="797" on="0"/>
        <pt x="1062" y="852" on="1"/>
        <pt x="1175" y="1190" on="0"/>
        <pt x="1377" y="1319" on="1"/>
        <pt x="1364" y="1332" on="0"/>
        <pt x="1264" y="1352" on="0"/>
        <pt x="1203" y="1352" on="1"/>
        <pt x="1071" y="1352" on="0"/>
        <pt x="814" y="1224" on="0"/>
        <pt x="622" y="1020" on="0"/>
        <pt x="504" y="751" on="0"/>
        <pt x="504" y="617" on="1"/>
        <pt x="652" y="594" on="0"/>
        <pt x="793" y="500" on="1"/>
        <pt x="750" y="434" on="1"/>
        <pt x="615" y="511" on="0"/>
        <pt x="513" y="511" on="1"/>
        <pt x="513" y="489" on="0"/>
        <pt x="545" y="353" on="0"/>
        <pt x="566" y="296" on="1"/>
        <pt x="507" y="278" on="1"/>
        <pt x="483" y="316" on="0"/>
        <pt x="448" y="469" on="0"/>
        <pt x="443" y="511" on="1"/>
        <pt x="319" y="511" on="0"/>
        <pt x="193" y="452" on="1"/>
      </contour>
      <contour>
        <pt x="1451" y="1282" on="1"/>
        <pt x="1342" y="1170" on="0"/>
        <pt x="1201" y="795" on="0"/>
        <pt x="1172" y="569" on="1"/>
        <pt x="1250" y="569" on="0"/>
        <pt x="1404" y="660" on="0"/>
        <pt x="1514" y="799" on="0"/>
        <pt x="1582" y="967" on="0"/>
        <pt x="1582" y="1072" on="0"/>
        <pt x="1572" y="1132" on="0"/>
        <pt x="1560" y="1168" on="1"/>
        <pt x="1532" y="1250" on="0"/>
      </contour>
    </TTGlyph>
    <TTGlyph name="Ph" xMin="27" yMin="-23" xMax="2236" yMax="1501">
      <contour>
        <pt x="1717" y="144" on="0"/>
        <pt x="1801" y="374" on="0"/>
        <pt x="1801" y="473" on="0"/>
        <pt x="1732" y="473" on="0"/>
        <pt x="1634" y="376" on="0"/>
        <pt x="1589" y="306" on="1"/>
        <pt x="1515" y="193" on="0"/>
        <pt x="1440" y="48" on="1"/>
        <pt x="1414" y="0" on="1"/>
        <pt x="1270" y="0" on="1"/>
        <pt x="1285" y="56" on="0"/>
        <pt x="1362" y="456" on="0"/>
        <pt x="1390" y="578" on="1"/>
        <pt x="1312" y="565" on="0"/>
        <pt x="1242" y="565" on="1"/>
        <pt x="1260" y="624" on="1"/>
        <pt x="1406" y="645" on="1"/>
        <pt x="1516" y="1080" on="0"/>
        <pt x="1670" y="1288" on="1"/>
        <pt x="1585" y="1318" on="0"/>
        <pt x="1486" y="1334" on="1"/>
        <pt x="1295" y="1133" on="0"/>
        <pt x="1192" y="569" on="1"/>
        <pt x="1128" y="214" on="0"/>
        <pt x="828" y="65" on="1"/>
        <pt x="650" y="-23" on="0"/>
        <pt x="412" y="-23" on="1"/>
        <pt x="191" y="-23" on="0"/>
        <pt x="82" y="120" on="1"/>
        <pt x="27" y="191" on="0"/>
        <pt x="27" y="353" on="0"/>
        <pt x="81" y="470" on="0"/>
        <pt x="170" y="548" on="0"/>
        <pt x="230" y="575" on="1"/>
        <pt x="339" y="625" on="0"/>
        <pt x="479" y="627" on="1"/>
        <pt x="479" y="789" on="0"/>
        <pt x="606" y="1084" on="0"/>
        <pt x="830" y="1309" on="0"/>
        <pt x="1164" y="1442" on="0"/>
        <pt x="1573" y="1442" on="0"/>
        <pt x="1746" y="1375" on="1"/>
        <pt x="1878" y="1501" on="0"/>
        <pt x="2042" y="1501" on="1"/>
        <pt x="2121" y="1501" on="0"/>
        <pt x="2236" y="1421" on="0"/>
        <pt x="2236" y="1340" on="1"/>
        <pt x="2236" y="1293" on="0"/>
        <pt x="2173" y="1241" on="0"/>
        <pt x="2088" y="1241" on="0"/>
        <pt x="2029" y="1290" on="0"/>
        <pt x="2029" y="1362" on="0"/>
        <pt x="2056" y="1405" on="1"/>
        <pt x="2025" y="1421" on="0"/>
        <pt x="1997" y="1421" on="1"/>
        <pt x="1895" y="1421" on="0"/>
        <pt x="1820" y="1341" on="1"/>
        <pt x="1934" y="1280" on="0"/>
        <pt x="2059" y="1108" on="0"/>
        <pt x="2059" y="1015" on="1"/>
        <pt x="2059" y="886" on="0"/>
        <pt x="1814" y="669" on="0"/>
        <pt x="1576" y="619" on="1"/>
        <pt x="1518" y="336" on="0"/>
        <pt x="1463" y="219" on="1"/>
        <pt x="1469" y="229" on="0"/>
        <pt x="1506" y="294" on="0"/>
        <pt x="1526" y="327" on="0"/>
        <pt x="1567" y="393" on="0"/>
        <pt x="1595" y="432" on="0"/>
        <pt x="1640" y="490" on="0"/>
        <pt x="1675" y="525" on="0"/>
        <pt x="1723" y="566" on="0"/>
        <pt x="1745" y="578" on="1"/>
        <pt x="1796" y="604" on="0"/>
        <pt x="1912" y="604" on="0"/>
        <pt x="1971" y="540" on="0"/>
        <pt x="1971" y="432" on="0"/>
        <pt x="1871" y="177" on="0"/>
        <pt x="1871" y="117" on="0"/>
        <pt x="1887" y="117" on="1"/>
        <pt x="1929" y="117" on="0"/>
        <pt x="2014" y="244" on="1"/>
        <pt x="2057" y="204" on="1"/>
        <pt x="1993" y="94" on="0"/>
        <pt x="1854" y="-16" on="0"/>
        <pt x="1765" y="-16" on="0"/>
        <pt x="1717" y="40" on="0"/>
      </contour>
      <contour>
        <pt x="175" y="436" on="0"/>
        <pt x="96" y="332" on="0"/>
        <pt x="96" y="210" on="0"/>
        <pt x="161" y="120" on="0"/>
        <pt x="212" y="94" on="1"/>
        <pt x="317" y="39" on="0"/>
        <pt x="428" y="39" on="1"/>
        <pt x="610" y="39" on="0"/>
        <pt x="903" y="261" on="0"/>
        <pt x="979" y="436" on="1"/>
        <pt x="1009" y="506" on="0"/>
        <pt x="1077" y="797" on="0"/>
        <pt x="1096" y="852" on="1"/>
        <pt x="1219" y="1221" on="0"/>
        <pt x="1412" y="1344" on="1"/>
        <pt x="1353" y="1354" on="0"/>
        <pt x="1290" y="1354" on="1"/>
        <pt x="1137" y="1354" on="0"/>
        <pt x="862" y="1234" on="0"/>
        <pt x="667" y="1034" on="0"/>
        <pt x="553" y="766" on="0"/>
        <pt x="553" y="623" on="1"/>
        <pt x="692" y="602" on="0"/>
        <pt x="832" y="508" on="1"/>
        <pt x="789" y="442" on="1"/>
        <pt x="734" y="473" on="0"/>
        <pt x="593" y="522" on="0"/>
        <pt x="555" y="522" on="1"/>
        <pt x="555" y="500" on="0"/>
        <pt x="587" y="364" on="0"/>
        <pt x="608" y="307" on="1"/>
        <pt x="549" y="289" on="1"/>
        <pt x="525" y="327" on="0"/>
        <pt x="490" y="480" on="0"/>
        <pt x="485" y="522" on="1"/>
        <pt x="361" y="522" on="0"/>
        <pt x="236" y="464" on="1"/>
      </contour>
      <contour>
        <pt x="1588" y="683" on="1"/>
        <pt x="1752" y="737" on="0"/>
        <pt x="1930" y="915" on="0"/>
        <pt x="1930" y="1013" on="1"/>
        <pt x="1930" y="1156" on="0"/>
        <pt x="1754" y="1251" on="1"/>
        <pt x="1683" y="1122" on="0"/>
        <pt x="1633" y="898" on="1"/>
        <pt x="1616" y="821" on="0"/>
      </contour>
    </TTGlyph>
    <TTGlyph name="Pi" xMin="-17" yMin="-23" xMax="1833" yMax="1442">
      <contour>
        <pt x="46" y="120" on="1"/>
        <pt x="-17" y="191" on="0"/>
        <pt x="-17" y="353" on="0"/>
        <pt x="37" y="470" on="0"/>
        <pt x="126" y="548" on="0"/>
        <pt x="186" y="575" on="1"/>
        <pt x="295" y="625" on="0"/>
        <pt x="435" y="627" on="1"/>
        <pt x="444" y="792" on="0"/>
        <pt x="569" y="1088" on="0"/>
        <pt x="775" y="1311" on="0"/>
        <pt x="1073" y="1442" on="0"/>
        <pt x="1427" y="1442" on="0"/>
        <pt x="1655" y="1270" on="0"/>
        <pt x="1655" y="1017" on="0"/>
        <pt x="1495" y="734" on="0"/>
        <pt x="1238" y="528" on="0"/>
        <pt x="1108" y="510" on="1"/>
        <pt x="1028" y="249" on="0"/>
        <pt x="687" y="-23" on="0"/>
        <pt x="428" y="-23" on="1"/>
        <pt x="174" y="-23" on="0"/>
      </contour>
      <contour>
        <pt x="131" y="436" on="0"/>
        <pt x="52" y="332" on="0"/>
        <pt x="52" y="210" on="0"/>
        <pt x="125" y="119" on="0"/>
        <pt x="182" y="93" on="1"/>
        <pt x="300" y="39" on="0"/>
        <pt x="503" y="39" on="0"/>
        <pt x="637" y="84" on="0"/>
        <pt x="734" y="156" on="0"/>
        <pt x="818" y="269" on="0"/>
        <pt x="872" y="379" on="0"/>
        <pt x="927" y="530" on="0"/>
        <pt x="944" y="589" on="1"/>
        <pt x="991" y="760" on="0"/>
        <pt x="1022" y="852" on="1"/>
        <pt x="1135" y="1190" on="0"/>
        <pt x="1337" y="1319" on="1"/>
        <pt x="1248" y="1352" on="0"/>
        <pt x="1030" y="1352" on="0"/>
        <pt x="785" y="1227" on="0"/>
        <pt x="612" y="1024" on="0"/>
        <pt x="509" y="759" on="0"/>
        <pt x="509" y="623" on="1"/>
        <pt x="648" y="602" on="0"/>
        <pt x="788" y="508" on="1"/>
        <pt x="745" y="442" on="1"/>
        <pt x="605" y="522" on="0"/>
        <pt x="511" y="522" on="1"/>
        <pt x="511" y="500" on="0"/>
        <pt x="543" y="364" on="0"/>
        <pt x="564" y="307" on="1"/>
        <pt x="505" y="289" on="1"/>
        <pt x="481" y="327" on="0"/>
        <pt x="446" y="480" on="0"/>
        <pt x="441" y="522" on="1"/>
        <pt x="317" y="522" on="0"/>
        <pt x="192" y="464" on="1"/>
      </contour>
      <contour>
        <pt x="1411" y="1282" on="1"/>
        <pt x="1298" y="1170" on="0"/>
        <pt x="1152" y="794" on="0"/>
        <pt x="1122" y="569" on="1"/>
        <pt x="1211" y="605" on="0"/>
        <pt x="1396" y="775" on="0"/>
        <pt x="1525" y="996" on="0"/>
        <pt x="1525" y="1090" on="1"/>
        <pt x="1525" y="1216" on="0"/>
      </contour>
      <contour>
        <pt x="1494" y="-16" on="0"/>
        <pt x="1446" y="36" on="0"/>
        <pt x="1446" y="127" on="0"/>
        <pt x="1493" y="284" on="0"/>
        <pt x="1540" y="412" on="0"/>
        <pt x="1540" y="455" on="0"/>
        <pt x="1526" y="455" on="1"/>
        <pt x="1491" y="455" on="0"/>
        <pt x="1413" y="317" on="1"/>
        <pt x="1346" y="356" on="1"/>
        <pt x="1493" y="604" on="0"/>
        <pt x="1616" y="604" on="1"/>
        <pt x="1700" y="604" on="0"/>
        <pt x="1700" y="498" on="1"/>
        <pt x="1700" y="467" on="0"/>
        <pt x="1680" y="399" on="1"/>
        <pt x="1608" y="193" on="1"/>
        <pt x="1597" y="164" on="0"/>
        <pt x="1597" y="117" on="0"/>
        <pt x="1615" y="117" on="1"/>
        <pt x="1649" y="117" on="0"/>
        <pt x="1740" y="243" on="1"/>
        <pt x="1782" y="204" on="1"/>
        <pt x="1728" y="104" on="0"/>
        <pt x="1579" y="-16" on="0"/>
      </contour>
      <contour>
        <pt x="1833" y="809" on="0"/>
        <pt x="1779" y="743" on="0"/>
        <pt x="1687" y="743" on="0"/>
        <pt x="1641" y="798" on="0"/>
        <pt x="1641" y="882" on="0"/>
        <pt x="1698" y="947" on="0"/>
        <pt x="1788" y="947" on="0"/>
        <pt x="1833" y="890" on="0"/>
      </contour>
    </TTGlyph>
    <TTGlyph name="Pl" xMin="-18" yMin="-23" xMax="2065" yMax="1442">
      <contour>
        <pt x="1325" y="-17" on="1"/>
        <pt x="1235" y="-17" on="0"/>
        <pt x="1235" y="226" on="0"/>
        <pt x="1305" y="477" on="1"/>
        <pt x="1241" y="469" on="0"/>
        <pt x="1191" y="469" on="1"/>
        <pt x="1209" y="528" on="1"/>
        <pt x="1240" y="532" on="0"/>
        <pt x="1324" y="545" on="1"/>
        <pt x="1419" y="866" on="0"/>
        <pt x="1554" y="1185" on="1"/>
        <pt x="1717" y="1187" on="1"/>
        <pt x="1610" y="921" on="0"/>
        <pt x="1502" y="584" on="1"/>
        <pt x="1707" y="661" on="0"/>
        <pt x="1922" y="877" on="0"/>
        <pt x="1922" y="1109" on="0"/>
        <pt x="1672" y="1298" on="0"/>
        <pt x="1441" y="1334" on="1"/>
        <pt x="1250" y="1133" on="0"/>
        <pt x="1147" y="569" on="1"/>
        <pt x="1083" y="214" on="0"/>
        <pt x="783" y="65" on="1"/>
        <pt x="605" y="-23" on="0"/>
        <pt x="367" y="-23" on="1"/>
        <pt x="146" y="-23" on="0"/>
        <pt x="36" y="120" on="1"/>
        <pt x="-18" y="191" on="0"/>
        <pt x="-18" y="353" on="0"/>
        <pt x="36" y="470" on="0"/>
        <pt x="125" y="548" on="0"/>
        <pt x="184" y="575" on="1"/>
        <pt x="294" y="625" on="0"/>
        <pt x="434" y="627" on="1"/>
        <pt x="434" y="789" on="0"/>
        <pt x="561" y="1084" on="0"/>
        <pt x="785" y="1309" on="0"/>
        <pt x="1119" y="1442" on="0"/>
        <pt x="1455" y="1442" on="0"/>
        <pt x="1699" y="1398" on="0"/>
        <pt x="1876" y="1320" on="0"/>
        <pt x="1939" y="1267" on="1"/>
        <pt x="2065" y="1161" on="0"/>
        <pt x="2065" y="878" on="0"/>
        <pt x="1768" y="604" on="0"/>
        <pt x="1481" y="516" on="1"/>
        <pt x="1392" y="233" on="0"/>
        <pt x="1392" y="151" on="1"/>
        <pt x="1392" y="116" on="0"/>
        <pt x="1405" y="116" on="1"/>
        <pt x="1446" y="116" on="0"/>
        <pt x="1539" y="243" on="1"/>
        <pt x="1580" y="203" on="1"/>
        <pt x="1513" y="92" on="0"/>
        <pt x="1370" y="-17" on="0"/>
      </contour>
      <contour>
        <pt x="130" y="436" on="0"/>
        <pt x="51" y="332" on="0"/>
        <pt x="51" y="210" on="0"/>
        <pt x="116" y="120" on="0"/>
        <pt x="167" y="94" on="1"/>
        <pt x="272" y="39" on="0"/>
        <pt x="383" y="39" on="1"/>
        <pt x="565" y="39" on="0"/>
        <pt x="858" y="261" on="0"/>
        <pt x="934" y="436" on="1"/>
        <pt x="964" y="506" on="0"/>
        <pt x="1032" y="797" on="0"/>
        <pt x="1051" y="852" on="1"/>
        <pt x="1174" y="1221" on="0"/>
        <pt x="1367" y="1344" on="1"/>
        <pt x="1308" y="1354" on="0"/>
        <pt x="1245" y="1354" on="1"/>
        <pt x="1092" y="1354" on="0"/>
        <pt x="817" y="1234" on="0"/>
        <pt x="622" y="1034" on="0"/>
        <pt x="508" y="766" on="0"/>
        <pt x="508" y="623" on="1"/>
        <pt x="647" y="602" on="0"/>
        <pt x="787" y="508" on="1"/>
        <pt x="744" y="442" on="1"/>
        <pt x="689" y="473" on="0"/>
        <pt x="548" y="522" on="0"/>
        <pt x="510" y="522" on="1"/>
        <pt x="510" y="500" on="0"/>
        <pt x="542" y="364" on="0"/>
        <pt x="563" y="307" on="1"/>
        <pt x="504" y="289" on="1"/>
        <pt x="480" y="327" on="0"/>
        <pt x="445" y="480" on="0"/>
        <pt x="440" y="522" on="1"/>
        <pt x="316" y="522" on="0"/>
        <pt x="192" y="464" on="1"/>
      </contour>
    </TTGlyph>
    <TTGlyph name="Q" xMin="-150" yMin="-412" xMax="1492" yMax="1442">
      <contour>
        <pt x="497" y="530" on="0"/>
        <pt x="362" y="697" on="0"/>
        <pt x="362" y="935" on="0"/>
        <pt x="463" y="1162" on="0"/>
        <pt x="627" y="1335" on="0"/>
        <pt x="851" y="1442" on="0"/>
        <pt x="1073" y="1442" on="0"/>
        <pt x="1261" y="1375" on="0"/>
        <pt x="1406" y="1251" on="0"/>
        <pt x="1492" y="1060" on="0"/>
        <pt x="1492" y="806" on="0"/>
        <pt x="1407" y="532" on="0"/>
        <pt x="1247" y="296" on="0"/>
        <pt x="1140" y="202" on="1"/>
        <pt x="913" y="2" on="0"/>
        <pt x="614" y="-20" on="1"/>
        <pt x="574" y="-80" on="0"/>
        <pt x="499" y="-183" on="1"/>
        <pt x="537" y="-197" on="0"/>
        <pt x="673" y="-248" on="0"/>
        <pt x="708" y="-260" on="1"/>
        <pt x="806" y="-295" on="0"/>
        <pt x="845" y="-295" on="1"/>
        <pt x="942" y="-295" on="0"/>
        <pt x="1040" y="-160" on="1"/>
        <pt x="1083" y="-190" on="1"/>
        <pt x="1075" y="-200" on="0"/>
        <pt x="1032" y="-259" on="0"/>
        <pt x="1001" y="-298" on="0"/>
        <pt x="944" y="-353" on="0"/>
        <pt x="916" y="-370" on="1"/>
        <pt x="849" y="-412" on="0"/>
        <pt x="766" y="-412" on="1"/>
        <pt x="701" y="-412" on="0"/>
        <pt x="464" y="-316" on="1"/>
        <pt x="423" y="-300" on="0"/>
        <pt x="402" y="-292" on="1"/>
        <pt x="337" y="-351" on="0"/>
        <pt x="185" y="-401" on="0"/>
        <pt x="-35" y="-401" on="0"/>
        <pt x="-150" y="-318" on="0"/>
        <pt x="-150" y="-192" on="0"/>
        <pt x="-18" y="-90" on="0"/>
        <pt x="217" y="-90" on="0"/>
        <pt x="420" y="-157" on="1"/>
        <pt x="491" y="-62" on="0"/>
        <pt x="519" y="-22" on="1"/>
        <pt x="279" y="-15" on="0"/>
        <pt x="20" y="242" on="0"/>
        <pt x="20" y="475" on="1"/>
        <pt x="20" y="738" on="0"/>
        <pt x="176" y="962" on="1"/>
        <pt x="255" y="1075" on="0"/>
        <pt x="362" y="1148" on="1"/>
        <pt x="392" y="1111" on="1"/>
        <pt x="304" y="1005" on="0"/>
        <pt x="202" y="687" on="0"/>
        <pt x="202" y="431" on="0"/>
        <pt x="244" y="262" on="0"/>
        <pt x="286" y="194" on="1"/>
        <pt x="378" y="48" on="0"/>
        <pt x="561" y="38" on="1"/>
        <pt x="630" y="138" on="0"/>
        <pt x="684" y="213" on="1"/>
        <pt x="759" y="211" on="1"/>
        <pt x="653" y="41" on="1"/>
        <pt x="784" y="60" on="0"/>
        <pt x="1019" y="240" on="0"/>
        <pt x="1176" y="494" on="0"/>
        <pt x="1267" y="791" on="0"/>
        <pt x="1267" y="1023" on="0"/>
        <pt x="1228" y="1178" on="0"/>
        <pt x="1188" y="1239" on="1"/>
        <pt x="1105" y="1368" on="0"/>
        <pt x="929" y="1368" on="1"/>
        <pt x="797" y="1368" on="0"/>
        <pt x="579" y="1204" on="0"/>
        <pt x="462" y="951" on="0"/>
        <pt x="462" y="703" on="0"/>
        <pt x="546" y="596" on="0"/>
        <pt x="681" y="596" on="0"/>
        <pt x="820" y="683" on="0"/>
        <pt x="918" y="835" on="0"/>
        <pt x="921" y="918" on="1"/>
        <pt x="1017" y="934" on="1"/>
        <pt x="1017" y="830" on="0"/>
        <pt x="908" y="643" on="0"/>
        <pt x="723" y="530" on="0"/>
      </contour>
      <contour>
        <pt x="-78" y="-286" on="0"/>
        <pt x="11" y="-336" on="0"/>
        <pt x="168" y="-336" on="0"/>
        <pt x="275" y="-303" on="0"/>
        <pt x="324" y="-261" on="1"/>
        <pt x="129" y="-188" on="0"/>
        <pt x="-16" y="-188" on="0"/>
        <pt x="-78" y="-226" on="0"/>
      </contour>
    </TTGlyph>
    <TTGlyph name="Qu" xMin="-164" yMin="-391" xMax="2273" yMax="1442">
      <contour>
        <pt x="497" y="530" on="0"/>
        <pt x="362" y="697" on="0"/>
        <pt x="362" y="935" on="0"/>
        <pt x="463" y="1162" on="0"/>
        <pt x="627" y="1335" on="0"/>
        <pt x="851" y="1442" on="0"/>
        <pt x="1073" y="1442" on="0"/>
        <pt x="1261" y="1375" on="0"/>
        <pt x="1406" y="1251" on="0"/>
        <pt x="1492" y="1060" on="0"/>
        <pt x="1492" y="768" on="0"/>
        <pt x="1352" y="425" on="0"/>
        <pt x="1113" y="158" on="0"/>
        <pt x="772" y="-14" on="0"/>
        <pt x="583" y="-22" on="1"/>
        <pt x="523" y="-111" on="1"/>
        <pt x="674" y="-134" on="0"/>
        <pt x="1121" y="-220" on="0"/>
        <pt x="1429" y="-274" on="0"/>
        <pt x="1507" y="-274" on="1"/>
        <pt x="1710" y="-274" on="0"/>
        <pt x="1927" y="-139" on="1"/>
        <pt x="1970" y="-170" on="1"/>
        <pt x="1953" y="-182" on="0"/>
        <pt x="1862" y="-254" on="0"/>
        <pt x="1787" y="-303" on="0"/>
        <pt x="1728" y="-332" on="1"/>
        <pt x="1606" y="-391" on="0"/>
        <pt x="1427" y="-391" on="1"/>
        <pt x="1293" y="-391" on="0"/>
        <pt x="575" y="-238" on="0"/>
        <pt x="444" y="-215" on="1"/>
        <pt x="365" y="-307" on="0"/>
        <pt x="194" y="-381" on="0"/>
        <pt x="-49" y="-381" on="0"/>
        <pt x="-164" y="-297" on="0"/>
        <pt x="-164" y="-172" on="0"/>
        <pt x="-32" y="-70" on="0"/>
        <pt x="226" y="-70" on="0"/>
        <pt x="435" y="-98" on="1"/>
        <pt x="487" y="-21" on="1"/>
        <pt x="262" y="-6" on="0"/>
        <pt x="20" y="250" on="0"/>
        <pt x="20" y="475" on="1"/>
        <pt x="20" y="738" on="0"/>
        <pt x="176" y="962" on="1"/>
        <pt x="255" y="1075" on="0"/>
        <pt x="362" y="1148" on="1"/>
        <pt x="392" y="1111" on="1"/>
        <pt x="304" y="1005" on="0"/>
        <pt x="202" y="687" on="0"/>
        <pt x="202" y="403" on="0"/>
        <pt x="268" y="199" on="0"/>
        <pt x="420" y="55" on="0"/>
        <pt x="530" y="41" on="1"/>
        <pt x="669" y="233" on="1"/>
        <pt x="745" y="231" on="1"/>
        <pt x="716" y="187" on="0"/>
        <pt x="623" y="38" on="1"/>
        <pt x="733" y="46" on="0"/>
        <pt x="938" y="164" on="0"/>
        <pt x="1092" y="347" on="0"/>
        <pt x="1150" y="460" on="1"/>
        <pt x="1267" y="691" on="0"/>
        <pt x="1267" y="930" on="1"/>
        <pt x="1267" y="1118" on="0"/>
        <pt x="1188" y="1239" on="1"/>
        <pt x="1105" y="1368" on="0"/>
        <pt x="929" y="1368" on="1"/>
        <pt x="797" y="1368" on="0"/>
        <pt x="579" y="1204" on="0"/>
        <pt x="462" y="951" on="0"/>
        <pt x="462" y="703" on="0"/>
        <pt x="546" y="596" on="0"/>
        <pt x="681" y="596" on="0"/>
        <pt x="820" y="683" on="0"/>
        <pt x="918" y="835" on="0"/>
        <pt x="921" y="918" on="1"/>
        <pt x="1017" y="934" on="1"/>
        <pt x="1017" y="830" on="0"/>
        <pt x="908" y="643" on="0"/>
        <pt x="723" y="530" on="0"/>
      </contour>
      <contour>
        <pt x="-93" y="-265" on="0"/>
        <pt x="-4" y="-315" on="0"/>
        <pt x="169" y="-315" on="0"/>
        <pt x="290" y="-266" on="0"/>
        <pt x="352" y="-200" on="1"/>
        <pt x="148" y="-168" on="0"/>
        <pt x="58" y="-168" on="1"/>
        <pt x="-93" y="-168" on="0"/>
        <pt x="-93" y="-233" on="1"/>
      </contour>
      <contour>
        <pt x="2220" y="582" on="1"/>
        <pt x="2086" y="225" on="0"/>
        <pt x="2086" y="149" on="1"/>
        <pt x="2086" y="117" on="0"/>
        <pt x="2102" y="117" on="1"/>
        <pt x="2146" y="117" on="0"/>
        <pt x="2230" y="245" on="1"/>
        <pt x="2273" y="204" on="1"/>
        <pt x="2220" y="109" on="0"/>
        <pt x="2075" y="-16" on="0"/>
        <pt x="2030" y="-16" on="1"/>
        <pt x="1937" y="-16" on="0"/>
        <pt x="1937" y="78" on="1"/>
        <pt x="1937" y="151" on="0"/>
        <pt x="2005" y="361" on="0"/>
        <pt x="2005" y="362" on="1"/>
        <pt x="2000" y="353" on="0"/>
        <pt x="1962" y="288" on="0"/>
        <pt x="1944" y="256" on="0"/>
        <pt x="1903" y="191" on="0"/>
        <pt x="1876" y="154" on="0"/>
        <pt x="1831" y="96" on="0"/>
        <pt x="1796" y="62" on="0"/>
        <pt x="1748" y="21" on="0"/>
        <pt x="1726" y="10" on="1"/>
        <pt x="1676" y="-16" on="0"/>
        <pt x="1628" y="-16" on="1"/>
        <pt x="1509" y="-16" on="0"/>
        <pt x="1509" y="115" on="1"/>
        <pt x="1509" y="175" on="0"/>
        <pt x="1595" y="428" on="0"/>
        <pt x="1595" y="473" on="0"/>
        <pt x="1581" y="473" on="1"/>
        <pt x="1541" y="473" on="0"/>
        <pt x="1470" y="346" on="1"/>
        <pt x="1405" y="385" on="1"/>
        <pt x="1542" y="604" on="0"/>
        <pt x="1669" y="604" on="1"/>
        <pt x="1711" y="604" on="0"/>
        <pt x="1761" y="557" on="0"/>
        <pt x="1758" y="460" on="0"/>
        <pt x="1663" y="211" on="0"/>
        <pt x="1663" y="145" on="1"/>
        <pt x="1663" y="109" on="0"/>
        <pt x="1696" y="109" on="1"/>
        <pt x="1734" y="109" on="0"/>
        <pt x="1839" y="206" on="0"/>
        <pt x="1888" y="276" on="1"/>
        <pt x="1966" y="386" on="0"/>
        <pt x="2050" y="534" on="1"/>
        <pt x="2077" y="582" on="1"/>
      </contour>
    </TTGlyph>
    <TTGlyph name="R" xMin="-1" yMin="-34" xMax="1815" yMax="1442">
      <contour>
        <pt x="1752" y="213" on="1"/>
        <pt x="1815" y="182" on="1"/>
        <pt x="1785" y="104" on="0"/>
        <pt x="1740" y="56" on="1"/>
        <pt x="1660" y="-29" on="0"/>
        <pt x="1559" y="-29" on="1"/>
        <pt x="1466" y="-29" on="0"/>
        <pt x="1396" y="86" on="1"/>
        <pt x="1342" y="175" on="0"/>
        <pt x="1270" y="382" on="0"/>
        <pt x="1250" y="432" on="1"/>
        <pt x="1205" y="547" on="0"/>
        <pt x="1162" y="547" on="1"/>
        <pt x="1066" y="255" on="0"/>
        <pt x="689" y="-34" on="0"/>
        <pt x="423" y="-34" on="1"/>
        <pt x="263" y="-34" on="0"/>
        <pt x="138" y="36" on="1"/>
        <pt x="75" y="70" on="0"/>
        <pt x="-1" y="187" on="0"/>
        <pt x="-1" y="347" on="0"/>
        <pt x="81" y="487" on="0"/>
        <pt x="148" y="530" on="1"/>
        <pt x="286" y="621" on="0"/>
        <pt x="459" y="621" on="1"/>
        <pt x="465" y="886" on="0"/>
        <pt x="638" y="1100" on="1"/>
        <pt x="813" y="1318" on="0"/>
        <pt x="1055" y="1400" on="1"/>
        <pt x="1181" y="1442" on="0"/>
        <pt x="1391" y="1442" on="0"/>
        <pt x="1543" y="1401" on="0"/>
        <pt x="1673" y="1321" on="0"/>
        <pt x="1752" y="1183" on="0"/>
        <pt x="1752" y="1006" on="0"/>
        <pt x="1685" y="843" on="0"/>
        <pt x="1625" y="778" on="1"/>
        <pt x="1513" y="656" on="0"/>
        <pt x="1340" y="569" on="1"/>
        <pt x="1408" y="513" on="0"/>
        <pt x="1488" y="298" on="1"/>
        <pt x="1517" y="222" on="0"/>
        <pt x="1595" y="102" on="0"/>
        <pt x="1635" y="102" on="1"/>
        <pt x="1674" y="102" on="0"/>
        <pt x="1700" y="136" on="1"/>
        <pt x="1733" y="179" on="0"/>
      </contour>
      <contour>
        <pt x="572" y="313" on="1"/>
        <pt x="511" y="299" on="1"/>
        <pt x="487" y="346" on="0"/>
        <pt x="466" y="468" on="1"/>
        <pt x="459" y="508" on="1"/>
        <pt x="293" y="508" on="0"/>
        <pt x="164" y="430" on="1"/>
        <pt x="121" y="403" on="0"/>
        <pt x="64" y="317" on="0"/>
        <pt x="64" y="205" on="0"/>
        <pt x="126" y="112" on="0"/>
        <pt x="178" y="86" on="1"/>
        <pt x="280" y="33" on="0"/>
        <pt x="405" y="33" on="1"/>
        <pt x="619" y="33" on="0"/>
        <pt x="879" y="261" on="0"/>
        <pt x="951" y="473" on="1"/>
        <pt x="966" y="517" on="0"/>
        <pt x="1015" y="670" on="0"/>
        <pt x="1045" y="761" on="0"/>
        <pt x="1097" y="898" on="0"/>
        <pt x="1141" y="990" on="0"/>
        <pt x="1210" y="1106" on="0"/>
        <pt x="1247" y="1150" on="1"/>
        <pt x="1336" y="1254" on="0"/>
        <pt x="1443" y="1321" on="1"/>
        <pt x="1419" y="1335" on="0"/>
        <pt x="1291" y="1358" on="0"/>
        <pt x="1221" y="1358" on="1"/>
        <pt x="1102" y="1358" on="0"/>
        <pt x="849" y="1230" on="0"/>
        <pt x="649" y="1026" on="0"/>
        <pt x="518" y="752" on="0"/>
        <pt x="517" y="616" on="1"/>
        <pt x="737" y="585" on="0"/>
        <pt x="863" y="424" on="1"/>
        <pt x="830" y="389" on="1"/>
        <pt x="824" y="392" on="0"/>
        <pt x="770" y="429" on="0"/>
        <pt x="719" y="457" on="0"/>
        <pt x="683" y="474" on="1"/>
        <pt x="607" y="510" on="0"/>
        <pt x="517" y="510" on="1"/>
        <pt x="522" y="445" on="0"/>
        <pt x="571" y="316" on="0"/>
      </contour>
      <contour>
        <pt x="1166" y="567" on="1"/>
        <pt x="1345" y="623" on="0"/>
        <pt x="1580" y="885" on="0"/>
        <pt x="1580" y="1063" on="1"/>
        <pt x="1580" y="1124" on="0"/>
        <pt x="1532" y="1249" on="0"/>
        <pt x="1490" y="1284" on="1"/>
        <pt x="1379" y="1205" on="0"/>
        <pt x="1325" y="1104" on="1"/>
        <pt x="1294" y="1046" on="0"/>
        <pt x="1256" y="967" on="0"/>
        <pt x="1236" y="888" on="1"/>
        <pt x="1211" y="791" on="0"/>
        <pt x="1171" y="592" on="0"/>
      </contour>
    </TTGlyph>
    <TTGlyph name="Racute" xMin="-1" yMin="-34" xMax="1815" yMax="1809">
      <component glyphName="R" x="0" y="0" flags="0x1004"/>
      <component glyphName="acute" x="1205" y="836" flags="0x1004"/>
    </TTGlyph>
    <TTGlyph name="Rcaron" xMin="-1" yMin="-34" xMax="1815" yMax="1809">
      <contour>
        <pt x="1752" y="213" on="1"/>
        <pt x="1815" y="182" on="1"/>
        <pt x="1785" y="104" on="0"/>
        <pt x="1740" y="56" on="1"/>
        <pt x="1660" y="-29" on="0"/>
        <pt x="1559" y="-29" on="1"/>
        <pt x="1466" y="-29" on="0"/>
        <pt x="1396" y="86" on="1"/>
        <pt x="1342" y="175" on="0"/>
        <pt x="1270" y="382" on="0"/>
        <pt x="1250" y="432" on="1"/>
        <pt x="1205" y="547" on="0"/>
        <pt x="1162" y="547" on="1"/>
        <pt x="1066" y="255" on="0"/>
        <pt x="689" y="-34" on="0"/>
        <pt x="423" y="-34" on="1"/>
        <pt x="263" y="-34" on="0"/>
        <pt x="138" y="36" on="1"/>
        <pt x="75" y="70" on="0"/>
        <pt x="-1" y="187" on="0"/>
        <pt x="-1" y="347" on="0"/>
        <pt x="81" y="487" on="0"/>
        <pt x="148" y="530" on="1"/>
        <pt x="286" y="621" on="0"/>
        <pt x="459" y="621" on="1"/>
        <pt x="465" y="886" on="0"/>
        <pt x="638" y="1100" on="1"/>
        <pt x="813" y="1318" on="0"/>
        <pt x="1055" y="1400" on="1"/>
        <pt x="1181" y="1442" on="0"/>
        <pt x="1391" y="1442" on="0"/>
        <pt x="1543" y="1401" on="0"/>
        <pt x="1673" y="1321" on="0"/>
        <pt x="1752" y="1183" on="0"/>
        <pt x="1752" y="1006" on="0"/>
        <pt x="1685" y="843" on="0"/>
        <pt x="1625" y="778" on="1"/>
        <pt x="1513" y="656" on="0"/>
        <pt x="1340" y="569" on="1"/>
        <pt x="1408" y="513" on="0"/>
        <pt x="1488" y="298" on="1"/>
        <pt x="1517" y="222" on="0"/>
        <pt x="1595" y="102" on="0"/>
        <pt x="1635" y="102" on="1"/>
        <pt x="1674" y="102" on="0"/>
        <pt x="1700" y="136" on="1"/>
        <pt x="1733" y="179" on="0"/>
      </contour>
      <contour>
        <pt x="572" y="313" on="1"/>
        <pt x="511" y="299" on="1"/>
        <pt x="487" y="346" on="0"/>
        <pt x="466" y="468" on="1"/>
        <pt x="459" y="508" on="1"/>
        <pt x="293" y="508" on="0"/>
        <pt x="164" y="430" on="1"/>
        <pt x="121" y="403" on="0"/>
        <pt x="64" y="317" on="0"/>
        <pt x="64" y="205" on="0"/>
        <pt x="126" y="112" on="0"/>
        <pt x="178" y="86" on="1"/>
        <pt x="280" y="33" on="0"/>
        <pt x="405" y="33" on="1"/>
        <pt x="619" y="33" on="0"/>
        <pt x="879" y="261" on="0"/>
        <pt x="951" y="473" on="1"/>
        <pt x="966" y="517" on="0"/>
        <pt x="1015" y="670" on="0"/>
        <pt x="1045" y="761" on="0"/>
        <pt x="1097" y="898" on="0"/>
        <pt x="1141" y="990" on="0"/>
        <pt x="1210" y="1106" on="0"/>
        <pt x="1247" y="1150" on="1"/>
        <pt x="1336" y="1254" on="0"/>
        <pt x="1443" y="1321" on="1"/>
        <pt x="1419" y="1335" on="0"/>
        <pt x="1291" y="1358" on="0"/>
        <pt x="1221" y="1358" on="1"/>
        <pt x="1102" y="1358" on="0"/>
        <pt x="849" y="1230" on="0"/>
        <pt x="649" y="1026" on="0"/>
        <pt x="518" y="752" on="0"/>
        <pt x="517" y="616" on="1"/>
        <pt x="737" y="585" on="0"/>
        <pt x="863" y="424" on="1"/>
        <pt x="830" y="389" on="1"/>
        <pt x="824" y="392" on="0"/>
        <pt x="770" y="429" on="0"/>
        <pt x="719" y="457" on="0"/>
        <pt x="683" y="474" on="1"/>
        <pt x="607" y="510" on="0"/>
        <pt x="517" y="510" on="1"/>
        <pt x="522" y="445" on="0"/>
        <pt x="571" y="316" on="0"/>
      </contour>
      <contour>
        <pt x="1166" y="567" on="1"/>
        <pt x="1345" y="623" on="0"/>
        <pt x="1580" y="885" on="0"/>
        <pt x="1580" y="1063" on="1"/>
        <pt x="1580" y="1124" on="0"/>
        <pt x="1532" y="1249" on="0"/>
        <pt x="1490" y="1284" on="1"/>
        <pt x="1379" y="1205" on="0"/>
        <pt x="1325" y="1104" on="1"/>
        <pt x="1294" y="1046" on="0"/>
        <pt x="1256" y="967" on="0"/>
        <pt x="1236" y="888" on="1"/>
        <pt x="1211" y="791" on="0"/>
        <pt x="1171" y="592" on="0"/>
      </contour>
      <contour>
        <pt x="1384" y="1508" on="1"/>
        <pt x="1331" y="1508" on="1"/>
        <pt x="1131" y="1809" on="1"/>
        <pt x="1301" y="1809" on="1"/>
        <pt x="1365" y="1548" on="1"/>
        <pt x="1540" y="1809" on="1"/>
        <pt x="1710" y="1809" on="1"/>
      </contour>
    </TTGlyph>
    <TTGlyph name="Rcommaaccent" xMin="-1" yMin="-449" xMax="1815" yMax="1442">
      <contour>
        <pt x="1752" y="213" on="1"/>
        <pt x="1815" y="182" on="1"/>
        <pt x="1785" y="104" on="0"/>
        <pt x="1740" y="56" on="1"/>
        <pt x="1660" y="-29" on="0"/>
        <pt x="1559" y="-29" on="1"/>
        <pt x="1466" y="-29" on="0"/>
        <pt x="1396" y="86" on="1"/>
        <pt x="1342" y="175" on="0"/>
        <pt x="1270" y="382" on="0"/>
        <pt x="1250" y="432" on="1"/>
        <pt x="1205" y="547" on="0"/>
        <pt x="1162" y="547" on="1"/>
        <pt x="1066" y="255" on="0"/>
        <pt x="689" y="-34" on="0"/>
        <pt x="423" y="-34" on="1"/>
        <pt x="263" y="-34" on="0"/>
        <pt x="138" y="36" on="1"/>
        <pt x="75" y="70" on="0"/>
        <pt x="-1" y="187" on="0"/>
        <pt x="-1" y="347" on="0"/>
        <pt x="81" y="487" on="0"/>
        <pt x="148" y="530" on="1"/>
        <pt x="286" y="621" on="0"/>
        <pt x="459" y="621" on="1"/>
        <pt x="465" y="886" on="0"/>
        <pt x="638" y="1100" on="1"/>
        <pt x="813" y="1318" on="0"/>
        <pt x="1055" y="1400" on="1"/>
        <pt x="1181" y="1442" on="0"/>
        <pt x="1391" y="1442" on="0"/>
        <pt x="1543" y="1401" on="0"/>
        <pt x="1673" y="1321" on="0"/>
        <pt x="1752" y="1183" on="0"/>
        <pt x="1752" y="1006" on="0"/>
        <pt x="1685" y="843" on="0"/>
        <pt x="1625" y="778" on="1"/>
        <pt x="1513" y="656" on="0"/>
        <pt x="1340" y="569" on="1"/>
        <pt x="1408" y="513" on="0"/>
        <pt x="1488" y="298" on="1"/>
        <pt x="1517" y="222" on="0"/>
        <pt x="1595" y="102" on="0"/>
        <pt x="1635" y="102" on="1"/>
        <pt x="1674" y="102" on="0"/>
        <pt x="1700" y="136" on="1"/>
        <pt x="1733" y="179" on="0"/>
      </contour>
      <contour>
        <pt x="572" y="313" on="1"/>
        <pt x="511" y="299" on="1"/>
        <pt x="487" y="346" on="0"/>
        <pt x="466" y="468" on="1"/>
        <pt x="459" y="508" on="1"/>
        <pt x="293" y="508" on="0"/>
        <pt x="164" y="430" on="1"/>
        <pt x="121" y="403" on="0"/>
        <pt x="64" y="317" on="0"/>
        <pt x="64" y="205" on="0"/>
        <pt x="126" y="112" on="0"/>
        <pt x="178" y="86" on="1"/>
        <pt x="280" y="33" on="0"/>
        <pt x="405" y="33" on="1"/>
        <pt x="619" y="33" on="0"/>
        <pt x="879" y="261" on="0"/>
        <pt x="951" y="473" on="1"/>
        <pt x="966" y="517" on="0"/>
        <pt x="1015" y="670" on="0"/>
        <pt x="1045" y="761" on="0"/>
        <pt x="1097" y="898" on="0"/>
        <pt x="1141" y="990" on="0"/>
        <pt x="1210" y="1106" on="0"/>
        <pt x="1247" y="1150" on="1"/>
        <pt x="1336" y="1254" on="0"/>
        <pt x="1443" y="1321" on="1"/>
        <pt x="1419" y="1335" on="0"/>
        <pt x="1291" y="1358" on="0"/>
        <pt x="1221" y="1358" on="1"/>
        <pt x="1102" y="1358" on="0"/>
        <pt x="849" y="1230" on="0"/>
        <pt x="649" y="1026" on="0"/>
        <pt x="518" y="752" on="0"/>
        <pt x="517" y="616" on="1"/>
        <pt x="737" y="585" on="0"/>
        <pt x="863" y="424" on="1"/>
        <pt x="830" y="389" on="1"/>
        <pt x="824" y="392" on="0"/>
        <pt x="770" y="429" on="0"/>
        <pt x="719" y="457" on="0"/>
        <pt x="683" y="474" on="1"/>
        <pt x="607" y="510" on="0"/>
        <pt x="517" y="510" on="1"/>
        <pt x="522" y="445" on="0"/>
        <pt x="571" y="316" on="0"/>
      </contour>
      <contour>
        <pt x="1166" y="567" on="1"/>
        <pt x="1345" y="623" on="0"/>
        <pt x="1580" y="885" on="0"/>
        <pt x="1580" y="1063" on="1"/>
        <pt x="1580" y="1124" on="0"/>
        <pt x="1532" y="1249" on="0"/>
        <pt x="1490" y="1284" on="1"/>
        <pt x="1379" y="1205" on="0"/>
        <pt x="1325" y="1104" on="1"/>
        <pt x="1294" y="1046" on="0"/>
        <pt x="1256" y="967" on="0"/>
        <pt x="1236" y="888" on="1"/>
        <pt x="1211" y="791" on="0"/>
        <pt x="1171" y="592" on="0"/>
      </contour>
      <contour>
        <pt x="842" y="-449" on="1"/>
        <pt x="810" y="-449" on="1"/>
        <pt x="865" y="-220" on="0"/>
        <pt x="879" y="-128" on="1"/>
        <pt x="1049" y="-73" on="1"/>
        <pt x="1049" y="-120" on="0"/>
        <pt x="891" y="-396" on="0"/>
      </contour>
    </TTGlyph>
    <TTGlyph name="S" xMin="-20" yMin="-33" xMax="1432" yMax="1442">
      <contour>
        <pt x="809" y="4" on="0"/>
        <pt x="608" y="-33" on="0"/>
        <pt x="429" y="-33" on="0"/>
        <pt x="286" y="-14" on="0"/>
        <pt x="145" y="33" on="0"/>
        <pt x="94" y="70" on="1"/>
        <pt x="-20" y="151" on="0"/>
        <pt x="-20" y="299" on="1"/>
        <pt x="-20" y="387" on="0"/>
        <pt x="62" y="540" on="0"/>
        <pt x="128" y="590" on="1"/>
        <pt x="268" y="698" on="0"/>
        <pt x="434" y="698" on="1"/>
        <pt x="633" y="698" on="0"/>
        <pt x="730" y="581" on="1"/>
        <pt x="778" y="522" on="0"/>
        <pt x="778" y="354" on="0"/>
        <pt x="619" y="231" on="0"/>
        <pt x="531" y="231" on="1"/>
        <pt x="510" y="231" on="0"/>
        <pt x="510" y="274" on="0"/>
        <pt x="550" y="293" on="0"/>
        <pt x="606" y="310" on="0"/>
        <pt x="634" y="322" on="1"/>
        <pt x="703" y="353" on="0"/>
        <pt x="703" y="492" on="0"/>
        <pt x="576" y="563" on="0"/>
        <pt x="262" y="563" on="0"/>
        <pt x="90" y="404" on="0"/>
        <pt x="90" y="294" on="1"/>
        <pt x="90" y="149" on="0"/>
        <pt x="219" y="88" on="1"/>
        <pt x="334" y="33" on="0"/>
        <pt x="494" y="33" on="1"/>
        <pt x="769" y="33" on="0"/>
        <pt x="939" y="190" on="1"/>
        <pt x="1059" y="300" on="0"/>
        <pt x="1059" y="467" on="1"/>
        <pt x="1059" y="567" on="0"/>
        <pt x="988" y="661" on="1"/>
        <pt x="957" y="703" on="0"/>
        <pt x="881" y="785" on="0"/>
        <pt x="805" y="867" on="0"/>
        <pt x="774" y="908" on="1"/>
        <pt x="703" y="998" on="0"/>
        <pt x="703" y="1154" on="0"/>
        <pt x="754" y="1267" on="0"/>
        <pt x="839" y="1350" on="0"/>
        <pt x="894" y="1380" on="1"/>
        <pt x="1005" y="1442" on="0"/>
        <pt x="1129" y="1442" on="1"/>
        <pt x="1237" y="1442" on="0"/>
        <pt x="1330" y="1390" on="1"/>
        <pt x="1432" y="1334" on="0"/>
        <pt x="1432" y="1219" on="1"/>
        <pt x="1432" y="1174" on="0"/>
        <pt x="1368" y="1106" on="0"/>
        <pt x="1288" y="1106" on="0"/>
        <pt x="1237" y="1152" on="0"/>
        <pt x="1237" y="1209" on="0"/>
        <pt x="1286" y="1274" on="0"/>
        <pt x="1286" y="1317" on="0"/>
        <pt x="1250" y="1353" on="0"/>
        <pt x="1222" y="1362" on="1"/>
        <pt x="1166" y="1379" on="0"/>
        <pt x="1120" y="1379" on="1"/>
        <pt x="1014" y="1379" on="0"/>
        <pt x="862" y="1253" on="0"/>
        <pt x="862" y="1141" on="1"/>
        <pt x="862" y="1080" on="0"/>
        <pt x="938" y="998" on="1"/>
        <pt x="972" y="962" on="0"/>
        <pt x="1053" y="881" on="0"/>
        <pt x="1135" y="789" on="0"/>
        <pt x="1169" y="740" on="1"/>
        <pt x="1245" y="632" on="0"/>
        <pt x="1245" y="400" on="0"/>
        <pt x="1153" y="212" on="0"/>
        <pt x="1004" y="89" on="0"/>
      </contour>
    </TTGlyph>
    <TTGlyph name="Scaron" xMin="-20" yMin="-33" xMax="1521" yMax="1833">
      <component glyphName="S" x="0" y="0" flags="0x1004"/>
      <component glyphName="caron" x="775" y="860" flags="0x1004"/>
    </TTGlyph>
    <TTGlyph name="T" xMin="-33" yMin="-27" xMax="1769" yMax="1442">
      <contour>
        <pt x="700" y="406" on="1"/>
        <pt x="553" y="483" on="0"/>
        <pt x="287" y="483" on="0"/>
        <pt x="121" y="346" on="0"/>
        <pt x="121" y="162" on="0"/>
        <pt x="284" y="31" on="0"/>
        <pt x="549" y="31" on="0"/>
        <pt x="732" y="93" on="0"/>
        <pt x="853" y="204" on="0"/>
        <pt x="942" y="350" on="0"/>
        <pt x="1001" y="524" on="0"/>
        <pt x="1049" y="705" on="0"/>
        <pt x="1100" y="894" on="0"/>
        <pt x="1129" y="978" on="1"/>
        <pt x="1194" y="1167" on="0"/>
        <pt x="1315" y="1272" on="1"/>
        <pt x="1123" y="1321" on="0"/>
        <pt x="911" y="1321" on="1"/>
        <pt x="791" y="1321" on="0"/>
        <pt x="579" y="1190" on="0"/>
        <pt x="452" y="968" on="0"/>
        <pt x="452" y="700" on="0"/>
        <pt x="603" y="516" on="0"/>
        <pt x="743" y="446" on="1"/>
        <pt x="729" y="395" on="1"/>
      </contour>
      <contour>
        <pt x="57" y="65" on="0"/>
        <pt x="-33" y="180" on="0"/>
        <pt x="-33" y="329" on="0"/>
        <pt x="41" y="447" on="0"/>
        <pt x="100" y="481" on="1"/>
        <pt x="223" y="551" on="0"/>
        <pt x="368" y="551" on="1"/>
        <pt x="443" y="551" on="0"/>
        <pt x="506" y="530" on="1"/>
        <pt x="370" y="701" on="0"/>
        <pt x="370" y="844" on="1"/>
        <pt x="370" y="1051" on="0"/>
        <pt x="515" y="1207" on="1"/>
        <pt x="656" y="1358" on="0"/>
        <pt x="848" y="1414" on="1"/>
        <pt x="945" y="1442" on="0"/>
        <pt x="1131" y="1442" on="0"/>
        <pt x="1483" y="1362" on="0"/>
        <pt x="1597" y="1362" on="0"/>
        <pt x="1620" y="1375" on="1"/>
        <pt x="1651" y="1392" on="0"/>
        <pt x="1693" y="1440" on="1"/>
        <pt x="1769" y="1440" on="1"/>
        <pt x="1756" y="1386" on="0"/>
        <pt x="1676" y="1308" on="0"/>
        <pt x="1624" y="1290" on="1"/>
        <pt x="1527" y="1257" on="0"/>
        <pt x="1440" y="1257" on="1"/>
        <pt x="1315" y="1257" on="0"/>
        <pt x="1272" y="957" on="1"/>
        <pt x="1261" y="878" on="0"/>
        <pt x="1239" y="586" on="0"/>
        <pt x="1160" y="360" on="0"/>
        <pt x="1037" y="200" on="0"/>
        <pt x="882" y="79" on="0"/>
        <pt x="791" y="43" on="1"/>
        <pt x="614" y="-27" on="0"/>
        <pt x="416" y="-27" on="1"/>
        <pt x="266" y="-27" on="0"/>
        <pt x="128" y="34" on="1"/>
      </contour>
    </TTGlyph>
    <TTGlyph name="Th" xMin="-33" yMin="-27" xMax="2085" yMax="1442">
      <contour>
        <pt x="1326" y="1166" on="1"/>
        <pt x="1307" y="1118" on="0"/>
        <pt x="1270" y="998" on="0"/>
        <pt x="1249" y="721" on="1"/>
        <pt x="1237" y="560" on="0"/>
        <pt x="1127" y="301" on="0"/>
        <pt x="966" y="133" on="0"/>
        <pt x="860" y="77" on="1"/>
        <pt x="663" y="-27" on="0"/>
        <pt x="416" y="-27" on="1"/>
        <pt x="266" y="-27" on="0"/>
        <pt x="128" y="34" on="1"/>
        <pt x="57" y="65" on="0"/>
        <pt x="-33" y="180" on="0"/>
        <pt x="-33" y="329" on="0"/>
        <pt x="41" y="447" on="0"/>
        <pt x="100" y="481" on="1"/>
        <pt x="223" y="551" on="0"/>
        <pt x="368" y="551" on="1"/>
        <pt x="443" y="551" on="0"/>
        <pt x="506" y="530" on="1"/>
        <pt x="370" y="701" on="0"/>
        <pt x="370" y="844" on="1"/>
        <pt x="370" y="1051" on="0"/>
        <pt x="515" y="1207" on="1"/>
        <pt x="656" y="1358" on="0"/>
        <pt x="848" y="1414" on="1"/>
        <pt x="945" y="1442" on="0"/>
        <pt x="1131" y="1442" on="0"/>
        <pt x="1483" y="1362" on="0"/>
        <pt x="1741" y="1362" on="0"/>
        <pt x="1933" y="1410" on="1"/>
        <pt x="2009" y="1410" on="1"/>
        <pt x="1978" y="1344" on="0"/>
        <pt x="1847" y="1305" on="1"/>
        <pt x="1751" y="1199" on="0"/>
        <pt x="1594" y="688" on="0"/>
        <pt x="1491" y="219" on="1"/>
        <pt x="1497" y="229" on="0"/>
        <pt x="1534" y="294" on="0"/>
        <pt x="1554" y="327" on="0"/>
        <pt x="1595" y="393" on="0"/>
        <pt x="1623" y="432" on="0"/>
        <pt x="1668" y="490" on="0"/>
        <pt x="1703" y="525" on="0"/>
        <pt x="1751" y="566" on="0"/>
        <pt x="1773" y="578" on="1"/>
        <pt x="1824" y="604" on="0"/>
        <pt x="1940" y="604" on="0"/>
        <pt x="1999" y="540" on="0"/>
        <pt x="1999" y="432" on="0"/>
        <pt x="1899" y="177" on="0"/>
        <pt x="1899" y="117" on="0"/>
        <pt x="1915" y="117" on="1"/>
        <pt x="1957" y="117" on="0"/>
        <pt x="2042" y="244" on="1"/>
        <pt x="2085" y="204" on="1"/>
        <pt x="2021" y="94" on="0"/>
        <pt x="1882" y="-16" on="0"/>
        <pt x="1793" y="-16" on="0"/>
        <pt x="1745" y="40" on="0"/>
        <pt x="1745" y="144" on="0"/>
        <pt x="1829" y="374" on="0"/>
        <pt x="1829" y="473" on="0"/>
        <pt x="1760" y="473" on="0"/>
        <pt x="1662" y="376" on="0"/>
        <pt x="1617" y="306" on="1"/>
        <pt x="1543" y="193" on="0"/>
        <pt x="1468" y="48" on="1"/>
        <pt x="1442" y="0" on="1"/>
        <pt x="1298" y="0" on="1"/>
        <pt x="1355" y="425" on="0"/>
        <pt x="1446" y="757" on="0"/>
        <pt x="1486" y="878" on="1"/>
        <pt x="1571" y="1129" on="0"/>
        <pt x="1703" y="1275" on="1"/>
        <pt x="1578" y="1257" on="0"/>
        <pt x="1440" y="1257" on="1"/>
        <pt x="1363" y="1257" on="0"/>
      </contour>
      <contour>
        <pt x="700" y="406" on="1"/>
        <pt x="553" y="483" on="0"/>
        <pt x="287" y="483" on="0"/>
        <pt x="121" y="346" on="0"/>
        <pt x="121" y="162" on="0"/>
        <pt x="284" y="31" on="0"/>
        <pt x="549" y="31" on="0"/>
        <pt x="732" y="93" on="0"/>
        <pt x="853" y="204" on="0"/>
        <pt x="942" y="350" on="0"/>
        <pt x="1001" y="524" on="0"/>
        <pt x="1049" y="705" on="0"/>
        <pt x="1100" y="894" on="0"/>
        <pt x="1129" y="978" on="1"/>
        <pt x="1194" y="1167" on="0"/>
        <pt x="1315" y="1272" on="1"/>
        <pt x="1123" y="1321" on="0"/>
        <pt x="911" y="1321" on="1"/>
        <pt x="791" y="1321" on="0"/>
        <pt x="579" y="1190" on="0"/>
        <pt x="452" y="968" on="0"/>
        <pt x="452" y="700" on="0"/>
        <pt x="603" y="516" on="0"/>
        <pt x="743" y="446" on="1"/>
        <pt x="729" y="395" on="1"/>
      </contour>
    </TTGlyph>
    <TTGlyph name="Thorn" xMin="-27" yMin="-23" xMax="1593" yMax="1374">
      <contour>
        <pt x="28" y="120" on="1"/>
        <pt x="-27" y="191" on="0"/>
        <pt x="-27" y="353" on="0"/>
        <pt x="27" y="470" on="0"/>
        <pt x="116" y="548" on="0"/>
        <pt x="176" y="575" on="1"/>
        <pt x="285" y="625" on="0"/>
        <pt x="425" y="627" on="1"/>
        <pt x="441" y="778" on="0"/>
        <pt x="538" y="888" on="1"/>
        <pt x="726" y="1100" on="0"/>
        <pt x="1082" y="1100" on="1"/>
        <pt x="1120" y="1100" on="0"/>
        <pt x="1161" y="1097" on="1"/>
        <pt x="1252" y="1268" on="0"/>
        <pt x="1362" y="1374" on="1"/>
        <pt x="1438" y="1339" on="1"/>
        <pt x="1365" y="1261" on="0"/>
        <pt x="1286" y="1077" on="1"/>
        <pt x="1442" y="1035" on="0"/>
        <pt x="1593" y="880" on="0"/>
        <pt x="1593" y="716" on="0"/>
        <pt x="1514" y="576" on="0"/>
        <pt x="1384" y="467" on="0"/>
        <pt x="1200" y="399" on="0"/>
        <pt x="1102" y="399" on="1"/>
        <pt x="1083" y="399" on="0"/>
        <pt x="1074" y="400" on="1"/>
        <pt x="993" y="194" on="0"/>
        <pt x="624" y="-23" on="0"/>
        <pt x="358" y="-23" on="1"/>
        <pt x="137" y="-23" on="0"/>
      </contour>
      <contour>
        <pt x="121" y="436" on="0"/>
        <pt x="42" y="332" on="0"/>
        <pt x="42" y="210" on="0"/>
        <pt x="107" y="120" on="0"/>
        <pt x="158" y="94" on="1"/>
        <pt x="263" y="39" on="0"/>
        <pt x="485" y="39" on="0"/>
        <pt x="656" y="87" on="0"/>
        <pt x="764" y="167" on="0"/>
        <pt x="848" y="289" on="0"/>
        <pt x="896" y="421" on="0"/>
        <pt x="946" y="588" on="0"/>
        <pt x="966" y="666" on="1"/>
        <pt x="1018" y="862" on="0"/>
        <pt x="1099" y="1005" on="1"/>
        <pt x="1067" y="1014" on="0"/>
        <pt x="1002" y="1014" on="1"/>
        <pt x="873" y="1014" on="0"/>
        <pt x="640" y="905" on="0"/>
        <pt x="499" y="723" on="0"/>
        <pt x="499" y="623" on="1"/>
        <pt x="638" y="602" on="0"/>
        <pt x="778" y="508" on="1"/>
        <pt x="735" y="442" on="1"/>
        <pt x="595" y="522" on="0"/>
        <pt x="501" y="522" on="1"/>
        <pt x="501" y="500" on="0"/>
        <pt x="533" y="364" on="0"/>
        <pt x="554" y="307" on="1"/>
        <pt x="495" y="289" on="1"/>
        <pt x="471" y="327" on="0"/>
        <pt x="436" y="480" on="0"/>
        <pt x="431" y="522" on="1"/>
        <pt x="307" y="522" on="0"/>
        <pt x="182" y="464" on="1"/>
      </contour>
      <contour>
        <pt x="1238" y="965" on="1"/>
        <pt x="1161" y="792" on="0"/>
        <pt x="1091" y="469" on="1"/>
        <pt x="1232" y="481" on="0"/>
        <pt x="1444" y="658" on="0"/>
        <pt x="1444" y="759" on="1"/>
        <pt x="1444" y="823" on="0"/>
        <pt x="1343" y="931" on="0"/>
      </contour>
    </TTGlyph>
    <TTGlyph name="U" xMin="10" yMin="-25" xMax="1659" yMax="1440">
      <contour>
        <pt x="1429" y="63" on="1"/>
        <pt x="1503" y="63" on="0"/>
        <pt x="1597" y="236" on="1"/>
        <pt x="1650" y="205" on="1"/>
        <pt x="1597" y="93" on="0"/>
        <pt x="1456" y="-25" on="0"/>
        <pt x="1307" y="-25" on="0"/>
        <pt x="1204" y="109" on="0"/>
        <pt x="1204" y="321" on="0"/>
        <pt x="1222" y="438" on="1"/>
        <pt x="1247" y="594" on="0"/>
        <pt x="1324" y="905" on="0"/>
        <pt x="1326" y="912" on="1"/>
        <pt x="1330" y="928" on="0"/>
        <pt x="1335" y="948" on="1"/>
        <pt x="1322" y="917" on="0"/>
        <pt x="1261" y="765" on="0"/>
        <pt x="1206" y="632" on="0"/>
        <pt x="1122" y="449" on="0"/>
        <pt x="1043" y="300" on="0"/>
        <pt x="938" y="146" on="0"/>
        <pt x="886" y="94" on="1"/>
        <pt x="769" y="-25" on="0"/>
        <pt x="649" y="-25" on="1"/>
        <pt x="563" y="-25" on="0"/>
        <pt x="471" y="96" on="0"/>
        <pt x="471" y="295" on="0"/>
        <pt x="525" y="560" on="0"/>
        <pt x="557" y="669" on="1"/>
        <pt x="643" y="962" on="0"/>
        <pt x="643" y="1155" on="1"/>
        <pt x="643" y="1257" on="0"/>
        <pt x="538" y="1389" on="0"/>
        <pt x="363" y="1389" on="0"/>
        <pt x="232" y="1300" on="0"/>
        <pt x="148" y="1162" on="0"/>
        <pt x="118" y="1077" on="1"/>
        <pt x="63" y="917" on="0"/>
        <pt x="63" y="770" on="1"/>
        <pt x="63" y="497" on="0"/>
        <pt x="188" y="291" on="1"/>
        <pt x="149" y="258" on="1"/>
        <pt x="81" y="367" on="0"/>
        <pt x="10" y="636" on="0"/>
        <pt x="10" y="849" on="0"/>
        <pt x="40" y="1027" on="0"/>
        <pt x="110" y="1209" on="0"/>
        <pt x="212" y="1351" on="0"/>
        <pt x="372" y="1440" on="0"/>
        <pt x="537" y="1440" on="0"/>
        <pt x="647" y="1395" on="0"/>
        <pt x="718" y="1320" on="0"/>
        <pt x="742" y="1269" on="1"/>
        <pt x="786" y="1176" on="0"/>
        <pt x="786" y="950" on="0"/>
        <pt x="738" y="715" on="0"/>
        <pt x="708" y="622" on="1"/>
        <pt x="631" y="379" on="0"/>
        <pt x="631" y="197" on="1"/>
        <pt x="631" y="78" on="0"/>
        <pt x="752" y="78" on="0"/>
        <pt x="903" y="226" on="0"/>
        <pt x="1049" y="462" on="0"/>
        <pt x="1196" y="748" on="0"/>
        <pt x="1258" y="890" on="1"/>
        <pt x="1384" y="1179" on="0"/>
        <pt x="1444" y="1343" on="1"/>
        <pt x="1472" y="1417" on="1"/>
        <pt x="1659" y="1417" on="1"/>
        <pt x="1362" y="587" on="0"/>
        <pt x="1362" y="229" on="1"/>
        <pt x="1362" y="63" on="0"/>
      </contour>
    </TTGlyph>
    <TTGlyph name="Uacute" xMin="10" yMin="-25" xMax="1659" yMax="1808">
      <contour>
        <pt x="1429" y="63" on="1"/>
        <pt x="1503" y="63" on="0"/>
        <pt x="1597" y="236" on="1"/>
        <pt x="1650" y="205" on="1"/>
        <pt x="1597" y="93" on="0"/>
        <pt x="1456" y="-25" on="0"/>
        <pt x="1307" y="-25" on="0"/>
        <pt x="1204" y="109" on="0"/>
        <pt x="1204" y="321" on="0"/>
        <pt x="1222" y="438" on="1"/>
        <pt x="1247" y="594" on="0"/>
        <pt x="1324" y="905" on="0"/>
        <pt x="1326" y="912" on="1"/>
        <pt x="1330" y="928" on="0"/>
        <pt x="1335" y="948" on="1"/>
        <pt x="1322" y="917" on="0"/>
        <pt x="1261" y="765" on="0"/>
        <pt x="1206" y="632" on="0"/>
        <pt x="1122" y="449" on="0"/>
        <pt x="1043" y="300" on="0"/>
        <pt x="938" y="146" on="0"/>
        <pt x="886" y="94" on="1"/>
        <pt x="769" y="-25" on="0"/>
        <pt x="649" y="-25" on="1"/>
        <pt x="563" y="-25" on="0"/>
        <pt x="471" y="96" on="0"/>
        <pt x="471" y="295" on="0"/>
        <pt x="525" y="560" on="0"/>
        <pt x="557" y="669" on="1"/>
        <pt x="643" y="962" on="0"/>
        <pt x="643" y="1155" on="1"/>
        <pt x="643" y="1257" on="0"/>
        <pt x="538" y="1389" on="0"/>
        <pt x="363" y="1389" on="0"/>
        <pt x="232" y="1300" on="0"/>
        <pt x="148" y="1162" on="0"/>
        <pt x="118" y="1077" on="1"/>
        <pt x="63" y="917" on="0"/>
        <pt x="63" y="770" on="1"/>
        <pt x="63" y="497" on="0"/>
        <pt x="188" y="291" on="1"/>
        <pt x="149" y="258" on="1"/>
        <pt x="81" y="367" on="0"/>
        <pt x="10" y="636" on="0"/>
        <pt x="10" y="849" on="0"/>
        <pt x="40" y="1027" on="0"/>
        <pt x="110" y="1209" on="0"/>
        <pt x="212" y="1351" on="0"/>
        <pt x="372" y="1440" on="0"/>
        <pt x="537" y="1440" on="0"/>
        <pt x="647" y="1395" on="0"/>
        <pt x="718" y="1320" on="0"/>
        <pt x="742" y="1269" on="1"/>
        <pt x="786" y="1176" on="0"/>
        <pt x="786" y="950" on="0"/>
        <pt x="738" y="715" on="0"/>
        <pt x="708" y="622" on="1"/>
        <pt x="631" y="379" on="0"/>
        <pt x="631" y="197" on="1"/>
        <pt x="631" y="78" on="0"/>
        <pt x="752" y="78" on="0"/>
        <pt x="903" y="226" on="0"/>
        <pt x="1049" y="462" on="0"/>
        <pt x="1196" y="748" on="0"/>
        <pt x="1258" y="890" on="1"/>
        <pt x="1384" y="1179" on="0"/>
        <pt x="1444" y="1343" on="1"/>
        <pt x="1472" y="1417" on="1"/>
        <pt x="1659" y="1417" on="1"/>
        <pt x="1362" y="587" on="0"/>
        <pt x="1362" y="229" on="1"/>
        <pt x="1362" y="63" on="0"/>
      </contour>
      <contour>
        <pt x="1166" y="1507" on="1"/>
        <pt x="1112" y="1507" on="1"/>
        <pt x="1152" y="1564" on="0"/>
        <pt x="1270" y="1752" on="1"/>
        <pt x="1305" y="1808" on="1"/>
        <pt x="1475" y="1808" on="1"/>
        <pt x="1461" y="1794" on="0"/>
        <pt x="1396" y="1727" on="1"/>
        <pt x="1231" y="1557" on="0"/>
      </contour>
    </TTGlyph>
    <TTGlyph name="Ucircumflex" xMin="10" yMin="-25" xMax="1659" yMax="1807">
      <component glyphName="U" x="0" y="0" flags="0x1004"/>
      <component glyphName="circumflex" x="777" y="835" flags="0x1004"/>
    </TTGlyph>
    <TTGlyph name="Udieresis" xMin="10" yMin="-25" xMax="1659" yMax="1709">
      <contour>
        <pt x="1429" y="63" on="1"/>
        <pt x="1503" y="63" on="0"/>
        <pt x="1597" y="236" on="1"/>
        <pt x="1650" y="205" on="1"/>
        <pt x="1597" y="93" on="0"/>
        <pt x="1456" y="-25" on="0"/>
        <pt x="1307" y="-25" on="0"/>
        <pt x="1204" y="109" on="0"/>
        <pt x="1204" y="321" on="0"/>
        <pt x="1222" y="438" on="1"/>
        <pt x="1247" y="594" on="0"/>
        <pt x="1324" y="905" on="0"/>
        <pt x="1326" y="912" on="1"/>
        <pt x="1330" y="928" on="0"/>
        <pt x="1335" y="948" on="1"/>
        <pt x="1322" y="917" on="0"/>
        <pt x="1261" y="765" on="0"/>
        <pt x="1206" y="632" on="0"/>
        <pt x="1122" y="449" on="0"/>
        <pt x="1043" y="300" on="0"/>
        <pt x="938" y="146" on="0"/>
        <pt x="886" y="94" on="1"/>
        <pt x="769" y="-25" on="0"/>
        <pt x="649" y="-25" on="1"/>
        <pt x="563" y="-25" on="0"/>
        <pt x="471" y="96" on="0"/>
        <pt x="471" y="295" on="0"/>
        <pt x="525" y="560" on="0"/>
        <pt x="557" y="669" on="1"/>
        <pt x="643" y="962" on="0"/>
        <pt x="643" y="1155" on="1"/>
        <pt x="643" y="1257" on="0"/>
        <pt x="538" y="1389" on="0"/>
        <pt x="363" y="1389" on="0"/>
        <pt x="232" y="1300" on="0"/>
        <pt x="148" y="1162" on="0"/>
        <pt x="118" y="1077" on="1"/>
        <pt x="63" y="917" on="0"/>
        <pt x="63" y="770" on="1"/>
        <pt x="63" y="497" on="0"/>
        <pt x="188" y="291" on="1"/>
        <pt x="149" y="258" on="1"/>
        <pt x="81" y="367" on="0"/>
        <pt x="10" y="636" on="0"/>
        <pt x="10" y="849" on="0"/>
        <pt x="40" y="1027" on="0"/>
        <pt x="110" y="1209" on="0"/>
        <pt x="212" y="1351" on="0"/>
        <pt x="372" y="1440" on="0"/>
        <pt x="537" y="1440" on="0"/>
        <pt x="647" y="1395" on="0"/>
        <pt x="718" y="1320" on="0"/>
        <pt x="742" y="1269" on="1"/>
        <pt x="786" y="1176" on="0"/>
        <pt x="786" y="950" on="0"/>
        <pt x="738" y="715" on="0"/>
        <pt x="708" y="622" on="1"/>
        <pt x="631" y="379" on="0"/>
        <pt x="631" y="197" on="1"/>
        <pt x="631" y="78" on="0"/>
        <pt x="752" y="78" on="0"/>
        <pt x="903" y="226" on="0"/>
        <pt x="1049" y="462" on="0"/>
        <pt x="1196" y="748" on="0"/>
        <pt x="1258" y="890" on="1"/>
        <pt x="1384" y="1179" on="0"/>
        <pt x="1444" y="1343" on="1"/>
        <pt x="1472" y="1417" on="1"/>
        <pt x="1659" y="1417" on="1"/>
        <pt x="1362" y="587" on="0"/>
        <pt x="1362" y="229" on="1"/>
        <pt x="1362" y="63" on="0"/>
      </contour>
      <contour>
        <pt x="1076" y="1709" on="0"/>
        <pt x="1128" y="1662" on="0"/>
        <pt x="1128" y="1566" on="0"/>
        <pt x="1062" y="1507" on="0"/>
        <pt x="981" y="1507" on="0"/>
        <pt x="927" y="1556" on="0"/>
        <pt x="927" y="1651" on="0"/>
        <pt x="994" y="1709" on="0"/>
      </contour>
      <contour>
        <pt x="1438" y="1709" on="0"/>
        <pt x="1490" y="1662" on="0"/>
        <pt x="1490" y="1566" on="0"/>
        <pt x="1424" y="1507" on="0"/>
        <pt x="1343" y="1507" on="0"/>
        <pt x="1289" y="1556" on="0"/>
        <pt x="1289" y="1650" on="0"/>
        <pt x="1357" y="1709" on="0"/>
      </contour>
    </TTGlyph>
    <TTGlyph name="Ugrave" xMin="10" yMin="-25" xMax="1659" yMax="1808">
      <component glyphName="U" x="0" y="0" flags="0x1004"/>
      <component glyphName="grave" x="777" y="835" flags="0x1004"/>
    </TTGlyph>
    <TTGlyph name="Umacron" xMin="10" yMin="-25" xMax="1659" yMax="1659">
      <contour>
        <pt x="1429" y="63" on="1"/>
        <pt x="1503" y="63" on="0"/>
        <pt x="1597" y="236" on="1"/>
        <pt x="1650" y="205" on="1"/>
        <pt x="1597" y="93" on="0"/>
        <pt x="1456" y="-25" on="0"/>
        <pt x="1307" y="-25" on="0"/>
        <pt x="1204" y="109" on="0"/>
        <pt x="1204" y="321" on="0"/>
        <pt x="1222" y="438" on="1"/>
        <pt x="1247" y="594" on="0"/>
        <pt x="1324" y="905" on="0"/>
        <pt x="1326" y="912" on="1"/>
        <pt x="1330" y="928" on="0"/>
        <pt x="1335" y="948" on="1"/>
        <pt x="1322" y="917" on="0"/>
        <pt x="1261" y="765" on="0"/>
        <pt x="1206" y="632" on="0"/>
        <pt x="1122" y="449" on="0"/>
        <pt x="1043" y="300" on="0"/>
        <pt x="938" y="146" on="0"/>
        <pt x="886" y="94" on="1"/>
        <pt x="769" y="-25" on="0"/>
        <pt x="649" y="-25" on="1"/>
        <pt x="563" y="-25" on="0"/>
        <pt x="471" y="96" on="0"/>
        <pt x="471" y="295" on="0"/>
        <pt x="525" y="560" on="0"/>
        <pt x="557" y="669" on="1"/>
        <pt x="643" y="962" on="0"/>
        <pt x="643" y="1155" on="1"/>
        <pt x="643" y="1257" on="0"/>
        <pt x="538" y="1389" on="0"/>
        <pt x="363" y="1389" on="0"/>
        <pt x="232" y="1300" on="0"/>
        <pt x="148" y="1162" on="0"/>
        <pt x="118" y="1077" on="1"/>
        <pt x="63" y="917" on="0"/>
        <pt x="63" y="770" on="1"/>
        <pt x="63" y="497" on="0"/>
        <pt x="188" y="291" on="1"/>
        <pt x="149" y="258" on="1"/>
        <pt x="81" y="367" on="0"/>
        <pt x="10" y="636" on="0"/>
        <pt x="10" y="849" on="0"/>
        <pt x="40" y="1027" on="0"/>
        <pt x="110" y="1209" on="0"/>
        <pt x="212" y="1351" on="0"/>
        <pt x="372" y="1440" on="0"/>
        <pt x="537" y="1440" on="0"/>
        <pt x="647" y="1395" on="0"/>
        <pt x="718" y="1320" on="0"/>
        <pt x="742" y="1269" on="1"/>
        <pt x="786" y="1176" on="0"/>
        <pt x="786" y="950" on="0"/>
        <pt x="738" y="715" on="0"/>
        <pt x="708" y="622" on="1"/>
        <pt x="631" y="379" on="0"/>
        <pt x="631" y="197" on="1"/>
        <pt x="631" y="78" on="0"/>
        <pt x="752" y="78" on="0"/>
        <pt x="903" y="226" on="0"/>
        <pt x="1049" y="462" on="0"/>
        <pt x="1196" y="748" on="0"/>
        <pt x="1258" y="890" on="1"/>
        <pt x="1384" y="1179" on="0"/>
        <pt x="1444" y="1343" on="1"/>
        <pt x="1472" y="1417" on="1"/>
        <pt x="1659" y="1417" on="1"/>
        <pt x="1362" y="587" on="0"/>
        <pt x="1362" y="229" on="1"/>
        <pt x="1362" y="63" on="0"/>
      </contour>
      <contour>
        <pt x="1240" y="1567" on="1"/>
        <pt x="1035" y="1568" on="1"/>
        <pt x="984" y="1568" on="0"/>
        <pt x="948" y="1561" on="1"/>
        <pt x="953" y="1652" on="1"/>
        <pt x="1005" y="1659" on="0"/>
        <pt x="1261" y="1659" on="0"/>
        <pt x="1403" y="1652" on="1"/>
        <pt x="1398" y="1571" on="1"/>
        <pt x="1330" y="1567" on="0"/>
      </contour>
    </TTGlyph>
    <TTGlyph name="Uogonek" xMin="10" yMin="-379" xMax="1659" yMax="1440">
      <contour>
        <pt x="1429" y="63" on="1"/>
        <pt x="1503" y="63" on="0"/>
        <pt x="1597" y="236" on="1"/>
        <pt x="1650" y="205" on="1"/>
        <pt x="1597" y="93" on="0"/>
        <pt x="1456" y="-25" on="0"/>
        <pt x="1307" y="-25" on="0"/>
        <pt x="1204" y="109" on="0"/>
        <pt x="1204" y="321" on="0"/>
        <pt x="1222" y="438" on="1"/>
        <pt x="1247" y="594" on="0"/>
        <pt x="1324" y="905" on="0"/>
        <pt x="1326" y="912" on="1"/>
        <pt x="1330" y="928" on="0"/>
        <pt x="1335" y="948" on="1"/>
        <pt x="1322" y="917" on="0"/>
        <pt x="1261" y="765" on="0"/>
        <pt x="1206" y="632" on="0"/>
        <pt x="1122" y="449" on="0"/>
        <pt x="1043" y="300" on="0"/>
        <pt x="938" y="146" on="0"/>
        <pt x="886" y="94" on="1"/>
        <pt x="769" y="-25" on="0"/>
        <pt x="649" y="-25" on="1"/>
        <pt x="563" y="-25" on="0"/>
        <pt x="471" y="96" on="0"/>
        <pt x="471" y="295" on="0"/>
        <pt x="525" y="560" on="0"/>
        <pt x="557" y="669" on="1"/>
        <pt x="643" y="962" on="0"/>
        <pt x="643" y="1155" on="1"/>
        <pt x="643" y="1257" on="0"/>
        <pt x="538" y="1389" on="0"/>
        <pt x="363" y="1389" on="0"/>
        <pt x="232" y="1300" on="0"/>
        <pt x="148" y="1162" on="0"/>
        <pt x="118" y="1077" on="1"/>
        <pt x="63" y="917" on="0"/>
        <pt x="63" y="770" on="1"/>
        <pt x="63" y="497" on="0"/>
        <pt x="188" y="291" on="1"/>
        <pt x="149" y="258" on="1"/>
        <pt x="81" y="367" on="0"/>
        <pt x="10" y="636" on="0"/>
        <pt x="10" y="849" on="0"/>
        <pt x="40" y="1027" on="0"/>
        <pt x="110" y="1209" on="0"/>
        <pt x="212" y="1351" on="0"/>
        <pt x="372" y="1440" on="0"/>
        <pt x="537" y="1440" on="0"/>
        <pt x="647" y="1395" on="0"/>
        <pt x="718" y="1320" on="0"/>
        <pt x="742" y="1269" on="1"/>
        <pt x="786" y="1176" on="0"/>
        <pt x="786" y="950" on="0"/>
        <pt x="738" y="715" on="0"/>
        <pt x="708" y="622" on="1"/>
        <pt x="631" y="379" on="0"/>
        <pt x="631" y="197" on="1"/>
        <pt x="631" y="78" on="0"/>
        <pt x="752" y="78" on="0"/>
        <pt x="903" y="226" on="0"/>
        <pt x="1049" y="462" on="0"/>
        <pt x="1196" y="748" on="0"/>
        <pt x="1258" y="890" on="1"/>
        <pt x="1384" y="1179" on="0"/>
        <pt x="1444" y="1343" on="1"/>
        <pt x="1472" y="1417" on="1"/>
        <pt x="1659" y="1417" on="1"/>
        <pt x="1362" y="587" on="0"/>
        <pt x="1362" y="229" on="1"/>
        <pt x="1362" y="63" on="0"/>
      </contour>
      <contour>
        <pt x="1339" y="-326" on="1"/>
        <pt x="1348" y="-350" on="1"/>
        <pt x="1302" y="-379" on="0"/>
        <pt x="1235" y="-379" on="1"/>
        <pt x="1094" y="-379" on="0"/>
        <pt x="1094" y="-288" on="1"/>
        <pt x="1094" y="-184" on="0"/>
        <pt x="1307" y="-1" on="1"/>
        <pt x="1373" y="-1" on="1"/>
        <pt x="1305" y="-69" on="0"/>
        <pt x="1203" y="-250" on="0"/>
        <pt x="1203" y="-296" on="1"/>
        <pt x="1203" y="-337" on="0"/>
        <pt x="1264" y="-337" on="1"/>
        <pt x="1293" y="-337" on="0"/>
      </contour>
    </TTGlyph>
    <TTGlyph name="V" xMin="21" yMin="0" xMax="1561" yMax="1442">
      <contour>
        <pt x="467" y="1442" on="1"/>
        <pt x="824" y="1442" on="0"/>
        <pt x="824" y="1022" on="1"/>
        <pt x="824" y="703" on="0"/>
        <pt x="613" y="168" on="1"/>
        <pt x="904" y="324" on="0"/>
        <pt x="1071" y="530" on="1"/>
        <pt x="1226" y="722" on="0"/>
        <pt x="1321" y="985" on="1"/>
        <pt x="1230" y="1030" on="0"/>
        <pt x="1108" y="1173" on="0"/>
        <pt x="1108" y="1337" on="0"/>
        <pt x="1208" y="1442" on="0"/>
        <pt x="1360" y="1442" on="0"/>
        <pt x="1446" y="1333" on="0"/>
        <pt x="1446" y="1139" on="0"/>
        <pt x="1409" y="1010" on="1"/>
        <pt x="1481" y="973" on="0"/>
        <pt x="1561" y="956" on="1"/>
        <pt x="1543" y="909" on="1"/>
        <pt x="1428" y="938" on="0"/>
        <pt x="1393" y="952" on="1"/>
        <pt x="1294" y="653" on="0"/>
        <pt x="817" y="166" on="0"/>
        <pt x="445" y="0" on="1"/>
        <pt x="363" y="0" on="1"/>
        <pt x="427" y="125" on="0"/>
        <pt x="499" y="363" on="1"/>
        <pt x="639" y="821" on="0"/>
        <pt x="639" y="1077" on="1"/>
        <pt x="639" y="1382" on="0"/>
        <pt x="455" y="1382" on="1"/>
        <pt x="373" y="1382" on="0"/>
        <pt x="241" y="1299" on="0"/>
        <pt x="159" y="1171" on="0"/>
        <pt x="132" y="1088" on="1"/>
        <pt x="82" y="940" on="0"/>
        <pt x="82" y="780" on="1"/>
        <pt x="82" y="644" on="0"/>
        <pt x="112" y="544" on="1"/>
        <pt x="166" y="364" on="0"/>
        <pt x="273" y="293" on="1"/>
        <pt x="226" y="254" on="1"/>
        <pt x="120" y="343" on="0"/>
        <pt x="21" y="635" on="0"/>
        <pt x="21" y="879" on="0"/>
        <pt x="51" y="1053" on="0"/>
        <pt x="120" y="1226" on="0"/>
        <pt x="220" y="1359" on="0"/>
        <pt x="374" y="1442" on="0"/>
      </contour>
      <contour>
        <pt x="1271" y="1346" on="0"/>
        <pt x="1219" y="1291" on="0"/>
        <pt x="1219" y="1196" on="0"/>
        <pt x="1288" y="1089" on="0"/>
        <pt x="1342" y="1049" on="1"/>
        <pt x="1375" y="1168" on="0"/>
        <pt x="1375" y="1230" on="1"/>
        <pt x="1375" y="1346" on="0"/>
        <pt x="1307" y="1346" on="1"/>
      </contour>
    </TTGlyph>
    <TTGlyph name="W" xMin="70" yMin="0" xMax="2161" yMax="1442">
      <contour>
        <pt x="1254" y="0" on="1"/>
        <pt x="1172" y="0" on="1"/>
        <pt x="1216" y="198" on="0"/>
        <pt x="1350" y="908" on="1"/>
        <pt x="1397" y="1157" on="1"/>
        <pt x="1271" y="1002" on="0"/>
        <pt x="912" y="478" on="0"/>
        <pt x="597" y="0" on="1"/>
        <pt x="412" y="0" on="1"/>
        <pt x="475" y="119" on="0"/>
        <pt x="548" y="360" on="1"/>
        <pt x="689" y="821" on="0"/>
        <pt x="689" y="1077" on="1"/>
        <pt x="689" y="1382" on="0"/>
        <pt x="504" y="1382" on="1"/>
        <pt x="423" y="1382" on="0"/>
        <pt x="291" y="1299" on="0"/>
        <pt x="209" y="1171" on="0"/>
        <pt x="182" y="1088" on="1"/>
        <pt x="132" y="940" on="0"/>
        <pt x="132" y="634" on="0"/>
        <pt x="222" y="360" on="0"/>
        <pt x="322" y="293" on="1"/>
        <pt x="275" y="254" on="1"/>
        <pt x="169" y="343" on="0"/>
        <pt x="70" y="635" on="0"/>
        <pt x="70" y="879" on="0"/>
        <pt x="100" y="1053" on="0"/>
        <pt x="169" y="1226" on="0"/>
        <pt x="269" y="1359" on="0"/>
        <pt x="424" y="1442" on="0"/>
        <pt x="615" y="1442" on="0"/>
        <pt x="757" y="1377" on="0"/>
        <pt x="797" y="1318" on="1"/>
        <pt x="873" y="1206" on="0"/>
        <pt x="873" y="1022" on="1"/>
        <pt x="873" y="729" on="0"/>
        <pt x="662" y="229" on="1"/>
        <pt x="992" y="784" on="0"/>
        <pt x="1180" y="1031" on="1"/>
        <pt x="1350" y="1255" on="0"/>
        <pt x="1494" y="1374" on="1"/>
        <pt x="1565" y="1341" on="1"/>
        <pt x="1385" y="175" on="1"/>
        <pt x="1602" y="322" on="0"/>
        <pt x="1875" y="746" on="0"/>
        <pt x="1920" y="985" on="1"/>
        <pt x="1822" y="1031" on="0"/>
        <pt x="1682" y="1183" on="0"/>
        <pt x="1682" y="1346" on="0"/>
        <pt x="1769" y="1442" on="0"/>
        <pt x="1890" y="1442" on="0"/>
        <pt x="1963" y="1398" on="0"/>
        <pt x="1983" y="1360" on="1"/>
        <pt x="2022" y="1287" on="0"/>
        <pt x="2022" y="1101" on="0"/>
        <pt x="2006" y="1010" on="1"/>
        <pt x="2078" y="973" on="0"/>
        <pt x="2161" y="956" on="1"/>
        <pt x="2147" y="909" on="1"/>
        <pt x="2020" y="941" on="0"/>
        <pt x="1993" y="952" on="1"/>
        <pt x="1930" y="653" on="0"/>
        <pt x="1558" y="166" on="0"/>
      </contour>
      <contour>
        <pt x="1793" y="1255" on="1"/>
        <pt x="1804" y="1140" on="0"/>
        <pt x="1934" y="1049" on="1"/>
        <pt x="1950" y="1127" on="0"/>
        <pt x="1950" y="1229" on="0"/>
        <pt x="1947" y="1263" on="0"/>
        <pt x="1941" y="1290" on="1"/>
        <pt x="1929" y="1346" on="0"/>
        <pt x="1875" y="1346" on="1"/>
        <pt x="1840" y="1346" on="0"/>
        <pt x="1793" y="1296" on="0"/>
        <pt x="1793" y="1262" on="1"/>
      </contour>
    </TTGlyph>
    <TTGlyph name="Wh" xMin="70" yMin="-16" xMax="2710" yMax="1442">
      <contour>
        <pt x="2370" y="144" on="0"/>
        <pt x="2454" y="374" on="0"/>
        <pt x="2454" y="473" on="0"/>
        <pt x="2385" y="473" on="0"/>
        <pt x="2287" y="376" on="0"/>
        <pt x="2242" y="306" on="1"/>
        <pt x="2168" y="193" on="0"/>
        <pt x="2092" y="48" on="1"/>
        <pt x="2067" y="0" on="1"/>
        <pt x="1924" y="0" on="1"/>
        <pt x="1996" y="561" on="0"/>
        <pt x="2133" y="913" on="1"/>
        <pt x="2028" y="935" on="0"/>
        <pt x="1993" y="952" on="1"/>
        <pt x="1930" y="653" on="0"/>
        <pt x="1558" y="166" on="0"/>
        <pt x="1254" y="0" on="1"/>
        <pt x="1172" y="0" on="1"/>
        <pt x="1216" y="198" on="0"/>
        <pt x="1350" y="908" on="1"/>
        <pt x="1397" y="1157" on="1"/>
        <pt x="1271" y="1002" on="0"/>
        <pt x="912" y="478" on="0"/>
        <pt x="597" y="0" on="1"/>
        <pt x="412" y="0" on="1"/>
        <pt x="475" y="119" on="0"/>
        <pt x="548" y="360" on="1"/>
        <pt x="689" y="821" on="0"/>
        <pt x="689" y="1077" on="1"/>
        <pt x="689" y="1382" on="0"/>
        <pt x="504" y="1382" on="1"/>
        <pt x="423" y="1382" on="0"/>
        <pt x="291" y="1299" on="0"/>
        <pt x="209" y="1171" on="0"/>
        <pt x="182" y="1088" on="1"/>
        <pt x="132" y="940" on="0"/>
        <pt x="132" y="634" on="0"/>
        <pt x="222" y="360" on="0"/>
        <pt x="322" y="293" on="1"/>
        <pt x="275" y="254" on="1"/>
        <pt x="169" y="343" on="0"/>
        <pt x="70" y="635" on="0"/>
        <pt x="70" y="879" on="0"/>
        <pt x="100" y="1053" on="0"/>
        <pt x="169" y="1226" on="0"/>
        <pt x="269" y="1359" on="0"/>
        <pt x="424" y="1442" on="0"/>
        <pt x="615" y="1442" on="0"/>
        <pt x="757" y="1377" on="0"/>
        <pt x="797" y="1318" on="1"/>
        <pt x="873" y="1206" on="0"/>
        <pt x="873" y="1022" on="1"/>
        <pt x="873" y="729" on="0"/>
        <pt x="662" y="229" on="1"/>
        <pt x="992" y="784" on="0"/>
        <pt x="1180" y="1031" on="1"/>
        <pt x="1350" y="1255" on="0"/>
        <pt x="1494" y="1374" on="1"/>
        <pt x="1565" y="1341" on="1"/>
        <pt x="1385" y="168" on="1"/>
        <pt x="1681" y="364" on="0"/>
        <pt x="1816" y="668" on="1"/>
        <pt x="1878" y="806" on="0"/>
        <pt x="1920" y="985" on="1"/>
        <pt x="1822" y="1031" on="0"/>
        <pt x="1682" y="1183" on="0"/>
        <pt x="1682" y="1346" on="0"/>
        <pt x="1769" y="1442" on="0"/>
        <pt x="1890" y="1442" on="0"/>
        <pt x="1963" y="1398" on="0"/>
        <pt x="1983" y="1360" on="1"/>
        <pt x="2022" y="1287" on="0"/>
        <pt x="2022" y="1101" on="0"/>
        <pt x="2006" y="1010" on="1"/>
        <pt x="2057" y="985" on="0"/>
        <pt x="2128" y="968" on="1"/>
        <pt x="2153" y="963" on="1"/>
        <pt x="2190" y="1067" on="0"/>
        <pt x="2345" y="1272" on="0"/>
        <pt x="2519" y="1401" on="0"/>
        <pt x="2583" y="1401" on="1"/>
        <pt x="2708" y="1401" on="0"/>
        <pt x="2708" y="1253" on="1"/>
        <pt x="2708" y="1132" on="0"/>
        <pt x="2599" y="1007" on="1"/>
        <pt x="2550" y="951" on="0"/>
        <pt x="2405" y="877" on="0"/>
        <pt x="2329" y="877" on="1"/>
        <pt x="2314" y="877" on="0"/>
        <pt x="2286" y="881" on="1"/>
        <pt x="2221" y="676" on="0"/>
        <pt x="2116" y="219" on="1"/>
        <pt x="2122" y="229" on="0"/>
        <pt x="2159" y="294" on="0"/>
        <pt x="2179" y="327" on="0"/>
        <pt x="2220" y="393" on="0"/>
        <pt x="2248" y="432" on="0"/>
        <pt x="2293" y="490" on="0"/>
        <pt x="2328" y="525" on="0"/>
        <pt x="2376" y="566" on="0"/>
        <pt x="2398" y="578" on="1"/>
        <pt x="2449" y="604" on="0"/>
        <pt x="2565" y="604" on="0"/>
        <pt x="2624" y="540" on="0"/>
        <pt x="2624" y="432" on="0"/>
        <pt x="2524" y="177" on="0"/>
        <pt x="2524" y="117" on="0"/>
        <pt x="2540" y="117" on="1"/>
        <pt x="2582" y="117" on="0"/>
        <pt x="2667" y="244" on="1"/>
        <pt x="2710" y="204" on="1"/>
        <pt x="2646" y="94" on="0"/>
        <pt x="2507" y="-16" on="0"/>
        <pt x="2418" y="-16" on="0"/>
        <pt x="2370" y="40" on="0"/>
      </contour>
      <contour>
        <pt x="2640" y="1253" on="1"/>
        <pt x="2640" y="1354" on="0"/>
        <pt x="2587" y="1354" on="1"/>
        <pt x="2546" y="1354" on="0"/>
        <pt x="2432" y="1236" on="0"/>
        <pt x="2328" y="1037" on="0"/>
        <pt x="2305" y="934" on="1"/>
        <pt x="2315" y="932" on="0"/>
        <pt x="2335" y="932" on="1"/>
        <pt x="2412" y="932" on="0"/>
        <pt x="2557" y="1041" on="0"/>
        <pt x="2640" y="1190" on="0"/>
      </contour>
      <contour>
        <pt x="1793" y="1255" on="1"/>
        <pt x="1804" y="1140" on="0"/>
        <pt x="1934" y="1049" on="1"/>
        <pt x="1950" y="1127" on="0"/>
        <pt x="1950" y="1229" on="0"/>
        <pt x="1947" y="1263" on="0"/>
        <pt x="1941" y="1290" on="1"/>
        <pt x="1929" y="1346" on="0"/>
        <pt x="1837" y="1346" on="0"/>
        <pt x="1793" y="1293" on="0"/>
      </contour>
    </TTGlyph>
    <TTGlyph name="X" xMin="-20" yMin="-25" xMax="1702" yMax="1442">
      <contour>
        <pt x="318" y="733" on="1"/>
        <pt x="701" y="733" on="1"/>
        <pt x="713" y="826" on="0"/>
        <pt x="713" y="915" on="1"/>
        <pt x="713" y="1382" on="0"/>
        <pt x="504" y="1382" on="1"/>
        <pt x="436" y="1382" on="0"/>
        <pt x="311" y="1301" on="0"/>
        <pt x="234" y="1206" on="0"/>
        <pt x="202" y="1144" on="1"/>
        <pt x="134" y="1008" on="0"/>
        <pt x="134" y="793" on="1"/>
        <pt x="134" y="691" on="0"/>
        <pt x="149" y="591" on="1"/>
        <pt x="95" y="576" on="1"/>
        <pt x="69" y="705" on="0"/>
        <pt x="69" y="970" on="0"/>
        <pt x="145" y="1208" on="0"/>
        <pt x="210" y="1284" on="1"/>
        <pt x="345" y="1442" on="0"/>
        <pt x="534" y="1442" on="1"/>
        <pt x="814" y="1442" on="0"/>
        <pt x="880" y="1084" on="1"/>
        <pt x="899" y="985" on="0"/>
        <pt x="899" y="866" on="1"/>
        <pt x="986" y="1113" on="0"/>
        <pt x="1147" y="1274" on="1"/>
        <pt x="1315" y="1442" on="0"/>
        <pt x="1528" y="1442" on="1"/>
        <pt x="1609" y="1442" on="0"/>
        <pt x="1702" y="1352" on="0"/>
        <pt x="1702" y="1230" on="0"/>
        <pt x="1636" y="1149" on="0"/>
        <pt x="1502" y="1149" on="0"/>
        <pt x="1412" y="1254" on="0"/>
        <pt x="1397" y="1341" on="1"/>
        <pt x="1231" y="1289" on="0"/>
        <pt x="972" y="939" on="0"/>
        <pt x="937" y="733" on="1"/>
        <pt x="1288" y="733" on="1"/>
        <pt x="1317" y="674" on="1"/>
        <pt x="929" y="674" on="1"/>
        <pt x="926" y="641" on="0"/>
        <pt x="926" y="609" on="1"/>
        <pt x="926" y="367" on="0"/>
        <pt x="1046" y="94" on="0"/>
        <pt x="1157" y="94" on="1"/>
        <pt x="1239" y="94" on="0"/>
        <pt x="1422" y="283" on="0"/>
        <pt x="1510" y="473" on="1"/>
        <pt x="1553" y="436" on="1"/>
        <pt x="1497" y="236" on="0"/>
        <pt x="1230" y="-25" on="0"/>
        <pt x="1092" y="-25" on="1"/>
        <pt x="950" y="-25" on="0"/>
        <pt x="854" y="107" on="1"/>
        <pt x="752" y="247" on="0"/>
        <pt x="748" y="545" on="1"/>
        <pt x="672" y="259" on="0"/>
        <pt x="358" y="-23" on="0"/>
        <pt x="146" y="-23" on="1"/>
        <pt x="64" y="-23" on="0"/>
        <pt x="-20" y="68" on="0"/>
        <pt x="-20" y="186" on="0"/>
        <pt x="50" y="268" on="0"/>
        <pt x="158" y="268" on="0"/>
        <pt x="226" y="236" on="0"/>
        <pt x="244" y="200" on="1"/>
        <pt x="268" y="149" on="0"/>
        <pt x="280" y="70" on="0"/>
        <pt x="281" y="66" on="1"/>
        <pt x="362" y="79" on="0"/>
        <pt x="503" y="190" on="0"/>
        <pt x="553" y="275" on="1"/>
        <pt x="653" y="445" on="0"/>
        <pt x="692" y="674" on="1"/>
        <pt x="264" y="674" on="1"/>
      </contour>
    </TTGlyph>
    <TTGlyph name="Y" xMin="-11" yMin="-525" xMax="1671" yMax="1498">
      <contour>
        <pt x="625" y="211" on="1"/>
        <pt x="825" y="112" on="0"/>
        <pt x="960" y="112" on="1"/>
        <pt x="1182" y="112" on="0"/>
        <pt x="1238" y="395" on="1"/>
        <pt x="1246" y="437" on="0"/>
        <pt x="1272" y="573" on="0"/>
        <pt x="1288" y="661" on="0"/>
        <pt x="1315" y="788" on="0"/>
        <pt x="1338" y="875" on="0"/>
        <pt x="1373" y="986" on="0"/>
        <pt x="1410" y="1066" on="0"/>
        <pt x="1460" y="1156" on="0"/>
        <pt x="1488" y="1190" on="1"/>
        <pt x="1550" y="1264" on="0"/>
        <pt x="1629" y="1308" on="1"/>
        <pt x="1671" y="1277" on="1"/>
        <pt x="1574" y="1204" on="0"/>
        <pt x="1461" y="912" on="0"/>
        <pt x="1431" y="672" on="0"/>
        <pt x="1409" y="346" on="0"/>
        <pt x="1400" y="236" on="0"/>
        <pt x="1376" y="37" on="0"/>
        <pt x="1348" y="-71" on="0"/>
        <pt x="1297" y="-233" on="0"/>
        <pt x="1232" y="-323" on="0"/>
        <pt x="1135" y="-431" on="0"/>
        <pt x="1075" y="-458" on="1"/>
        <pt x="930" y="-525" on="0"/>
        <pt x="757" y="-525" on="1"/>
        <pt x="466" y="-525" on="0"/>
        <pt x="466" y="-367" on="1"/>
        <pt x="466" y="-315" on="0"/>
        <pt x="543" y="-252" on="0"/>
        <pt x="636" y="-252" on="0"/>
        <pt x="698" y="-308" on="0"/>
        <pt x="698" y="-409" on="0"/>
        <pt x="676" y="-460" on="1"/>
        <pt x="719" y="-467" on="0"/>
        <pt x="829" y="-467" on="0"/>
        <pt x="939" y="-430" on="0"/>
        <pt x="1021" y="-368" on="0"/>
        <pt x="1088" y="-268" on="0"/>
        <pt x="1134" y="-164" on="0"/>
        <pt x="1154" y="-92" on="1"/>
        <pt x="1183" y="18" on="0"/>
        <pt x="1210" y="197" on="1"/>
        <pt x="1164" y="86" on="0"/>
        <pt x="1015" y="-5" on="0"/>
        <pt x="916" y="-5" on="1"/>
        <pt x="729" y="-5" on="0"/>
        <pt x="490" y="95" on="1"/>
        <pt x="447" y="55" on="0"/>
        <pt x="253" y="-10" on="0"/>
        <pt x="165" y="-10" on="1"/>
        <pt x="-11" y="-10" on="0"/>
        <pt x="-11" y="122" on="1"/>
        <pt x="-11" y="196" on="0"/>
        <pt x="154" y="306" on="0"/>
        <pt x="422" y="306" on="0"/>
        <pt x="549" y="244" on="1"/>
        <pt x="647" y="324" on="0"/>
        <pt x="838" y="585" on="0"/>
        <pt x="971" y="898" on="0"/>
        <pt x="971" y="1024" on="1"/>
        <pt x="971" y="1219" on="0"/>
        <pt x="789" y="1412" on="0"/>
        <pt x="649" y="1412" on="1"/>
        <pt x="560" y="1412" on="0"/>
        <pt x="376" y="1335" on="0"/>
        <pt x="226" y="1205" on="0"/>
        <pt x="130" y="1012" on="0"/>
        <pt x="130" y="793" on="0"/>
        <pt x="183" y="690" on="1"/>
        <pt x="132" y="668" on="1"/>
        <pt x="73" y="792" on="0"/>
        <pt x="73" y="1052" on="0"/>
        <pt x="178" y="1274" on="0"/>
        <pt x="263" y="1346" on="1"/>
        <pt x="444" y="1498" on="0"/>
        <pt x="663" y="1498" on="1"/>
        <pt x="845" y="1498" on="0"/>
        <pt x="973" y="1382" on="1"/>
        <pt x="1109" y="1257" on="0"/>
        <pt x="1109" y="1008" on="1"/>
        <pt x="1109" y="812" on="0"/>
        <pt x="820" y="357" on="0"/>
      </contour>
      <contour>
        <pt x="425" y="141" on="1"/>
        <pt x="272" y="200" on="0"/>
        <pt x="190" y="200" on="1"/>
        <pt x="52" y="200" on="0"/>
        <pt x="52" y="128" on="1"/>
        <pt x="52" y="63" on="0"/>
        <pt x="157" y="63" on="1"/>
        <pt x="224" y="63" on="0"/>
        <pt x="387" y="113" on="0"/>
      </contour>
    </TTGlyph>
    <TTGlyph name="Yacute" xMin="-11" yMin="-525" xMax="1671" yMax="1808">
      <component glyphName="Y" x="0" y="0" flags="0x1004"/>
      <component glyphName="acute" x="1036" y="835" flags="0x1004"/>
    </TTGlyph>
    <TTGlyph name="Ydieresis" xMin="-11" yMin="-525" xMax="1671" yMax="1709">
      <component glyphName="Y" x="0" y="0" flags="0x1004"/>
      <component glyphName="dieresis" x="834" y="835" flags="0x1004"/>
    </TTGlyph>
</ttFont>
